G04 #@! TF.GenerationSoftware,KiCad,Pcbnew,7.0.10*
G04 #@! TF.CreationDate,2024-06-11T13:44:31+02:00*
G04 #@! TF.ProjectId,RP2040,52503230-3430-42e6-9b69-6361645f7063,rev?*
G04 #@! TF.SameCoordinates,Original*
G04 #@! TF.FileFunction,Legend,Top*
G04 #@! TF.FilePolarity,Positive*
%FSLAX46Y46*%
G04 Gerber Fmt 4.6, Leading zero omitted, Abs format (unit mm)*
G04 Created by KiCad (PCBNEW 7.0.10) date 2024-06-11 13:44:31*
%MOMM*%
%LPD*%
G01*
G04 APERTURE LIST*
G04 Aperture macros list*
%AMRoundRect*
0 Rectangle with rounded corners*
0 $1 Rounding radius*
0 $2 $3 $4 $5 $6 $7 $8 $9 X,Y pos of 4 corners*
0 Add a 4 corners polygon primitive as box body*
4,1,4,$2,$3,$4,$5,$6,$7,$8,$9,$2,$3,0*
0 Add four circle primitives for the rounded corners*
1,1,$1+$1,$2,$3*
1,1,$1+$1,$4,$5*
1,1,$1+$1,$6,$7*
1,1,$1+$1,$8,$9*
0 Add four rect primitives between the rounded corners*
20,1,$1+$1,$2,$3,$4,$5,0*
20,1,$1+$1,$4,$5,$6,$7,0*
20,1,$1+$1,$6,$7,$8,$9,0*
20,1,$1+$1,$8,$9,$2,$3,0*%
G04 Aperture macros list end*
%ADD10C,0.150000*%
%ADD11C,0.120000*%
%ADD12R,0.450000X1.380000*%
%ADD13R,1.650000X1.300000*%
%ADD14R,1.425000X1.550000*%
%ADD15R,1.800000X1.900000*%
%ADD16R,1.000000X1.900000*%
%ADD17RoundRect,0.243750X-0.456250X0.243750X-0.456250X-0.243750X0.456250X-0.243750X0.456250X0.243750X0*%
%ADD18RoundRect,0.050000X-0.387500X-0.050000X0.387500X-0.050000X0.387500X0.050000X-0.387500X0.050000X0*%
%ADD19RoundRect,0.050000X-0.050000X-0.387500X0.050000X-0.387500X0.050000X0.387500X-0.050000X0.387500X0*%
%ADD20R,3.200000X3.200000*%
%ADD21RoundRect,0.225000X0.250000X-0.225000X0.250000X0.225000X-0.250000X0.225000X-0.250000X-0.225000X0*%
%ADD22RoundRect,0.225000X-0.250000X0.225000X-0.250000X-0.225000X0.250000X-0.225000X0.250000X0.225000X0*%
%ADD23R,1.000000X1.450000*%
%ADD24RoundRect,0.125000X-0.262500X-0.125000X0.262500X-0.125000X0.262500X0.125000X-0.262500X0.125000X0*%
%ADD25R,3.400000X4.000000*%
%ADD26R,1.700000X1.700000*%
%ADD27O,1.700000X1.700000*%
G04 APERTURE END LIST*
D10*
X108907486Y-92073419D02*
X108907486Y-91073419D01*
X108907486Y-91073419D02*
X109288438Y-91073419D01*
X109288438Y-91073419D02*
X109383676Y-91121038D01*
X109383676Y-91121038D02*
X109431295Y-91168657D01*
X109431295Y-91168657D02*
X109478914Y-91263895D01*
X109478914Y-91263895D02*
X109478914Y-91406752D01*
X109478914Y-91406752D02*
X109431295Y-91501990D01*
X109431295Y-91501990D02*
X109383676Y-91549609D01*
X109383676Y-91549609D02*
X109288438Y-91597228D01*
X109288438Y-91597228D02*
X108907486Y-91597228D01*
X110478914Y-92073419D02*
X110145581Y-91597228D01*
X109907486Y-92073419D02*
X109907486Y-91073419D01*
X109907486Y-91073419D02*
X110288438Y-91073419D01*
X110288438Y-91073419D02*
X110383676Y-91121038D01*
X110383676Y-91121038D02*
X110431295Y-91168657D01*
X110431295Y-91168657D02*
X110478914Y-91263895D01*
X110478914Y-91263895D02*
X110478914Y-91406752D01*
X110478914Y-91406752D02*
X110431295Y-91501990D01*
X110431295Y-91501990D02*
X110383676Y-91549609D01*
X110383676Y-91549609D02*
X110288438Y-91597228D01*
X110288438Y-91597228D02*
X109907486Y-91597228D01*
X111097962Y-91073419D02*
X111288438Y-91073419D01*
X111288438Y-91073419D02*
X111383676Y-91121038D01*
X111383676Y-91121038D02*
X111478914Y-91216276D01*
X111478914Y-91216276D02*
X111526533Y-91406752D01*
X111526533Y-91406752D02*
X111526533Y-91740085D01*
X111526533Y-91740085D02*
X111478914Y-91930561D01*
X111478914Y-91930561D02*
X111383676Y-92025800D01*
X111383676Y-92025800D02*
X111288438Y-92073419D01*
X111288438Y-92073419D02*
X111097962Y-92073419D01*
X111097962Y-92073419D02*
X111002724Y-92025800D01*
X111002724Y-92025800D02*
X110907486Y-91930561D01*
X110907486Y-91930561D02*
X110859867Y-91740085D01*
X110859867Y-91740085D02*
X110859867Y-91406752D01*
X110859867Y-91406752D02*
X110907486Y-91216276D01*
X110907486Y-91216276D02*
X111002724Y-91121038D01*
X111002724Y-91121038D02*
X111097962Y-91073419D01*
X112478914Y-91121038D02*
X112383676Y-91073419D01*
X112383676Y-91073419D02*
X112240819Y-91073419D01*
X112240819Y-91073419D02*
X112097962Y-91121038D01*
X112097962Y-91121038D02*
X112002724Y-91216276D01*
X112002724Y-91216276D02*
X111955105Y-91311514D01*
X111955105Y-91311514D02*
X111907486Y-91501990D01*
X111907486Y-91501990D02*
X111907486Y-91644847D01*
X111907486Y-91644847D02*
X111955105Y-91835323D01*
X111955105Y-91835323D02*
X112002724Y-91930561D01*
X112002724Y-91930561D02*
X112097962Y-92025800D01*
X112097962Y-92025800D02*
X112240819Y-92073419D01*
X112240819Y-92073419D02*
X112336057Y-92073419D01*
X112336057Y-92073419D02*
X112478914Y-92025800D01*
X112478914Y-92025800D02*
X112526533Y-91978180D01*
X112526533Y-91978180D02*
X112526533Y-91644847D01*
X112526533Y-91644847D02*
X112336057Y-91644847D01*
X114717580Y-92073419D02*
X114384247Y-91597228D01*
X114146152Y-92073419D02*
X114146152Y-91073419D01*
X114146152Y-91073419D02*
X114527104Y-91073419D01*
X114527104Y-91073419D02*
X114622342Y-91121038D01*
X114622342Y-91121038D02*
X114669961Y-91168657D01*
X114669961Y-91168657D02*
X114717580Y-91263895D01*
X114717580Y-91263895D02*
X114717580Y-91406752D01*
X114717580Y-91406752D02*
X114669961Y-91501990D01*
X114669961Y-91501990D02*
X114622342Y-91549609D01*
X114622342Y-91549609D02*
X114527104Y-91597228D01*
X114527104Y-91597228D02*
X114146152Y-91597228D01*
X115098533Y-92025800D02*
X115241390Y-92073419D01*
X115241390Y-92073419D02*
X115479485Y-92073419D01*
X115479485Y-92073419D02*
X115574723Y-92025800D01*
X115574723Y-92025800D02*
X115622342Y-91978180D01*
X115622342Y-91978180D02*
X115669961Y-91882942D01*
X115669961Y-91882942D02*
X115669961Y-91787704D01*
X115669961Y-91787704D02*
X115622342Y-91692466D01*
X115622342Y-91692466D02*
X115574723Y-91644847D01*
X115574723Y-91644847D02*
X115479485Y-91597228D01*
X115479485Y-91597228D02*
X115289009Y-91549609D01*
X115289009Y-91549609D02*
X115193771Y-91501990D01*
X115193771Y-91501990D02*
X115146152Y-91454371D01*
X115146152Y-91454371D02*
X115098533Y-91359133D01*
X115098533Y-91359133D02*
X115098533Y-91263895D01*
X115098533Y-91263895D02*
X115146152Y-91168657D01*
X115146152Y-91168657D02*
X115193771Y-91121038D01*
X115193771Y-91121038D02*
X115289009Y-91073419D01*
X115289009Y-91073419D02*
X115527104Y-91073419D01*
X115527104Y-91073419D02*
X115669961Y-91121038D01*
X115955676Y-91073419D02*
X116527104Y-91073419D01*
X116241390Y-92073419D02*
X116241390Y-91073419D01*
D11*
X116840000Y-66480000D02*
X116460000Y-66480000D01*
X116840000Y-64710000D02*
X116840000Y-66480000D01*
X116840000Y-62170000D02*
X116840000Y-62430000D01*
X109220000Y-66480000D02*
X109600000Y-66480000D01*
X109220000Y-66480000D02*
X109220000Y-64710000D01*
X109220000Y-62430000D02*
X109220000Y-62170000D01*
X109926000Y-67961800D02*
X108006000Y-67961800D01*
X108006000Y-67961800D02*
X108006000Y-70646800D01*
X109926000Y-70646800D02*
X109926000Y-67961800D01*
X109420000Y-82820000D02*
X109420000Y-82170000D01*
X110070000Y-75600000D02*
X109420000Y-75600000D01*
X110070000Y-82820000D02*
X109420000Y-82820000D01*
X115990000Y-75600000D02*
X116640000Y-75600000D01*
X115990000Y-82820000D02*
X116640000Y-82820000D01*
X116640000Y-75600000D02*
X116640000Y-76250000D01*
X116640000Y-82820000D02*
X116640000Y-82170000D01*
X116888800Y-73546580D02*
X116888800Y-73265420D01*
X117908800Y-73546580D02*
X117908800Y-73265420D01*
X117908800Y-68998220D02*
X117908800Y-69279380D01*
X116888800Y-68998220D02*
X116888800Y-69279380D01*
X113456000Y-89836000D02*
X113706000Y-89836000D01*
X116926000Y-89836000D02*
X117176000Y-89836000D01*
X117176000Y-89836000D02*
X117176000Y-84916000D01*
X113456000Y-84916000D02*
X113456000Y-89836000D01*
X113456000Y-84916000D02*
X113706000Y-84916000D01*
X116926000Y-84916000D02*
X117176000Y-84916000D01*
X108659200Y-72987780D02*
X108659200Y-72706620D01*
X109679200Y-72987780D02*
X109679200Y-72706620D01*
X112604000Y-84916000D02*
X112354000Y-84916000D01*
X109134000Y-84916000D02*
X108884000Y-84916000D01*
X108884000Y-84916000D02*
X108884000Y-89836000D01*
X112604000Y-89836000D02*
X112604000Y-84916000D01*
X112604000Y-89836000D02*
X112354000Y-89836000D01*
X109134000Y-89836000D02*
X108884000Y-89836000D01*
X110304900Y-73044200D02*
X116304900Y-73044200D01*
X113304900Y-67824200D02*
X116304900Y-67824200D01*
%LPC*%
D12*
X114330000Y-66230000D03*
X113680000Y-66230000D03*
X113030000Y-66230000D03*
X112380000Y-66230000D03*
X111730000Y-66230000D03*
D13*
X116405000Y-63570000D03*
D14*
X115517500Y-66145000D03*
D15*
X114180000Y-63570000D03*
D16*
X111480000Y-63570000D03*
D14*
X110542500Y-66145000D03*
D13*
X109655000Y-63570000D03*
D17*
X108966000Y-68709300D03*
X108966000Y-70584300D03*
D18*
X109592500Y-76610000D03*
X109592500Y-77010000D03*
X109592500Y-77410000D03*
X109592500Y-77810000D03*
X109592500Y-78210000D03*
X109592500Y-78610000D03*
X109592500Y-79010000D03*
X109592500Y-79410000D03*
X109592500Y-79810000D03*
X109592500Y-80210000D03*
X109592500Y-80610000D03*
X109592500Y-81010000D03*
X109592500Y-81410000D03*
X109592500Y-81810000D03*
D19*
X110430000Y-82647500D03*
X110830000Y-82647500D03*
X111230000Y-82647500D03*
X111630000Y-82647500D03*
X112030000Y-82647500D03*
X112430000Y-82647500D03*
X112830000Y-82647500D03*
X113230000Y-82647500D03*
X113630000Y-82647500D03*
X114030000Y-82647500D03*
X114430000Y-82647500D03*
X114830000Y-82647500D03*
X115230000Y-82647500D03*
X115630000Y-82647500D03*
D18*
X116467500Y-81810000D03*
X116467500Y-81410000D03*
X116467500Y-81010000D03*
X116467500Y-80610000D03*
X116467500Y-80210000D03*
X116467500Y-79810000D03*
X116467500Y-79410000D03*
X116467500Y-79010000D03*
X116467500Y-78610000D03*
X116467500Y-78210000D03*
X116467500Y-77810000D03*
X116467500Y-77410000D03*
X116467500Y-77010000D03*
X116467500Y-76610000D03*
D19*
X115630000Y-75772500D03*
X115230000Y-75772500D03*
X114830000Y-75772500D03*
X114430000Y-75772500D03*
X114030000Y-75772500D03*
X113630000Y-75772500D03*
X113230000Y-75772500D03*
X112830000Y-75772500D03*
X112430000Y-75772500D03*
X112030000Y-75772500D03*
X111630000Y-75772500D03*
X111230000Y-75772500D03*
X110830000Y-75772500D03*
X110430000Y-75772500D03*
D20*
X113030000Y-79210000D03*
D21*
X117398800Y-74181000D03*
X117398800Y-72631000D03*
D22*
X117398800Y-68363800D03*
X117398800Y-69913800D03*
D23*
X114466000Y-89951000D03*
X114466000Y-84801000D03*
X116166000Y-89951000D03*
X116166000Y-84801000D03*
D21*
X109169200Y-73622200D03*
X109169200Y-72072200D03*
D23*
X111594000Y-84801000D03*
X111594000Y-89951000D03*
X109894000Y-84801000D03*
X109894000Y-89951000D03*
D24*
X110642400Y-68529200D03*
X110642400Y-69799200D03*
X110642400Y-71069200D03*
X110642400Y-72339200D03*
X115967400Y-72339200D03*
X115967400Y-71069200D03*
X115967400Y-69799200D03*
X115967400Y-68529200D03*
D25*
X113304900Y-70434200D03*
D26*
X119380000Y-63500000D03*
D27*
X119380000Y-66040000D03*
X119380000Y-68580000D03*
X119380000Y-71120000D03*
X119380000Y-73660000D03*
X119380000Y-76200000D03*
X119380000Y-78740000D03*
X119380000Y-81280000D03*
X119380000Y-83820000D03*
X119380000Y-86360000D03*
X119380000Y-88900000D03*
X119380000Y-91440000D03*
D26*
X106680000Y-63500000D03*
D27*
X106680000Y-66040000D03*
X106680000Y-68580000D03*
X106680000Y-71120000D03*
X106680000Y-73660000D03*
X106680000Y-76200000D03*
X106680000Y-78740000D03*
X106680000Y-81280000D03*
X106680000Y-83820000D03*
X106680000Y-86360000D03*
X106680000Y-88900000D03*
X106680000Y-91440000D03*
%LPD*%
M02*
