G04 #@! TF.GenerationSoftware,KiCad,Pcbnew,7.0.10*
G04 #@! TF.CreationDate,2024-06-11T13:44:31+02:00*
G04 #@! TF.ProjectId,RP2040,52503230-3430-42e6-9b69-6361645f7063,rev?*
G04 #@! TF.SameCoordinates,Original*
G04 #@! TF.FileFunction,Soldermask,Bot*
G04 #@! TF.FilePolarity,Negative*
%FSLAX46Y46*%
G04 Gerber Fmt 4.6, Leading zero omitted, Abs format (unit mm)*
G04 Created by KiCad (PCBNEW 7.0.10) date 2024-06-11 13:44:31*
%MOMM*%
%LPD*%
G01*
G04 APERTURE LIST*
G04 Aperture macros list*
%AMRoundRect*
0 Rectangle with rounded corners*
0 $1 Rounding radius*
0 $2 $3 $4 $5 $6 $7 $8 $9 X,Y pos of 4 corners*
0 Add a 4 corners polygon primitive as box body*
4,1,4,$2,$3,$4,$5,$6,$7,$8,$9,$2,$3,0*
0 Add four circle primitives for the rounded corners*
1,1,$1+$1,$2,$3*
1,1,$1+$1,$4,$5*
1,1,$1+$1,$6,$7*
1,1,$1+$1,$8,$9*
0 Add four rect primitives between the rounded corners*
20,1,$1+$1,$2,$3,$4,$5,0*
20,1,$1+$1,$4,$5,$6,$7,0*
20,1,$1+$1,$6,$7,$8,$9,0*
20,1,$1+$1,$8,$9,$2,$3,0*%
G04 Aperture macros list end*
%ADD10RoundRect,0.225000X-0.250000X0.225000X-0.250000X-0.225000X0.250000X-0.225000X0.250000X0.225000X0*%
%ADD11RoundRect,0.225000X0.250000X-0.225000X0.250000X0.225000X-0.250000X0.225000X-0.250000X-0.225000X0*%
%ADD12R,1.700000X1.700000*%
%ADD13O,1.700000X1.700000*%
%ADD14RoundRect,0.200000X0.200000X0.275000X-0.200000X0.275000X-0.200000X-0.275000X0.200000X-0.275000X0*%
%ADD15R,1.400000X1.200000*%
%ADD16RoundRect,0.200000X-0.275000X0.200000X-0.275000X-0.200000X0.275000X-0.200000X0.275000X0.200000X0*%
%ADD17RoundRect,0.200000X0.275000X-0.200000X0.275000X0.200000X-0.275000X0.200000X-0.275000X-0.200000X0*%
%ADD18R,1.500000X2.000000*%
%ADD19R,3.800000X2.000000*%
G04 APERTURE END LIST*
D10*
X111607600Y-78371400D03*
X111607600Y-79921400D03*
X110134400Y-77965000D03*
X110134400Y-79515000D03*
X114655600Y-78371400D03*
X114655600Y-79921400D03*
D11*
X116687600Y-73469800D03*
X116687600Y-71919800D03*
D10*
X116179600Y-78371400D03*
X116179600Y-79921400D03*
X114909600Y-81368600D03*
X114909600Y-82918600D03*
D12*
X119380000Y-63500000D03*
D13*
X119380000Y-66040000D03*
X119380000Y-68580000D03*
X119380000Y-71120000D03*
X119380000Y-73660000D03*
X119380000Y-76200000D03*
X119380000Y-78740000D03*
X119380000Y-81280000D03*
X119380000Y-83820000D03*
X119380000Y-86360000D03*
X119380000Y-88900000D03*
X119380000Y-91440000D03*
D14*
X111569000Y-88036400D03*
X109919000Y-88036400D03*
D11*
X116789200Y-66510200D03*
X116789200Y-64960200D03*
D15*
X114942800Y-86332800D03*
X112742800Y-86332800D03*
X112742800Y-84632800D03*
X114942800Y-84632800D03*
D16*
X113741200Y-64910200D03*
X113741200Y-66560200D03*
D17*
X109220000Y-66560200D03*
X109220000Y-64910200D03*
D11*
X116687600Y-70472600D03*
X116687600Y-68922600D03*
D10*
X116738400Y-84517600D03*
X116738400Y-86067600D03*
D11*
X112217200Y-66510200D03*
X112217200Y-64960200D03*
D16*
X115265200Y-64910200D03*
X115265200Y-66560200D03*
D11*
X110947200Y-86461000D03*
X110947200Y-84911000D03*
D14*
X116090200Y-88036400D03*
X114440200Y-88036400D03*
D10*
X113131600Y-78371400D03*
X113131600Y-79921400D03*
D12*
X106680000Y-63500000D03*
D13*
X106680000Y-66040000D03*
X106680000Y-68580000D03*
X106680000Y-71120000D03*
X106680000Y-73660000D03*
X106680000Y-76200000D03*
X106680000Y-78740000D03*
X106680000Y-81280000D03*
X106680000Y-83820000D03*
X106680000Y-86360000D03*
X106680000Y-88900000D03*
X106680000Y-91440000D03*
D10*
X116433600Y-81381600D03*
X116433600Y-82931600D03*
D18*
X109917200Y-69036400D03*
X112217200Y-69036400D03*
D19*
X112217200Y-75336400D03*
D18*
X114517200Y-69036400D03*
D16*
X110693200Y-64910200D03*
X110693200Y-66560200D03*
M02*
