G04 #@! TF.GenerationSoftware,KiCad,Pcbnew,7.0.10*
G04 #@! TF.CreationDate,2024-06-11T13:44:31+02:00*
G04 #@! TF.ProjectId,RP2040,52503230-3430-42e6-9b69-6361645f7063,rev?*
G04 #@! TF.SameCoordinates,Original*
G04 #@! TF.FileFunction,Legend,Bot*
G04 #@! TF.FilePolarity,Positive*
%FSLAX46Y46*%
G04 Gerber Fmt 4.6, Leading zero omitted, Abs format (unit mm)*
G04 Created by KiCad (PCBNEW 7.0.10) date 2024-06-11 13:44:31*
%MOMM*%
%LPD*%
G01*
G04 APERTURE LIST*
G04 Aperture macros list*
%AMRoundRect*
0 Rectangle with rounded corners*
0 $1 Rounding radius*
0 $2 $3 $4 $5 $6 $7 $8 $9 X,Y pos of 4 corners*
0 Add a 4 corners polygon primitive as box body*
4,1,4,$2,$3,$4,$5,$6,$7,$8,$9,$2,$3,0*
0 Add four circle primitives for the rounded corners*
1,1,$1+$1,$2,$3*
1,1,$1+$1,$4,$5*
1,1,$1+$1,$6,$7*
1,1,$1+$1,$8,$9*
0 Add four rect primitives between the rounded corners*
20,1,$1+$1,$2,$3,$4,$5,0*
20,1,$1+$1,$4,$5,$6,$7,0*
20,1,$1+$1,$6,$7,$8,$9,0*
20,1,$1+$1,$8,$9,$2,$3,0*%
G04 Aperture macros list end*
%ADD10C,0.300000*%
%ADD11C,0.120000*%
%ADD12RoundRect,0.225000X-0.250000X0.225000X-0.250000X-0.225000X0.250000X-0.225000X0.250000X0.225000X0*%
%ADD13RoundRect,0.225000X0.250000X-0.225000X0.250000X0.225000X-0.250000X0.225000X-0.250000X-0.225000X0*%
%ADD14R,1.700000X1.700000*%
%ADD15O,1.700000X1.700000*%
%ADD16RoundRect,0.200000X0.200000X0.275000X-0.200000X0.275000X-0.200000X-0.275000X0.200000X-0.275000X0*%
%ADD17R,1.400000X1.200000*%
%ADD18RoundRect,0.200000X-0.275000X0.200000X-0.275000X-0.200000X0.275000X-0.200000X0.275000X0.200000X0*%
%ADD19RoundRect,0.200000X0.275000X-0.200000X0.275000X0.200000X-0.275000X0.200000X-0.275000X-0.200000X0*%
%ADD20R,1.500000X2.000000*%
%ADD21R,3.800000X2.000000*%
G04 APERTURE END LIST*
D10*
G36*
X109381621Y-90909486D02*
G01*
X109409103Y-90936968D01*
X109452759Y-91024280D01*
X109506190Y-91238005D01*
X109506190Y-91510602D01*
X109452758Y-91724329D01*
X109409103Y-91811641D01*
X109381622Y-91839121D01*
X109311257Y-91874304D01*
X109258266Y-91874304D01*
X109187902Y-91839122D01*
X109160421Y-91811641D01*
X109116764Y-91724328D01*
X109063333Y-91510601D01*
X109063333Y-91238006D01*
X109116764Y-91024279D01*
X109160420Y-90936968D01*
X109187902Y-90909487D01*
X109258268Y-90874304D01*
X109311257Y-90874304D01*
X109381621Y-90909486D01*
G37*
G36*
X111857811Y-90909486D02*
G01*
X111885293Y-90936968D01*
X111928949Y-91024280D01*
X111982380Y-91238005D01*
X111982380Y-91510602D01*
X111928948Y-91724329D01*
X111885293Y-91811641D01*
X111857812Y-91839121D01*
X111787447Y-91874304D01*
X111734456Y-91874304D01*
X111664092Y-91839122D01*
X111636611Y-91811641D01*
X111592954Y-91724328D01*
X111539523Y-91510601D01*
X111539523Y-91238006D01*
X111592954Y-91024279D01*
X111636610Y-90936968D01*
X111664092Y-90909487D01*
X111734458Y-90874304D01*
X111787447Y-90874304D01*
X111857811Y-90909486D01*
G37*
G36*
X114458571Y-91255257D02*
G01*
X114148743Y-91255257D01*
X114078377Y-91220074D01*
X114050896Y-91192593D01*
X114015714Y-91122228D01*
X114015714Y-91007332D01*
X114050896Y-90936967D01*
X114078377Y-90909487D01*
X114148743Y-90874304D01*
X114458571Y-90874304D01*
X114458571Y-91255257D01*
G37*
G36*
X115758571Y-91255257D02*
G01*
X115448743Y-91255257D01*
X115378377Y-91220074D01*
X115350896Y-91192593D01*
X115315714Y-91122228D01*
X115315714Y-91007332D01*
X115350896Y-90936967D01*
X115378377Y-90909487D01*
X115448743Y-90874304D01*
X115758571Y-90874304D01*
X115758571Y-91255257D01*
G37*
G36*
X117420475Y-92360018D02*
G01*
X108577619Y-92360018D01*
X108577619Y-91529066D01*
X108763333Y-91529066D01*
X108768123Y-91546942D01*
X108767812Y-91565446D01*
X108829717Y-91813066D01*
X108837753Y-91827543D01*
X108841074Y-91843767D01*
X108902979Y-91967577D01*
X108919002Y-91985646D01*
X108931077Y-92006561D01*
X108992982Y-92068466D01*
X109013896Y-92080540D01*
X109031966Y-92096564D01*
X109155775Y-92158468D01*
X109189548Y-92165378D01*
X109222857Y-92174304D01*
X109346667Y-92174304D01*
X109379970Y-92165380D01*
X109413749Y-92158468D01*
X109537557Y-92096564D01*
X109555624Y-92080542D01*
X109576542Y-92068466D01*
X109638447Y-92006561D01*
X109650521Y-91985646D01*
X109666545Y-91967577D01*
X109728450Y-91843767D01*
X109731770Y-91827542D01*
X109739807Y-91813065D01*
X109795331Y-91590971D01*
X109939524Y-91590971D01*
X109959620Y-91665971D01*
X110014524Y-91720875D01*
X110089524Y-91740971D01*
X110125238Y-91740971D01*
X110125238Y-92024304D01*
X110145334Y-92099304D01*
X110200238Y-92154208D01*
X110275238Y-92174304D01*
X110350238Y-92154208D01*
X110405142Y-92099304D01*
X110425238Y-92024304D01*
X110425238Y-91740971D01*
X110894285Y-91740971D01*
X110917610Y-91734721D01*
X110941719Y-91733274D01*
X110954496Y-91724837D01*
X110969285Y-91720875D01*
X110986360Y-91703799D01*
X111006516Y-91690492D01*
X111013364Y-91676796D01*
X111024189Y-91665971D01*
X111030438Y-91642646D01*
X111041240Y-91621044D01*
X111040322Y-91605759D01*
X111044285Y-91590971D01*
X111038034Y-91567645D01*
X111036588Y-91543537D01*
X111031764Y-91529066D01*
X111239523Y-91529066D01*
X111244313Y-91546942D01*
X111244002Y-91565446D01*
X111305907Y-91813066D01*
X111313943Y-91827543D01*
X111317264Y-91843767D01*
X111379169Y-91967577D01*
X111395192Y-91985646D01*
X111407267Y-92006561D01*
X111469172Y-92068466D01*
X111490086Y-92080540D01*
X111508156Y-92096564D01*
X111631965Y-92158468D01*
X111665738Y-92165378D01*
X111699047Y-92174304D01*
X111822857Y-92174304D01*
X111856160Y-92165380D01*
X111889939Y-92158468D01*
X112013747Y-92096564D01*
X112031814Y-92080542D01*
X112052732Y-92068466D01*
X112096894Y-92024304D01*
X112477618Y-92024304D01*
X112497714Y-92099304D01*
X112552618Y-92154208D01*
X112627618Y-92174304D01*
X113432380Y-92174304D01*
X113451455Y-92169193D01*
X113471203Y-92169193D01*
X113488305Y-92159319D01*
X113507380Y-92154208D01*
X113521344Y-92140243D01*
X113538446Y-92130370D01*
X113548319Y-92113268D01*
X113562284Y-92099304D01*
X113567395Y-92080229D01*
X113577269Y-92063127D01*
X113577269Y-92043378D01*
X113582380Y-92024304D01*
X113577269Y-92005229D01*
X113577269Y-91985481D01*
X113567395Y-91968378D01*
X113562284Y-91949304D01*
X113548319Y-91935339D01*
X113538446Y-91918238D01*
X112820626Y-91200418D01*
X112806366Y-91157638D01*
X113715714Y-91157638D01*
X113724637Y-91190941D01*
X113731550Y-91224720D01*
X113793454Y-91348528D01*
X113809475Y-91366595D01*
X113821552Y-91387513D01*
X113883457Y-91449418D01*
X113904371Y-91461492D01*
X113922441Y-91477516D01*
X114046251Y-91539421D01*
X114080031Y-91546333D01*
X114113333Y-91555257D01*
X114458571Y-91555257D01*
X114458571Y-92024304D01*
X114478667Y-92099304D01*
X114533571Y-92154208D01*
X114608571Y-92174304D01*
X114683571Y-92154208D01*
X114738475Y-92099304D01*
X114758571Y-92024304D01*
X114758571Y-91157638D01*
X115015714Y-91157638D01*
X115024637Y-91190941D01*
X115031550Y-91224720D01*
X115093454Y-91348528D01*
X115109475Y-91366595D01*
X115121552Y-91387513D01*
X115183457Y-91449418D01*
X115204371Y-91461492D01*
X115222441Y-91477516D01*
X115328312Y-91530451D01*
X115042829Y-91938285D01*
X115016283Y-92011251D01*
X115029777Y-92087716D01*
X115079695Y-92147189D01*
X115152661Y-92173735D01*
X115229126Y-92160241D01*
X115288599Y-92110323D01*
X115677146Y-91555257D01*
X115758571Y-91555257D01*
X115758571Y-92024304D01*
X115778667Y-92099304D01*
X115833571Y-92154208D01*
X115908571Y-92174304D01*
X115983571Y-92154208D01*
X116038475Y-92099304D01*
X116058571Y-92024304D01*
X116315713Y-92024304D01*
X116335809Y-92099304D01*
X116390713Y-92154208D01*
X116465713Y-92174304D01*
X117084761Y-92174304D01*
X117159761Y-92154208D01*
X117214665Y-92099304D01*
X117234761Y-92024304D01*
X117234761Y-90724304D01*
X117214665Y-90649304D01*
X117159761Y-90594400D01*
X117084761Y-90574304D01*
X116465713Y-90574304D01*
X116390713Y-90594400D01*
X116335809Y-90649304D01*
X116315713Y-90724304D01*
X116335809Y-90799304D01*
X116390713Y-90854208D01*
X116465713Y-90874304D01*
X116934761Y-90874304D01*
X116934761Y-91193352D01*
X116651427Y-91193352D01*
X116576427Y-91213448D01*
X116521523Y-91268352D01*
X116501427Y-91343352D01*
X116521523Y-91418352D01*
X116576427Y-91473256D01*
X116651427Y-91493352D01*
X116934761Y-91493352D01*
X116934761Y-91874304D01*
X116465713Y-91874304D01*
X116390713Y-91894400D01*
X116335809Y-91949304D01*
X116315713Y-92024304D01*
X116058571Y-92024304D01*
X116058571Y-90724304D01*
X116038475Y-90649304D01*
X115983571Y-90594400D01*
X115908571Y-90574304D01*
X115413333Y-90574304D01*
X115380031Y-90583227D01*
X115346251Y-90590140D01*
X115222441Y-90652045D01*
X115204371Y-90668068D01*
X115183457Y-90680143D01*
X115121552Y-90742048D01*
X115109475Y-90762965D01*
X115093454Y-90781033D01*
X115031550Y-90904841D01*
X115024637Y-90938619D01*
X115015714Y-90971923D01*
X115015714Y-91157638D01*
X114758571Y-91157638D01*
X114758571Y-90724304D01*
X114738475Y-90649304D01*
X114683571Y-90594400D01*
X114608571Y-90574304D01*
X114113333Y-90574304D01*
X114080031Y-90583227D01*
X114046251Y-90590140D01*
X113922441Y-90652045D01*
X113904371Y-90668068D01*
X113883457Y-90680143D01*
X113821552Y-90742048D01*
X113809475Y-90762965D01*
X113793454Y-90781033D01*
X113731550Y-90904841D01*
X113724637Y-90938619D01*
X113715714Y-90971923D01*
X113715714Y-91157638D01*
X112806366Y-91157638D01*
X112777618Y-91071392D01*
X112777618Y-91007333D01*
X112812800Y-90936968D01*
X112840282Y-90909487D01*
X112910648Y-90874304D01*
X113149351Y-90874304D01*
X113219716Y-90909486D01*
X113264408Y-90954179D01*
X113331651Y-90993003D01*
X113409297Y-90993003D01*
X113476540Y-90954181D01*
X113515364Y-90886938D01*
X113515364Y-90809292D01*
X113476542Y-90742049D01*
X113414638Y-90680144D01*
X113393722Y-90668068D01*
X113375653Y-90652045D01*
X113251843Y-90590140D01*
X113218062Y-90583227D01*
X113184761Y-90574304D01*
X112875237Y-90574304D01*
X112841935Y-90583227D01*
X112808155Y-90590140D01*
X112684346Y-90652045D01*
X112666277Y-90668067D01*
X112645362Y-90680143D01*
X112583457Y-90742048D01*
X112571382Y-90762961D01*
X112555359Y-90781031D01*
X112493454Y-90904841D01*
X112486541Y-90938621D01*
X112477618Y-90971923D01*
X112477618Y-91095733D01*
X112483868Y-91119061D01*
X112485316Y-91143167D01*
X112547221Y-91328882D01*
X112566216Y-91357652D01*
X112583457Y-91387513D01*
X113070248Y-91874304D01*
X112627618Y-91874304D01*
X112552618Y-91894400D01*
X112497714Y-91949304D01*
X112477618Y-92024304D01*
X112096894Y-92024304D01*
X112114637Y-92006561D01*
X112126711Y-91985646D01*
X112142735Y-91967577D01*
X112204640Y-91843767D01*
X112207960Y-91827542D01*
X112215997Y-91813065D01*
X112277902Y-91565446D01*
X112277590Y-91546940D01*
X112282380Y-91529066D01*
X112282380Y-91219542D01*
X112277590Y-91201667D01*
X112277902Y-91183162D01*
X112215997Y-90935543D01*
X112207960Y-90921065D01*
X112204640Y-90904841D01*
X112142735Y-90781032D01*
X112126712Y-90762963D01*
X112114637Y-90742048D01*
X112052732Y-90680143D01*
X112031818Y-90668068D01*
X112013749Y-90652045D01*
X111889939Y-90590140D01*
X111856158Y-90583227D01*
X111822857Y-90574304D01*
X111699047Y-90574304D01*
X111665745Y-90583227D01*
X111631965Y-90590140D01*
X111508156Y-90652045D01*
X111490087Y-90668067D01*
X111469172Y-90680143D01*
X111407267Y-90742048D01*
X111395192Y-90762961D01*
X111379169Y-90781031D01*
X111317264Y-90904841D01*
X111313943Y-90921064D01*
X111305907Y-90935542D01*
X111244002Y-91183162D01*
X111244313Y-91201665D01*
X111239523Y-91219542D01*
X111239523Y-91529066D01*
X111031764Y-91529066D01*
X110727065Y-90614966D01*
X110684283Y-90550170D01*
X110614834Y-90515445D01*
X110537328Y-90520097D01*
X110472532Y-90562879D01*
X110437807Y-90632328D01*
X110442459Y-90709834D01*
X110686172Y-91440971D01*
X110425238Y-91440971D01*
X110425238Y-91157638D01*
X110405142Y-91082638D01*
X110350238Y-91027734D01*
X110275238Y-91007638D01*
X110200238Y-91027734D01*
X110145334Y-91082638D01*
X110125238Y-91157638D01*
X110125238Y-91440971D01*
X110089524Y-91440971D01*
X110014524Y-91461067D01*
X109959620Y-91515971D01*
X109939524Y-91590971D01*
X109795331Y-91590971D01*
X109801712Y-91565446D01*
X109801400Y-91546940D01*
X109806190Y-91529066D01*
X109806190Y-91219542D01*
X109801400Y-91201667D01*
X109801712Y-91183162D01*
X109739807Y-90935543D01*
X109731770Y-90921065D01*
X109728450Y-90904841D01*
X109666545Y-90781032D01*
X109650522Y-90762963D01*
X109638447Y-90742048D01*
X109576542Y-90680143D01*
X109555628Y-90668068D01*
X109537559Y-90652045D01*
X109413749Y-90590140D01*
X109379968Y-90583227D01*
X109346667Y-90574304D01*
X109222857Y-90574304D01*
X109189555Y-90583227D01*
X109155775Y-90590140D01*
X109031966Y-90652045D01*
X109013897Y-90668067D01*
X108992982Y-90680143D01*
X108931077Y-90742048D01*
X108919002Y-90762961D01*
X108902979Y-90781031D01*
X108841074Y-90904841D01*
X108837753Y-90921064D01*
X108829717Y-90935542D01*
X108767812Y-91183162D01*
X108768123Y-91201665D01*
X108763333Y-91219542D01*
X108763333Y-91529066D01*
X108577619Y-91529066D01*
X108577619Y-90329731D01*
X117420475Y-90329731D01*
X117420475Y-92360018D01*
G37*
D11*
X112117600Y-79005820D02*
X112117600Y-79286980D01*
X111097600Y-79005820D02*
X111097600Y-79286980D01*
X110644400Y-78599420D02*
X110644400Y-78880580D01*
X109624400Y-78599420D02*
X109624400Y-78880580D01*
X115165600Y-79005820D02*
X115165600Y-79286980D01*
X114145600Y-79005820D02*
X114145600Y-79286980D01*
X116177600Y-72835380D02*
X116177600Y-72554220D01*
X117197600Y-72835380D02*
X117197600Y-72554220D01*
X116689600Y-79005820D02*
X116689600Y-79286980D01*
X115669600Y-79005820D02*
X115669600Y-79286980D01*
X115419600Y-82003020D02*
X115419600Y-82284180D01*
X114399600Y-82003020D02*
X114399600Y-82284180D01*
X120710000Y-92770000D02*
X118050000Y-92770000D01*
X120710000Y-64770000D02*
X120710000Y-92770000D01*
X120710000Y-64770000D02*
X118050000Y-64770000D01*
X120710000Y-63500000D02*
X120710000Y-62170000D01*
X120710000Y-62170000D02*
X119380000Y-62170000D01*
X118050000Y-64770000D02*
X118050000Y-92770000D01*
X110981258Y-88558900D02*
X110506742Y-88558900D01*
X110981258Y-87513900D02*
X110506742Y-87513900D01*
X116279200Y-65875780D02*
X116279200Y-65594620D01*
X117299200Y-65875780D02*
X117299200Y-65594620D01*
X115842800Y-87132800D02*
X111842800Y-87132800D01*
X115842800Y-83832800D02*
X115842800Y-87132800D01*
X114263700Y-65497942D02*
X114263700Y-65972458D01*
X113218700Y-65497942D02*
X113218700Y-65972458D01*
X108697500Y-65972458D02*
X108697500Y-65497942D01*
X109742500Y-65972458D02*
X109742500Y-65497942D01*
X116177600Y-69838180D02*
X116177600Y-69557020D01*
X117197600Y-69838180D02*
X117197600Y-69557020D01*
X117248400Y-85152020D02*
X117248400Y-85433180D01*
X116228400Y-85152020D02*
X116228400Y-85433180D01*
X111707200Y-65875780D02*
X111707200Y-65594620D01*
X112727200Y-65875780D02*
X112727200Y-65594620D01*
X115787700Y-65497942D02*
X115787700Y-65972458D01*
X114742700Y-65497942D02*
X114742700Y-65972458D01*
X110437200Y-85826580D02*
X110437200Y-85545420D01*
X111457200Y-85826580D02*
X111457200Y-85545420D01*
X115502458Y-88558900D02*
X115027942Y-88558900D01*
X115502458Y-87513900D02*
X115027942Y-87513900D01*
X113641600Y-79005820D02*
X113641600Y-79286980D01*
X112621600Y-79005820D02*
X112621600Y-79286980D01*
X108010000Y-92770000D02*
X105350000Y-92770000D01*
X108010000Y-64770000D02*
X108010000Y-92770000D01*
X108010000Y-64770000D02*
X105350000Y-64770000D01*
X108010000Y-63500000D02*
X108010000Y-62170000D01*
X108010000Y-62170000D02*
X106680000Y-62170000D01*
X105350000Y-64770000D02*
X105350000Y-92770000D01*
X116943600Y-82016020D02*
X116943600Y-82297180D01*
X115923600Y-82016020D02*
X115923600Y-82297180D01*
X108807200Y-68086400D02*
X108807200Y-74096400D01*
X115627200Y-70336400D02*
X115627200Y-74096400D01*
X115627200Y-74096400D02*
X114367200Y-74096400D01*
X108807200Y-74096400D02*
X110067200Y-74096400D01*
X111215700Y-65497942D02*
X111215700Y-65972458D01*
X110170700Y-65497942D02*
X110170700Y-65972458D01*
%LPC*%
D12*
X111607600Y-78371400D03*
X111607600Y-79921400D03*
X110134400Y-77965000D03*
X110134400Y-79515000D03*
X114655600Y-78371400D03*
X114655600Y-79921400D03*
D13*
X116687600Y-73469800D03*
X116687600Y-71919800D03*
D12*
X116179600Y-78371400D03*
X116179600Y-79921400D03*
X114909600Y-81368600D03*
X114909600Y-82918600D03*
D14*
X119380000Y-63500000D03*
D15*
X119380000Y-66040000D03*
X119380000Y-68580000D03*
X119380000Y-71120000D03*
X119380000Y-73660000D03*
X119380000Y-76200000D03*
X119380000Y-78740000D03*
X119380000Y-81280000D03*
X119380000Y-83820000D03*
X119380000Y-86360000D03*
X119380000Y-88900000D03*
X119380000Y-91440000D03*
D16*
X111569000Y-88036400D03*
X109919000Y-88036400D03*
D13*
X116789200Y-66510200D03*
X116789200Y-64960200D03*
D17*
X114942800Y-86332800D03*
X112742800Y-86332800D03*
X112742800Y-84632800D03*
X114942800Y-84632800D03*
D18*
X113741200Y-64910200D03*
X113741200Y-66560200D03*
D19*
X109220000Y-66560200D03*
X109220000Y-64910200D03*
D13*
X116687600Y-70472600D03*
X116687600Y-68922600D03*
D12*
X116738400Y-84517600D03*
X116738400Y-86067600D03*
D13*
X112217200Y-66510200D03*
X112217200Y-64960200D03*
D18*
X115265200Y-64910200D03*
X115265200Y-66560200D03*
D13*
X110947200Y-86461000D03*
X110947200Y-84911000D03*
D16*
X116090200Y-88036400D03*
X114440200Y-88036400D03*
D12*
X113131600Y-78371400D03*
X113131600Y-79921400D03*
D14*
X106680000Y-63500000D03*
D15*
X106680000Y-66040000D03*
X106680000Y-68580000D03*
X106680000Y-71120000D03*
X106680000Y-73660000D03*
X106680000Y-76200000D03*
X106680000Y-78740000D03*
X106680000Y-81280000D03*
X106680000Y-83820000D03*
X106680000Y-86360000D03*
X106680000Y-88900000D03*
X106680000Y-91440000D03*
D12*
X116433600Y-81381600D03*
X116433600Y-82931600D03*
D20*
X109917200Y-69036400D03*
X112217200Y-69036400D03*
D21*
X112217200Y-75336400D03*
D20*
X114517200Y-69036400D03*
D18*
X110693200Y-64910200D03*
X110693200Y-66560200D03*
%LPD*%
M02*
