G04 #@! TF.GenerationSoftware,KiCad,Pcbnew,7.0.10*
G04 #@! TF.CreationDate,2024-06-11T13:44:31+02:00*
G04 #@! TF.ProjectId,RP2040,52503230-3430-42e6-9b69-6361645f7063,rev?*
G04 #@! TF.SameCoordinates,Original*
G04 #@! TF.FileFunction,Copper,L2,Inr*
G04 #@! TF.FilePolarity,Positive*
%FSLAX46Y46*%
G04 Gerber Fmt 4.6, Leading zero omitted, Abs format (unit mm)*
G04 Created by KiCad (PCBNEW 7.0.10) date 2024-06-11 13:44:31*
%MOMM*%
%LPD*%
G01*
G04 APERTURE LIST*
G04 #@! TA.AperFunction,ComponentPad*
%ADD10R,1.700000X1.700000*%
G04 #@! TD*
G04 #@! TA.AperFunction,ComponentPad*
%ADD11O,1.700000X1.700000*%
G04 #@! TD*
G04 #@! TA.AperFunction,ViaPad*
%ADD12C,0.500000*%
G04 #@! TD*
G04 #@! TA.AperFunction,Conductor*
%ADD13C,0.200000*%
G04 #@! TD*
G04 APERTURE END LIST*
D10*
X119380000Y-63500000D03*
D11*
X119380000Y-66040000D03*
X119380000Y-68580000D03*
X119380000Y-71120000D03*
X119380000Y-73660000D03*
X119380000Y-76200000D03*
X119380000Y-78740000D03*
X119380000Y-81280000D03*
X119380000Y-83820000D03*
X119380000Y-86360000D03*
X119380000Y-88900000D03*
X119380000Y-91440000D03*
D10*
X106680000Y-63500000D03*
D11*
X106680000Y-66040000D03*
X106680000Y-68580000D03*
X106680000Y-71120000D03*
X106680000Y-73660000D03*
X106680000Y-76200000D03*
X106680000Y-78740000D03*
X106680000Y-81280000D03*
X106680000Y-83820000D03*
X106680000Y-86360000D03*
X106680000Y-88900000D03*
X106680000Y-91440000D03*
D12*
X113842800Y-81778400D03*
X112115600Y-76911200D03*
X116230400Y-74980800D03*
X116941600Y-87477600D03*
X117602000Y-89966800D03*
X107594400Y-67360800D03*
X115366800Y-62738000D03*
X110490000Y-76758800D03*
X110642400Y-62687200D03*
X112471200Y-81178400D03*
X116789200Y-71475600D03*
X108508800Y-89966800D03*
X110998000Y-80975200D03*
X110032800Y-71678800D03*
X110998000Y-79146400D03*
X116840000Y-75793600D03*
X115468400Y-80568800D03*
X109728000Y-72847200D03*
X115684600Y-74181000D03*
X111099600Y-69138800D03*
X117195600Y-76504800D03*
X114960400Y-76860400D03*
X116789200Y-67564000D03*
X117551200Y-87985600D03*
X108712000Y-80314800D03*
X117856000Y-71069200D03*
X113030000Y-81778400D03*
X113436400Y-76911200D03*
X115620800Y-77266800D03*
X111963200Y-83616800D03*
X113639600Y-83616800D03*
X111709200Y-67462400D03*
X117652800Y-66548000D03*
X112826800Y-63296800D03*
X112420400Y-63957200D03*
X117297200Y-78383587D03*
X117398800Y-82753200D03*
X115214400Y-88798400D03*
X108712000Y-81076800D03*
X110439200Y-80467200D03*
X110337600Y-81432400D03*
X108712000Y-81838800D03*
X109423200Y-82854800D03*
X110998000Y-81788000D03*
X109372400Y-83616800D03*
X111709200Y-81381600D03*
X110744000Y-83870800D03*
X117297200Y-77470000D03*
X118821200Y-80060800D03*
X118922800Y-77470000D03*
X109829600Y-74828400D03*
X112369600Y-88036400D03*
X110845600Y-67564000D03*
X110693200Y-88849200D03*
X108204000Y-65786000D03*
X108712000Y-69646800D03*
X117348000Y-81889600D03*
X110642400Y-73152000D03*
X111201200Y-70358000D03*
X111201200Y-71628000D03*
X111404400Y-73152000D03*
X115163600Y-73660000D03*
X112166400Y-73152000D03*
X112928400Y-73152000D03*
X115112800Y-72847200D03*
X113690400Y-72847200D03*
X115671600Y-69189600D03*
X113842800Y-73914000D03*
X113741200Y-67360800D03*
X115265200Y-67411600D03*
X114554000Y-74523600D03*
D13*
X118262400Y-79502000D02*
X118821200Y-80060800D01*
X118922800Y-77470000D02*
X118262400Y-78130400D01*
X118262400Y-78130400D02*
X118262400Y-79502000D01*
X111506000Y-63500000D02*
X106680000Y-63500000D01*
X111709200Y-67462400D02*
X111709200Y-63703200D01*
X111709200Y-63703200D02*
X111506000Y-63500000D01*
X117043200Y-66751200D02*
X117043200Y-63652400D01*
X117195600Y-63500000D02*
X119380000Y-63500000D01*
X117348000Y-71628000D02*
X117348000Y-67056000D01*
X117043200Y-63652400D02*
X117195600Y-63500000D01*
X117348000Y-67056000D02*
X117043200Y-66751200D01*
X117856000Y-82296000D02*
X117856000Y-72136000D01*
X117398800Y-82753200D02*
X117856000Y-82296000D01*
X117856000Y-72136000D02*
X117348000Y-71628000D01*
X111556800Y-82346800D02*
X116078000Y-82346800D01*
X119380000Y-81584800D02*
X119380000Y-81280000D01*
X116078000Y-82346800D02*
X117043200Y-83312000D01*
X110998000Y-81788000D02*
X111556800Y-82346800D01*
X117043200Y-83312000D02*
X117652800Y-83312000D01*
X117652800Y-83312000D02*
X119380000Y-81584800D01*
X109575600Y-83616800D02*
X110439200Y-82753200D01*
X109372400Y-83616800D02*
X109575600Y-83616800D01*
X115925600Y-82753200D02*
X116992400Y-83820000D01*
X116992400Y-83820000D02*
X119380000Y-83820000D01*
X110439200Y-82753200D02*
X115925600Y-82753200D01*
X110744000Y-83870800D02*
X110744000Y-86207600D01*
X110744000Y-86207600D02*
X110896400Y-86360000D01*
X110896400Y-86360000D02*
X119380000Y-86360000D01*
X108204000Y-67868800D02*
X108204000Y-73202800D01*
X110845600Y-67564000D02*
X108508800Y-67564000D01*
X109829600Y-74828400D02*
X109524800Y-75133200D01*
X108204000Y-73202800D02*
X109829600Y-74828400D01*
X108762800Y-82651600D02*
X108762800Y-87884000D01*
X108915200Y-88036400D02*
X112369600Y-88036400D01*
X109524800Y-75133200D02*
X109524800Y-81889600D01*
X109524800Y-81889600D02*
X108762800Y-82651600D01*
X108762800Y-87884000D02*
X108915200Y-88036400D01*
X108508800Y-67564000D02*
X108204000Y-67868800D01*
X110439200Y-74574400D02*
X108712000Y-72847200D01*
X117348000Y-80060800D02*
X117195600Y-79908400D01*
X110439200Y-75082400D02*
X110439200Y-74574400D01*
X108712000Y-72847200D02*
X108712000Y-69646800D01*
X109931200Y-79756000D02*
X109931200Y-75590400D01*
X110083600Y-79908400D02*
X109931200Y-79756000D01*
X109931200Y-75590400D02*
X110439200Y-75082400D01*
X117348000Y-81889600D02*
X117348000Y-80060800D01*
X117195600Y-79908400D02*
X110083600Y-79908400D01*
X110642400Y-70916800D02*
X111201200Y-70358000D01*
X110642400Y-73152000D02*
X110642400Y-70916800D01*
X111404400Y-73152000D02*
X111404400Y-71831200D01*
X111404400Y-71831200D02*
X111201200Y-71628000D01*
X112166400Y-74879200D02*
X112166400Y-73152000D01*
X115163600Y-74879200D02*
X114960400Y-75082400D01*
X112369600Y-75082400D02*
X112166400Y-74879200D01*
X115163600Y-73660000D02*
X115163600Y-74879200D01*
X114960400Y-75082400D02*
X112369600Y-75082400D01*
X114198400Y-73558400D02*
X114198400Y-67818000D01*
X113842800Y-73914000D02*
X114198400Y-73558400D01*
X114198400Y-67818000D02*
X113741200Y-67360800D01*
X115011200Y-67411600D02*
X115265200Y-67411600D01*
X114604800Y-67818000D02*
X115011200Y-67411600D01*
X114554000Y-74523600D02*
X114604800Y-74472800D01*
X114604800Y-74472800D02*
X114604800Y-67818000D01*
G04 #@! TA.AperFunction,Conductor*
G36*
X105615703Y-71296107D02*
G01*
X105653160Y-71353823D01*
X105704768Y-71523954D01*
X105802315Y-71706450D01*
X105828559Y-71738429D01*
X105933589Y-71866410D01*
X106018302Y-71935931D01*
X106093550Y-71997685D01*
X106276046Y-72095232D01*
X106474066Y-72155300D01*
X106474065Y-72155300D01*
X106492529Y-72157118D01*
X106680000Y-72175583D01*
X106885934Y-72155300D01*
X107083954Y-72095232D01*
X107266450Y-71997685D01*
X107426410Y-71866410D01*
X107557685Y-71706450D01*
X107655232Y-71523954D01*
X107660840Y-71505466D01*
X107699136Y-71447030D01*
X107762948Y-71418573D01*
X107832015Y-71429133D01*
X107884409Y-71475357D01*
X107903500Y-71541463D01*
X107903500Y-73135661D01*
X107902312Y-73152788D01*
X107901227Y-73160565D01*
X107903368Y-73206879D01*
X107903500Y-73212604D01*
X107903500Y-73236377D01*
X107901629Y-73236377D01*
X107889842Y-73296618D01*
X107886073Y-73300547D01*
X107935361Y-73342486D01*
X107945083Y-73360368D01*
X107951794Y-73375565D01*
X107951795Y-73375566D01*
X107951796Y-73375568D01*
X107956689Y-73380461D01*
X107974435Y-73402865D01*
X107978077Y-73408748D01*
X107978079Y-73408750D01*
X107978080Y-73408751D01*
X107978081Y-73408752D01*
X107999396Y-73424848D01*
X108012349Y-73436120D01*
X109316413Y-74740185D01*
X109349897Y-74801506D01*
X109344913Y-74871198D01*
X109320366Y-74911404D01*
X109309323Y-74923517D01*
X109305374Y-74927653D01*
X109292627Y-74940400D01*
X109289546Y-74944111D01*
X109282885Y-74952519D01*
X109264883Y-74972266D01*
X109264883Y-74972267D01*
X109262378Y-74978733D01*
X109249059Y-75004002D01*
X109245145Y-75009715D01*
X109245143Y-75009720D01*
X109239028Y-75035717D01*
X109233951Y-75052113D01*
X109224300Y-75077026D01*
X109224300Y-75083951D01*
X109221006Y-75112341D01*
X109219421Y-75119077D01*
X109219421Y-75119082D01*
X109223111Y-75145533D01*
X109224300Y-75162664D01*
X109224300Y-79885634D01*
X109204615Y-79952673D01*
X109151811Y-79998428D01*
X109082653Y-80008372D01*
X109019097Y-79979347D01*
X109014042Y-79974292D01*
X109010053Y-79970835D01*
X108975190Y-79948430D01*
X108901069Y-79900796D01*
X108901065Y-79900794D01*
X108901064Y-79900794D01*
X108776774Y-79864300D01*
X108776772Y-79864300D01*
X108647228Y-79864300D01*
X108647226Y-79864300D01*
X108522935Y-79900794D01*
X108522932Y-79900795D01*
X108522931Y-79900796D01*
X108473483Y-79932574D01*
X108413950Y-79970833D01*
X108329118Y-80068737D01*
X108329117Y-80068738D01*
X108275302Y-80186574D01*
X108256867Y-80314800D01*
X108275302Y-80443025D01*
X108329117Y-80560861D01*
X108329120Y-80560867D01*
X108375678Y-80614599D01*
X108404702Y-80678155D01*
X108394757Y-80747314D01*
X108375678Y-80777001D01*
X108329120Y-80830732D01*
X108329117Y-80830738D01*
X108275302Y-80948574D01*
X108256867Y-81076800D01*
X108275302Y-81205025D01*
X108329117Y-81322861D01*
X108329120Y-81322867D01*
X108375678Y-81376599D01*
X108404702Y-81440155D01*
X108394757Y-81509314D01*
X108375678Y-81539001D01*
X108329120Y-81592732D01*
X108329117Y-81592738D01*
X108275302Y-81710574D01*
X108256867Y-81838800D01*
X108275302Y-81967025D01*
X108325359Y-82076633D01*
X108329118Y-82084863D01*
X108413951Y-82182767D01*
X108522931Y-82252804D01*
X108522934Y-82252805D01*
X108523526Y-82253185D01*
X108569281Y-82305989D01*
X108579225Y-82375147D01*
X108550201Y-82438703D01*
X108548102Y-82441063D01*
X108547303Y-82441939D01*
X108543374Y-82446053D01*
X108530627Y-82458800D01*
X108527546Y-82462511D01*
X108520885Y-82470919D01*
X108502883Y-82490666D01*
X108502883Y-82490667D01*
X108500378Y-82497133D01*
X108487059Y-82522402D01*
X108483145Y-82528115D01*
X108483143Y-82528120D01*
X108477028Y-82554117D01*
X108471951Y-82570513D01*
X108462300Y-82595426D01*
X108462300Y-82602351D01*
X108459006Y-82630741D01*
X108457421Y-82637477D01*
X108457421Y-82637482D01*
X108461111Y-82663933D01*
X108462300Y-82681064D01*
X108462300Y-87816861D01*
X108461112Y-87833988D01*
X108460027Y-87841765D01*
X108462168Y-87888079D01*
X108462300Y-87893804D01*
X108462300Y-87911842D01*
X108462747Y-87916671D01*
X108463981Y-87927305D01*
X108465215Y-87953992D01*
X108465216Y-87953997D01*
X108468014Y-87960334D01*
X108476464Y-87987620D01*
X108477737Y-87994429D01*
X108477737Y-87994430D01*
X108477739Y-87994433D01*
X108491801Y-88017146D01*
X108499797Y-88032315D01*
X108510594Y-88056765D01*
X108510595Y-88056766D01*
X108510596Y-88056768D01*
X108515489Y-88061661D01*
X108533235Y-88084065D01*
X108536877Y-88089948D01*
X108536879Y-88089950D01*
X108536880Y-88089951D01*
X108536881Y-88089952D01*
X108558196Y-88106048D01*
X108571150Y-88117321D01*
X108655239Y-88201410D01*
X108666510Y-88214362D01*
X108671239Y-88220625D01*
X108705517Y-88251874D01*
X108709658Y-88255829D01*
X108722403Y-88268574D01*
X108726131Y-88271670D01*
X108734524Y-88278318D01*
X108739069Y-88282461D01*
X108754264Y-88296314D01*
X108754265Y-88296314D01*
X108754267Y-88296316D01*
X108760730Y-88298819D01*
X108786007Y-88312143D01*
X108791719Y-88316056D01*
X108817714Y-88322169D01*
X108834110Y-88327246D01*
X108859027Y-88336900D01*
X108865951Y-88336900D01*
X108894341Y-88340193D01*
X108901081Y-88341779D01*
X108923855Y-88338601D01*
X108927534Y-88338089D01*
X108944664Y-88336900D01*
X110269490Y-88336900D01*
X110336529Y-88356585D01*
X110382284Y-88409389D01*
X110392228Y-88478547D01*
X110363204Y-88542102D01*
X110310318Y-88603136D01*
X110310317Y-88603138D01*
X110256502Y-88720974D01*
X110238067Y-88849200D01*
X110256502Y-88977425D01*
X110310317Y-89095261D01*
X110310318Y-89095263D01*
X110395151Y-89193167D01*
X110504131Y-89263204D01*
X110628425Y-89299699D01*
X110628427Y-89299700D01*
X110628428Y-89299700D01*
X110757973Y-89299700D01*
X110757973Y-89299699D01*
X110882269Y-89263204D01*
X110991249Y-89193167D01*
X111076082Y-89095263D01*
X111129897Y-88977426D01*
X111148333Y-88849200D01*
X111141029Y-88798400D01*
X114759267Y-88798400D01*
X114777702Y-88926625D01*
X114800902Y-88977425D01*
X114831518Y-89044463D01*
X114916351Y-89142367D01*
X115025331Y-89212404D01*
X115149625Y-89248899D01*
X115149627Y-89248900D01*
X115149628Y-89248900D01*
X115279173Y-89248900D01*
X115279173Y-89248899D01*
X115403469Y-89212404D01*
X115512449Y-89142367D01*
X115597282Y-89044463D01*
X115651097Y-88926626D01*
X115669533Y-88798400D01*
X115651097Y-88670174D01*
X115597282Y-88552337D01*
X115512449Y-88454433D01*
X115403469Y-88384396D01*
X115403465Y-88384394D01*
X115403464Y-88384394D01*
X115279174Y-88347900D01*
X115279172Y-88347900D01*
X115149628Y-88347900D01*
X115149626Y-88347900D01*
X115025335Y-88384394D01*
X115025332Y-88384395D01*
X115025331Y-88384396D01*
X114986444Y-88409387D01*
X114916350Y-88454433D01*
X114831518Y-88552337D01*
X114831517Y-88552338D01*
X114777702Y-88670174D01*
X114759267Y-88798400D01*
X111141029Y-88798400D01*
X111129897Y-88720974D01*
X111076082Y-88603137D01*
X111023196Y-88542102D01*
X110994172Y-88478546D01*
X111004116Y-88409387D01*
X111049872Y-88356584D01*
X111116910Y-88336900D01*
X111977257Y-88336900D01*
X112044296Y-88356585D01*
X112070969Y-88379696D01*
X112071549Y-88380365D01*
X112071551Y-88380367D01*
X112180531Y-88450404D01*
X112276380Y-88478547D01*
X112304825Y-88486899D01*
X112304827Y-88486900D01*
X112304828Y-88486900D01*
X112434373Y-88486900D01*
X112434373Y-88486899D01*
X112558669Y-88450404D01*
X112667649Y-88380367D01*
X112752482Y-88282463D01*
X112806297Y-88164626D01*
X112824733Y-88036400D01*
X112817429Y-87985600D01*
X117096067Y-87985600D01*
X117114502Y-88113825D01*
X117137702Y-88164625D01*
X117168318Y-88231663D01*
X117238056Y-88312146D01*
X117251141Y-88327248D01*
X117253151Y-88329567D01*
X117362131Y-88399604D01*
X117486425Y-88436099D01*
X117486427Y-88436100D01*
X117486428Y-88436100D01*
X117615973Y-88436100D01*
X117615973Y-88436099D01*
X117740269Y-88399604D01*
X117849249Y-88329567D01*
X117934082Y-88231663D01*
X117987897Y-88113826D01*
X118006333Y-87985600D01*
X117987897Y-87857374D01*
X117934082Y-87739537D01*
X117849249Y-87641633D01*
X117740269Y-87571596D01*
X117740265Y-87571594D01*
X117740264Y-87571594D01*
X117615974Y-87535100D01*
X117615972Y-87535100D01*
X117486428Y-87535100D01*
X117486426Y-87535100D01*
X117362135Y-87571594D01*
X117362132Y-87571595D01*
X117362131Y-87571596D01*
X117310877Y-87604534D01*
X117253150Y-87641633D01*
X117168318Y-87739537D01*
X117168317Y-87739538D01*
X117114502Y-87857374D01*
X117096067Y-87985600D01*
X112817429Y-87985600D01*
X112806297Y-87908174D01*
X112752482Y-87790337D01*
X112667649Y-87692433D01*
X112558669Y-87622396D01*
X112558665Y-87622394D01*
X112558664Y-87622394D01*
X112434374Y-87585900D01*
X112434372Y-87585900D01*
X112304828Y-87585900D01*
X112304826Y-87585900D01*
X112180535Y-87622394D01*
X112180532Y-87622395D01*
X112180531Y-87622396D01*
X112150598Y-87641633D01*
X112071549Y-87692434D01*
X112070969Y-87693104D01*
X112070220Y-87693584D01*
X112064846Y-87698242D01*
X112064176Y-87697469D01*
X112012191Y-87730877D01*
X111977257Y-87735900D01*
X109187300Y-87735900D01*
X109120261Y-87716215D01*
X109074506Y-87663411D01*
X109063300Y-87611900D01*
X109063300Y-84161204D01*
X109082985Y-84094165D01*
X109135789Y-84048410D01*
X109204947Y-84038466D01*
X109222234Y-84042227D01*
X109307625Y-84067299D01*
X109307627Y-84067300D01*
X109307628Y-84067300D01*
X109437173Y-84067300D01*
X109437173Y-84067299D01*
X109561469Y-84030804D01*
X109670449Y-83960767D01*
X109750160Y-83868774D01*
X109778604Y-83844544D01*
X109781552Y-83842719D01*
X109797653Y-83821395D01*
X109808914Y-83808455D01*
X110527352Y-83090019D01*
X110588675Y-83056534D01*
X110615033Y-83053700D01*
X111585587Y-83053700D01*
X111652626Y-83073385D01*
X111698381Y-83126189D01*
X111708325Y-83195347D01*
X111679300Y-83258903D01*
X111666787Y-83271415D01*
X111665152Y-83272831D01*
X111580318Y-83370737D01*
X111580317Y-83370738D01*
X111526502Y-83488574D01*
X111508067Y-83616800D01*
X111526502Y-83745025D01*
X111579667Y-83861438D01*
X111580318Y-83862863D01*
X111665151Y-83960767D01*
X111774131Y-84030804D01*
X111880112Y-84061922D01*
X111898425Y-84067299D01*
X111898427Y-84067300D01*
X111898428Y-84067300D01*
X112027973Y-84067300D01*
X112027973Y-84067299D01*
X112152269Y-84030804D01*
X112261249Y-83960767D01*
X112346082Y-83862863D01*
X112399897Y-83745026D01*
X112418333Y-83616800D01*
X112399897Y-83488574D01*
X112346082Y-83370737D01*
X112261249Y-83272833D01*
X112261248Y-83272832D01*
X112261247Y-83272831D01*
X112259613Y-83271415D01*
X112258443Y-83269594D01*
X112255441Y-83266130D01*
X112255938Y-83265698D01*
X112221837Y-83212638D01*
X112221835Y-83142768D01*
X112259608Y-83083989D01*
X112323163Y-83054963D01*
X112340813Y-83053700D01*
X113261987Y-83053700D01*
X113329026Y-83073385D01*
X113374781Y-83126189D01*
X113384725Y-83195347D01*
X113355700Y-83258903D01*
X113343187Y-83271415D01*
X113341552Y-83272831D01*
X113256718Y-83370737D01*
X113256717Y-83370738D01*
X113202902Y-83488574D01*
X113184467Y-83616800D01*
X113202902Y-83745025D01*
X113256067Y-83861438D01*
X113256718Y-83862863D01*
X113341551Y-83960767D01*
X113450531Y-84030804D01*
X113556512Y-84061922D01*
X113574825Y-84067299D01*
X113574827Y-84067300D01*
X113574828Y-84067300D01*
X113704373Y-84067300D01*
X113704373Y-84067299D01*
X113828669Y-84030804D01*
X113937649Y-83960767D01*
X114022482Y-83862863D01*
X114076297Y-83745026D01*
X114094733Y-83616800D01*
X114076297Y-83488574D01*
X114022482Y-83370737D01*
X113937649Y-83272833D01*
X113937648Y-83272832D01*
X113937647Y-83272831D01*
X113936013Y-83271415D01*
X113934843Y-83269594D01*
X113931841Y-83266130D01*
X113932338Y-83265698D01*
X113898237Y-83212638D01*
X113898235Y-83142768D01*
X113936008Y-83083989D01*
X113999563Y-83054963D01*
X114017213Y-83053700D01*
X115749767Y-83053700D01*
X115816806Y-83073385D01*
X115837448Y-83090019D01*
X116732439Y-83985010D01*
X116743710Y-83997962D01*
X116748439Y-84004225D01*
X116782717Y-84035474D01*
X116786858Y-84039429D01*
X116799603Y-84052174D01*
X116803331Y-84055270D01*
X116811724Y-84061918D01*
X116817627Y-84067299D01*
X116831464Y-84079914D01*
X116831465Y-84079914D01*
X116831467Y-84079916D01*
X116837930Y-84082419D01*
X116863207Y-84095743D01*
X116868919Y-84099656D01*
X116894914Y-84105769D01*
X116911310Y-84110846D01*
X116936227Y-84120500D01*
X116943151Y-84120500D01*
X116971541Y-84123793D01*
X116978281Y-84125379D01*
X117001055Y-84122201D01*
X117004734Y-84121689D01*
X117021864Y-84120500D01*
X118281421Y-84120500D01*
X118348460Y-84140185D01*
X118394215Y-84192989D01*
X118400081Y-84208503D01*
X118404768Y-84223954D01*
X118502315Y-84406450D01*
X118502317Y-84406452D01*
X118633589Y-84566410D01*
X118730209Y-84645702D01*
X118793550Y-84697685D01*
X118976046Y-84795232D01*
X119174066Y-84855300D01*
X119174065Y-84855300D01*
X119192529Y-84857118D01*
X119380000Y-84875583D01*
X119585934Y-84855300D01*
X119783954Y-84795232D01*
X119966450Y-84697685D01*
X120126410Y-84566410D01*
X120257685Y-84406450D01*
X120355232Y-84223954D01*
X120406839Y-84053823D01*
X120445137Y-83995386D01*
X120508949Y-83966930D01*
X120578016Y-83977490D01*
X120630409Y-84023714D01*
X120649500Y-84089820D01*
X120649500Y-86090179D01*
X120629815Y-86157218D01*
X120577011Y-86202973D01*
X120507853Y-86212917D01*
X120444297Y-86183892D01*
X120406839Y-86126174D01*
X120386614Y-86059500D01*
X120355232Y-85956046D01*
X120257685Y-85773550D01*
X120205702Y-85710209D01*
X120126410Y-85613589D01*
X119966452Y-85482317D01*
X119966453Y-85482317D01*
X119966450Y-85482315D01*
X119783954Y-85384768D01*
X119585934Y-85324700D01*
X119585932Y-85324699D01*
X119585934Y-85324699D01*
X119380000Y-85304417D01*
X119174067Y-85324699D01*
X118976043Y-85384769D01*
X118865898Y-85443643D01*
X118793550Y-85482315D01*
X118793548Y-85482316D01*
X118793547Y-85482317D01*
X118633589Y-85613589D01*
X118502317Y-85773547D01*
X118404769Y-85956043D01*
X118404768Y-85956046D01*
X118400081Y-85971497D01*
X118361783Y-86029935D01*
X118297970Y-86058391D01*
X118281421Y-86059500D01*
X111168500Y-86059500D01*
X111101461Y-86039815D01*
X111055706Y-85987011D01*
X111044500Y-85935500D01*
X111044500Y-84258186D01*
X111064185Y-84191147D01*
X111074778Y-84176994D01*
X111126882Y-84116863D01*
X111180697Y-83999026D01*
X111199133Y-83870800D01*
X111180697Y-83742574D01*
X111126882Y-83624737D01*
X111042049Y-83526833D01*
X110933069Y-83456796D01*
X110933065Y-83456794D01*
X110933064Y-83456794D01*
X110808774Y-83420300D01*
X110808772Y-83420300D01*
X110679228Y-83420300D01*
X110679226Y-83420300D01*
X110554935Y-83456794D01*
X110554932Y-83456795D01*
X110554931Y-83456796D01*
X110505483Y-83488574D01*
X110445950Y-83526833D01*
X110361118Y-83624737D01*
X110361117Y-83624738D01*
X110307302Y-83742574D01*
X110288867Y-83870800D01*
X110307302Y-83999025D01*
X110358371Y-84110848D01*
X110361118Y-84116863D01*
X110413214Y-84176986D01*
X110442238Y-84240538D01*
X110443500Y-84258186D01*
X110443500Y-86140461D01*
X110442312Y-86157588D01*
X110441227Y-86165365D01*
X110443368Y-86211679D01*
X110443500Y-86217404D01*
X110443500Y-86235442D01*
X110443947Y-86240271D01*
X110445181Y-86250905D01*
X110446415Y-86277592D01*
X110446416Y-86277597D01*
X110449214Y-86283934D01*
X110457664Y-86311220D01*
X110458937Y-86318029D01*
X110458937Y-86318030D01*
X110458939Y-86318033D01*
X110473001Y-86340746D01*
X110480997Y-86355915D01*
X110491794Y-86380365D01*
X110491795Y-86380366D01*
X110491796Y-86380368D01*
X110496689Y-86385261D01*
X110514435Y-86407665D01*
X110518077Y-86413548D01*
X110518079Y-86413550D01*
X110518080Y-86413551D01*
X110518081Y-86413552D01*
X110539396Y-86429648D01*
X110552350Y-86440921D01*
X110636439Y-86525010D01*
X110647710Y-86537962D01*
X110652439Y-86544225D01*
X110686717Y-86575474D01*
X110690858Y-86579429D01*
X110703603Y-86592174D01*
X110707331Y-86595270D01*
X110715724Y-86601918D01*
X110724524Y-86609940D01*
X110735464Y-86619914D01*
X110735465Y-86619914D01*
X110735467Y-86619916D01*
X110741930Y-86622419D01*
X110767207Y-86635743D01*
X110772919Y-86639656D01*
X110798914Y-86645769D01*
X110815310Y-86650846D01*
X110840227Y-86660500D01*
X110847151Y-86660500D01*
X110875541Y-86663793D01*
X110882281Y-86665379D01*
X110905055Y-86662201D01*
X110908734Y-86661689D01*
X110925864Y-86660500D01*
X118281421Y-86660500D01*
X118348460Y-86680185D01*
X118394215Y-86732989D01*
X118400081Y-86748503D01*
X118404768Y-86763954D01*
X118502315Y-86946450D01*
X118502317Y-86946452D01*
X118633589Y-87106410D01*
X118730209Y-87185702D01*
X118793550Y-87237685D01*
X118976046Y-87335232D01*
X119174066Y-87395300D01*
X119174065Y-87395300D01*
X119192529Y-87397118D01*
X119380000Y-87415583D01*
X119585934Y-87395300D01*
X119783954Y-87335232D01*
X119966450Y-87237685D01*
X120126410Y-87106410D01*
X120257685Y-86946450D01*
X120355232Y-86763954D01*
X120406839Y-86593823D01*
X120445137Y-86535386D01*
X120508949Y-86506930D01*
X120578016Y-86517490D01*
X120630409Y-86563714D01*
X120649500Y-86629820D01*
X120649500Y-88630179D01*
X120629815Y-88697218D01*
X120577011Y-88742973D01*
X120507853Y-88752917D01*
X120444297Y-88723892D01*
X120406839Y-88666174D01*
X120395920Y-88630179D01*
X120355232Y-88496046D01*
X120257685Y-88313550D01*
X120205702Y-88250209D01*
X120126410Y-88153589D01*
X120008428Y-88056765D01*
X119966450Y-88022315D01*
X119783954Y-87924768D01*
X119585934Y-87864700D01*
X119585932Y-87864699D01*
X119585934Y-87864699D01*
X119380000Y-87844417D01*
X119174067Y-87864699D01*
X118976043Y-87924769D01*
X118909507Y-87960334D01*
X118793550Y-88022315D01*
X118793548Y-88022316D01*
X118793547Y-88022317D01*
X118633589Y-88153589D01*
X118510140Y-88304015D01*
X118502315Y-88313550D01*
X118479313Y-88356584D01*
X118404769Y-88496043D01*
X118344699Y-88694067D01*
X118324417Y-88900000D01*
X118344699Y-89105932D01*
X118374734Y-89204944D01*
X118404768Y-89303954D01*
X118502315Y-89486450D01*
X118502317Y-89486452D01*
X118633589Y-89646410D01*
X118730209Y-89725702D01*
X118793550Y-89777685D01*
X118976046Y-89875232D01*
X119174066Y-89935300D01*
X119174065Y-89935300D01*
X119192529Y-89937118D01*
X119380000Y-89955583D01*
X119585934Y-89935300D01*
X119783954Y-89875232D01*
X119966450Y-89777685D01*
X120126410Y-89646410D01*
X120257685Y-89486450D01*
X120355232Y-89303954D01*
X120406839Y-89133823D01*
X120445137Y-89075386D01*
X120508949Y-89046930D01*
X120578016Y-89057490D01*
X120630409Y-89103714D01*
X120649500Y-89169820D01*
X120649500Y-90995515D01*
X120629815Y-91062554D01*
X120577011Y-91108309D01*
X120507853Y-91118253D01*
X120444297Y-91089228D01*
X120413596Y-91045602D01*
X120412670Y-91046064D01*
X120319245Y-90858443D01*
X120196391Y-90695757D01*
X120045739Y-90558421D01*
X119872413Y-90451101D01*
X119682315Y-90377458D01*
X119682309Y-90377456D01*
X119630001Y-90367677D01*
X119630000Y-90367679D01*
X119630000Y-91004498D01*
X119522315Y-90955320D01*
X119415763Y-90940000D01*
X119344237Y-90940000D01*
X119237685Y-90955320D01*
X119130000Y-91004498D01*
X119130000Y-90367679D01*
X119129998Y-90367677D01*
X119077690Y-90377456D01*
X119077684Y-90377458D01*
X118887586Y-90451101D01*
X118714260Y-90558421D01*
X118563608Y-90695757D01*
X118440754Y-90858443D01*
X118349890Y-91040921D01*
X118349885Y-91040934D01*
X118307471Y-91189999D01*
X118307472Y-91190000D01*
X118946314Y-91190000D01*
X118920507Y-91230156D01*
X118880000Y-91368111D01*
X118880000Y-91511889D01*
X118920507Y-91649844D01*
X118946314Y-91690000D01*
X118307472Y-91690000D01*
X118349885Y-91839065D01*
X118349890Y-91839078D01*
X118440754Y-92021556D01*
X118563608Y-92184242D01*
X118714260Y-92321578D01*
X118887584Y-92428897D01*
X118993355Y-92469873D01*
X119048756Y-92512446D01*
X119072347Y-92578213D01*
X119056636Y-92646293D01*
X119006612Y-92695072D01*
X118948561Y-92709500D01*
X107111439Y-92709500D01*
X107044400Y-92689815D01*
X106998645Y-92637011D01*
X106988701Y-92567853D01*
X107017726Y-92504297D01*
X107066645Y-92469873D01*
X107172415Y-92428897D01*
X107345739Y-92321578D01*
X107496391Y-92184242D01*
X107619245Y-92021556D01*
X107710109Y-91839078D01*
X107710114Y-91839065D01*
X107752528Y-91690000D01*
X107113686Y-91690000D01*
X107139493Y-91649844D01*
X107180000Y-91511889D01*
X107180000Y-91368111D01*
X107139493Y-91230156D01*
X107113686Y-91190000D01*
X107752528Y-91190000D01*
X107752528Y-91189999D01*
X107710114Y-91040934D01*
X107710109Y-91040921D01*
X107619245Y-90858443D01*
X107496391Y-90695757D01*
X107345739Y-90558421D01*
X107172413Y-90451101D01*
X106982315Y-90377458D01*
X106982309Y-90377456D01*
X106930001Y-90367677D01*
X106930000Y-90367679D01*
X106930000Y-91004498D01*
X106822315Y-90955320D01*
X106715763Y-90940000D01*
X106644237Y-90940000D01*
X106537685Y-90955320D01*
X106430000Y-91004498D01*
X106430000Y-90367679D01*
X106429998Y-90367677D01*
X106377690Y-90377456D01*
X106377684Y-90377458D01*
X106187586Y-90451101D01*
X106014260Y-90558421D01*
X105863608Y-90695757D01*
X105740754Y-90858443D01*
X105647330Y-91046064D01*
X105646155Y-91045479D01*
X105607548Y-91095715D01*
X105541780Y-91119301D01*
X105473701Y-91103586D01*
X105424924Y-91053560D01*
X105410500Y-90995515D01*
X105410500Y-89169820D01*
X105430185Y-89102781D01*
X105482989Y-89057026D01*
X105552147Y-89047082D01*
X105615703Y-89076107D01*
X105653160Y-89133823D01*
X105704768Y-89303954D01*
X105802315Y-89486450D01*
X105802317Y-89486452D01*
X105933589Y-89646410D01*
X106030209Y-89725702D01*
X106093550Y-89777685D01*
X106276046Y-89875232D01*
X106474066Y-89935300D01*
X106474065Y-89935300D01*
X106492529Y-89937118D01*
X106680000Y-89955583D01*
X106885934Y-89935300D01*
X107083954Y-89875232D01*
X107266450Y-89777685D01*
X107426410Y-89646410D01*
X107557685Y-89486450D01*
X107655232Y-89303954D01*
X107715300Y-89105934D01*
X107735583Y-88900000D01*
X107715300Y-88694066D01*
X107655232Y-88496046D01*
X107557685Y-88313550D01*
X107505702Y-88250209D01*
X107426410Y-88153589D01*
X107308428Y-88056765D01*
X107266450Y-88022315D01*
X107083954Y-87924768D01*
X106885934Y-87864700D01*
X106885932Y-87864699D01*
X106885934Y-87864699D01*
X106680000Y-87844417D01*
X106474067Y-87864699D01*
X106276043Y-87924769D01*
X106209507Y-87960334D01*
X106093550Y-88022315D01*
X106093548Y-88022316D01*
X106093547Y-88022317D01*
X105933589Y-88153589D01*
X105810140Y-88304015D01*
X105802315Y-88313550D01*
X105779313Y-88356584D01*
X105704769Y-88496043D01*
X105704768Y-88496045D01*
X105704768Y-88496046D01*
X105672283Y-88603138D01*
X105653161Y-88666174D01*
X105614863Y-88724613D01*
X105551051Y-88753069D01*
X105481984Y-88742509D01*
X105429590Y-88696285D01*
X105410500Y-88630179D01*
X105410500Y-86629820D01*
X105430185Y-86562781D01*
X105482989Y-86517026D01*
X105552147Y-86507082D01*
X105615703Y-86536107D01*
X105653160Y-86593823D01*
X105704768Y-86763954D01*
X105802315Y-86946450D01*
X105802317Y-86946452D01*
X105933589Y-87106410D01*
X106030209Y-87185702D01*
X106093550Y-87237685D01*
X106276046Y-87335232D01*
X106474066Y-87395300D01*
X106474065Y-87395300D01*
X106492529Y-87397118D01*
X106680000Y-87415583D01*
X106885934Y-87395300D01*
X107083954Y-87335232D01*
X107266450Y-87237685D01*
X107426410Y-87106410D01*
X107557685Y-86946450D01*
X107655232Y-86763954D01*
X107715300Y-86565934D01*
X107735583Y-86360000D01*
X107715300Y-86154066D01*
X107655232Y-85956046D01*
X107557685Y-85773550D01*
X107505702Y-85710209D01*
X107426410Y-85613589D01*
X107266452Y-85482317D01*
X107266453Y-85482317D01*
X107266450Y-85482315D01*
X107083954Y-85384768D01*
X106885934Y-85324700D01*
X106885932Y-85324699D01*
X106885934Y-85324699D01*
X106680000Y-85304417D01*
X106474067Y-85324699D01*
X106276043Y-85384769D01*
X106165898Y-85443643D01*
X106093550Y-85482315D01*
X106093548Y-85482316D01*
X106093547Y-85482317D01*
X105933589Y-85613589D01*
X105802317Y-85773547D01*
X105704769Y-85956043D01*
X105653161Y-86126174D01*
X105614863Y-86184613D01*
X105551051Y-86213069D01*
X105481984Y-86202509D01*
X105429590Y-86156285D01*
X105410500Y-86090179D01*
X105410500Y-84089820D01*
X105430185Y-84022781D01*
X105482989Y-83977026D01*
X105552147Y-83967082D01*
X105615703Y-83996107D01*
X105653160Y-84053823D01*
X105704768Y-84223954D01*
X105802315Y-84406450D01*
X105802317Y-84406452D01*
X105933589Y-84566410D01*
X106030209Y-84645702D01*
X106093550Y-84697685D01*
X106276046Y-84795232D01*
X106474066Y-84855300D01*
X106474065Y-84855300D01*
X106492529Y-84857118D01*
X106680000Y-84875583D01*
X106885934Y-84855300D01*
X107083954Y-84795232D01*
X107266450Y-84697685D01*
X107426410Y-84566410D01*
X107557685Y-84406450D01*
X107655232Y-84223954D01*
X107715300Y-84025934D01*
X107735583Y-83820000D01*
X107715300Y-83614066D01*
X107655232Y-83416046D01*
X107557685Y-83233550D01*
X107469577Y-83126189D01*
X107426410Y-83073589D01*
X107288799Y-82960656D01*
X107266450Y-82942315D01*
X107083954Y-82844768D01*
X106885934Y-82784700D01*
X106885932Y-82784699D01*
X106885934Y-82784699D01*
X106680000Y-82764417D01*
X106474067Y-82784699D01*
X106276043Y-82844769D01*
X106165898Y-82903643D01*
X106093550Y-82942315D01*
X106093548Y-82942316D01*
X106093547Y-82942317D01*
X105933589Y-83073589D01*
X105802317Y-83233547D01*
X105802315Y-83233550D01*
X105783049Y-83269594D01*
X105704769Y-83416043D01*
X105704768Y-83416045D01*
X105704768Y-83416046D01*
X105676348Y-83509737D01*
X105653161Y-83586174D01*
X105614863Y-83644613D01*
X105551051Y-83673069D01*
X105481984Y-83662509D01*
X105429590Y-83616285D01*
X105410500Y-83550179D01*
X105410500Y-81549820D01*
X105430185Y-81482781D01*
X105482989Y-81437026D01*
X105552147Y-81427082D01*
X105615703Y-81456107D01*
X105653160Y-81513823D01*
X105704768Y-81683954D01*
X105802315Y-81866450D01*
X105815814Y-81882899D01*
X105933589Y-82026410D01*
X106007278Y-82086884D01*
X106093550Y-82157685D01*
X106276046Y-82255232D01*
X106474066Y-82315300D01*
X106474065Y-82315300D01*
X106492529Y-82317118D01*
X106680000Y-82335583D01*
X106885934Y-82315300D01*
X107083954Y-82255232D01*
X107266450Y-82157685D01*
X107426410Y-82026410D01*
X107557685Y-81866450D01*
X107655232Y-81683954D01*
X107715300Y-81485934D01*
X107735583Y-81280000D01*
X107715300Y-81074066D01*
X107655232Y-80876046D01*
X107557685Y-80693550D01*
X107477157Y-80595426D01*
X107426410Y-80533589D01*
X107308677Y-80436969D01*
X107266450Y-80402315D01*
X107096554Y-80311502D01*
X107083956Y-80304769D01*
X107083955Y-80304768D01*
X107083954Y-80304768D01*
X106885934Y-80244700D01*
X106885932Y-80244699D01*
X106885934Y-80244699D01*
X106680000Y-80224417D01*
X106474067Y-80244699D01*
X106276043Y-80304769D01*
X106190400Y-80350547D01*
X106093550Y-80402315D01*
X106093548Y-80402316D01*
X106093547Y-80402317D01*
X105933589Y-80533589D01*
X105802317Y-80693547D01*
X105802315Y-80693550D01*
X105791779Y-80713261D01*
X105704769Y-80876043D01*
X105704768Y-80876045D01*
X105704768Y-80876046D01*
X105666187Y-81003234D01*
X105653161Y-81046174D01*
X105614863Y-81104613D01*
X105551051Y-81133069D01*
X105481984Y-81122509D01*
X105429590Y-81076285D01*
X105410500Y-81010179D01*
X105410500Y-79009820D01*
X105430185Y-78942781D01*
X105482989Y-78897026D01*
X105552147Y-78887082D01*
X105615703Y-78916107D01*
X105653160Y-78973823D01*
X105704768Y-79143954D01*
X105802315Y-79326450D01*
X105802317Y-79326452D01*
X105933589Y-79486410D01*
X105993298Y-79535411D01*
X106093550Y-79617685D01*
X106276046Y-79715232D01*
X106474066Y-79775300D01*
X106474065Y-79775300D01*
X106492529Y-79777118D01*
X106680000Y-79795583D01*
X106885934Y-79775300D01*
X107083954Y-79715232D01*
X107266450Y-79617685D01*
X107426410Y-79486410D01*
X107557685Y-79326450D01*
X107655232Y-79143954D01*
X107715300Y-78945934D01*
X107735583Y-78740000D01*
X107715300Y-78534066D01*
X107655232Y-78336046D01*
X107557685Y-78153550D01*
X107464186Y-78039620D01*
X107426410Y-77993589D01*
X107292878Y-77884004D01*
X107266450Y-77862315D01*
X107083954Y-77764768D01*
X106885934Y-77704700D01*
X106885932Y-77704699D01*
X106885934Y-77704699D01*
X106680000Y-77684417D01*
X106474067Y-77704699D01*
X106276043Y-77764769D01*
X106188937Y-77811329D01*
X106093550Y-77862315D01*
X106093548Y-77862316D01*
X106093547Y-77862317D01*
X105933589Y-77993589D01*
X105802317Y-78153547D01*
X105704769Y-78336043D01*
X105653161Y-78506174D01*
X105614863Y-78564613D01*
X105551051Y-78593069D01*
X105481984Y-78582509D01*
X105429590Y-78536285D01*
X105410500Y-78470179D01*
X105410500Y-76469820D01*
X105430185Y-76402781D01*
X105482989Y-76357026D01*
X105552147Y-76347082D01*
X105615703Y-76376107D01*
X105653160Y-76433823D01*
X105704768Y-76603954D01*
X105802315Y-76786450D01*
X105802317Y-76786452D01*
X105933589Y-76946410D01*
X106005821Y-77005688D01*
X106093550Y-77077685D01*
X106276046Y-77175232D01*
X106474066Y-77235300D01*
X106474065Y-77235300D01*
X106492529Y-77237118D01*
X106680000Y-77255583D01*
X106885934Y-77235300D01*
X107083954Y-77175232D01*
X107266450Y-77077685D01*
X107426410Y-76946410D01*
X107557685Y-76786450D01*
X107655232Y-76603954D01*
X107715300Y-76405934D01*
X107735583Y-76200000D01*
X107715300Y-75994066D01*
X107655232Y-75796046D01*
X107557685Y-75613550D01*
X107503510Y-75547537D01*
X107426410Y-75453589D01*
X107290819Y-75342314D01*
X107266450Y-75322315D01*
X107096554Y-75231502D01*
X107083956Y-75224769D01*
X107083955Y-75224768D01*
X107083954Y-75224768D01*
X106885934Y-75164700D01*
X106885932Y-75164699D01*
X106885934Y-75164699D01*
X106680000Y-75144417D01*
X106474067Y-75164699D01*
X106276043Y-75224769D01*
X106197732Y-75266628D01*
X106093550Y-75322315D01*
X106093548Y-75322316D01*
X106093547Y-75322317D01*
X105933589Y-75453589D01*
X105802317Y-75613547D01*
X105704769Y-75796043D01*
X105704768Y-75796045D01*
X105704768Y-75796046D01*
X105672802Y-75901427D01*
X105653161Y-75966174D01*
X105614863Y-76024613D01*
X105551051Y-76053069D01*
X105481984Y-76042509D01*
X105429590Y-75996285D01*
X105410500Y-75930179D01*
X105410500Y-73929820D01*
X105430185Y-73862781D01*
X105482989Y-73817026D01*
X105552147Y-73807082D01*
X105615703Y-73836107D01*
X105653160Y-73893823D01*
X105704768Y-74063954D01*
X105802315Y-74246450D01*
X105802317Y-74246452D01*
X105933589Y-74406410D01*
X106003724Y-74463967D01*
X106093550Y-74537685D01*
X106276046Y-74635232D01*
X106474066Y-74695300D01*
X106474065Y-74695300D01*
X106492529Y-74697118D01*
X106680000Y-74715583D01*
X106885934Y-74695300D01*
X107083954Y-74635232D01*
X107266450Y-74537685D01*
X107426410Y-74406410D01*
X107557685Y-74246450D01*
X107655232Y-74063954D01*
X107715300Y-73865934D01*
X107735583Y-73660000D01*
X107715300Y-73454066D01*
X107712991Y-73446457D01*
X107712365Y-73376593D01*
X107730248Y-73348209D01*
X107707575Y-73340290D01*
X107664540Y-73285246D01*
X107661127Y-73275481D01*
X107655232Y-73256046D01*
X107557685Y-73073550D01*
X107477157Y-72975426D01*
X107426410Y-72913589D01*
X107301234Y-72810861D01*
X107266450Y-72782315D01*
X107083954Y-72684768D01*
X106885934Y-72624700D01*
X106885932Y-72624699D01*
X106885934Y-72624699D01*
X106680000Y-72604417D01*
X106474067Y-72624699D01*
X106276043Y-72684769D01*
X106171791Y-72740494D01*
X106093550Y-72782315D01*
X106093548Y-72782316D01*
X106093547Y-72782317D01*
X105933589Y-72913589D01*
X105802317Y-73073547D01*
X105704769Y-73256043D01*
X105704768Y-73256045D01*
X105704768Y-73256046D01*
X105660232Y-73402865D01*
X105653161Y-73426174D01*
X105614863Y-73484613D01*
X105551051Y-73513069D01*
X105481984Y-73502509D01*
X105429590Y-73456285D01*
X105410500Y-73390179D01*
X105410500Y-71389820D01*
X105430185Y-71322781D01*
X105482989Y-71277026D01*
X105552147Y-71267082D01*
X105615703Y-71296107D01*
G37*
G04 #@! TD.AperFunction*
G04 #@! TA.AperFunction,Conductor*
G36*
X115011597Y-80228585D02*
G01*
X115057352Y-80281389D01*
X115067296Y-80350547D01*
X115057352Y-80384412D01*
X115031702Y-80440574D01*
X115013267Y-80568800D01*
X115031702Y-80697025D01*
X115054669Y-80747314D01*
X115085518Y-80814863D01*
X115170351Y-80912767D01*
X115279331Y-80982804D01*
X115403625Y-81019299D01*
X115403627Y-81019300D01*
X115403628Y-81019300D01*
X115533173Y-81019300D01*
X115533173Y-81019299D01*
X115657469Y-80982804D01*
X115766449Y-80912767D01*
X115851282Y-80814863D01*
X115905097Y-80697026D01*
X115923533Y-80568800D01*
X115905097Y-80440574D01*
X115879447Y-80384410D01*
X115869504Y-80315254D01*
X115898528Y-80251698D01*
X115957306Y-80213923D01*
X115992242Y-80208900D01*
X116923500Y-80208900D01*
X116990539Y-80228585D01*
X117036294Y-80281389D01*
X117047500Y-80332900D01*
X117047500Y-81502211D01*
X117027815Y-81569250D01*
X117017214Y-81583412D01*
X116965120Y-81643532D01*
X116965117Y-81643538D01*
X116911302Y-81761374D01*
X116892867Y-81889600D01*
X116911302Y-82017825D01*
X116961330Y-82127368D01*
X116965118Y-82135663D01*
X117049951Y-82233567D01*
X117057627Y-82238500D01*
X117059963Y-82240001D01*
X117105718Y-82292805D01*
X117115662Y-82361963D01*
X117086638Y-82425518D01*
X117015920Y-82507132D01*
X117015917Y-82507138D01*
X116979561Y-82586746D01*
X116933806Y-82639550D01*
X116866766Y-82659234D01*
X116799727Y-82639549D01*
X116779086Y-82622915D01*
X116337962Y-82181791D01*
X116326687Y-82168835D01*
X116321955Y-82162568D01*
X116287683Y-82131325D01*
X116283560Y-82127389D01*
X116270797Y-82114626D01*
X116270796Y-82114625D01*
X116270794Y-82114623D01*
X116267077Y-82111537D01*
X116258679Y-82104884D01*
X116238933Y-82086884D01*
X116232470Y-82084380D01*
X116207192Y-82071056D01*
X116201481Y-82067144D01*
X116201478Y-82067143D01*
X116201479Y-82067143D01*
X116175483Y-82061028D01*
X116159089Y-82055951D01*
X116134174Y-82046300D01*
X116134173Y-82046300D01*
X116127249Y-82046300D01*
X116098858Y-82043006D01*
X116092119Y-82041421D01*
X116065666Y-82045111D01*
X116048536Y-82046300D01*
X114402519Y-82046300D01*
X114335480Y-82026615D01*
X114289725Y-81973811D01*
X114279781Y-81904653D01*
X114288155Y-81846405D01*
X114297933Y-81778400D01*
X114279497Y-81650174D01*
X114225682Y-81532337D01*
X114140849Y-81434433D01*
X114031869Y-81364396D01*
X114031865Y-81364394D01*
X114031864Y-81364394D01*
X113907574Y-81327900D01*
X113907572Y-81327900D01*
X113778028Y-81327900D01*
X113778026Y-81327900D01*
X113653735Y-81364394D01*
X113653732Y-81364395D01*
X113653731Y-81364396D01*
X113544751Y-81434433D01*
X113544748Y-81434435D01*
X113530113Y-81451325D01*
X113471335Y-81489100D01*
X113401466Y-81489100D01*
X113342687Y-81451326D01*
X113342687Y-81451325D01*
X113328051Y-81434435D01*
X113328050Y-81434434D01*
X113328049Y-81434433D01*
X113219069Y-81364396D01*
X113219065Y-81364394D01*
X113219064Y-81364394D01*
X113094774Y-81327900D01*
X113094772Y-81327900D01*
X112965228Y-81327900D01*
X112965226Y-81327900D01*
X112840935Y-81364394D01*
X112840932Y-81364395D01*
X112840931Y-81364396D01*
X112821943Y-81376599D01*
X112731950Y-81434433D01*
X112647118Y-81532337D01*
X112647117Y-81532338D01*
X112593302Y-81650174D01*
X112574867Y-81778400D01*
X112593019Y-81904653D01*
X112583075Y-81973812D01*
X112537320Y-82026616D01*
X112470281Y-82046300D01*
X111906916Y-82046300D01*
X111839877Y-82026615D01*
X111794122Y-81973811D01*
X111784178Y-81904653D01*
X111813203Y-81841097D01*
X111871981Y-81803323D01*
X111871982Y-81803323D01*
X111887050Y-81798897D01*
X111898269Y-81795604D01*
X112007249Y-81725567D01*
X112092082Y-81627663D01*
X112145897Y-81509826D01*
X112164333Y-81381600D01*
X112145897Y-81253374D01*
X112092082Y-81135537D01*
X112007249Y-81037633D01*
X111898269Y-80967596D01*
X111898265Y-80967594D01*
X111898264Y-80967594D01*
X111773974Y-80931100D01*
X111773972Y-80931100D01*
X111644428Y-80931100D01*
X111644426Y-80931100D01*
X111520135Y-80967594D01*
X111520132Y-80967595D01*
X111520131Y-80967596D01*
X111472269Y-80998355D01*
X111411150Y-81037633D01*
X111326318Y-81135537D01*
X111326317Y-81135538D01*
X111272502Y-81253375D01*
X111270003Y-81261887D01*
X111268272Y-81261378D01*
X111243733Y-81315098D01*
X111184951Y-81352866D01*
X111115096Y-81352863D01*
X111062772Y-81337500D01*
X110933228Y-81337500D01*
X110933226Y-81337500D01*
X110909598Y-81344437D01*
X110839729Y-81344435D01*
X110780952Y-81306659D01*
X110761873Y-81276970D01*
X110720484Y-81186340D01*
X110720482Y-81186338D01*
X110720482Y-81186337D01*
X110635649Y-81088433D01*
X110633046Y-81086760D01*
X110631019Y-81084420D01*
X110628948Y-81082626D01*
X110629206Y-81082328D01*
X110587293Y-81033956D01*
X110577350Y-80964797D01*
X110606376Y-80901242D01*
X110633043Y-80878135D01*
X110737249Y-80811167D01*
X110822082Y-80713263D01*
X110875897Y-80595426D01*
X110894333Y-80467200D01*
X110877561Y-80350547D01*
X110887505Y-80281388D01*
X110933260Y-80228584D01*
X111000299Y-80208900D01*
X114944558Y-80208900D01*
X115011597Y-80228585D01*
G37*
G04 #@! TD.AperFunction*
G04 #@! TA.AperFunction,Conductor*
G36*
X110150546Y-73197325D02*
G01*
X110196300Y-73250129D01*
X110202683Y-73271865D01*
X110203203Y-73271713D01*
X110205702Y-73280224D01*
X110242304Y-73360369D01*
X110259518Y-73398063D01*
X110313876Y-73460796D01*
X110343750Y-73495274D01*
X110344351Y-73495967D01*
X110453331Y-73566004D01*
X110453338Y-73566006D01*
X110577625Y-73602499D01*
X110577627Y-73602500D01*
X110577628Y-73602500D01*
X110707173Y-73602500D01*
X110707173Y-73602499D01*
X110831469Y-73566004D01*
X110940449Y-73495967D01*
X110940457Y-73495957D01*
X110942190Y-73494457D01*
X110944293Y-73493496D01*
X110947910Y-73491172D01*
X110948244Y-73491691D01*
X111005743Y-73465428D01*
X111074903Y-73475366D01*
X111104610Y-73494457D01*
X111106345Y-73495961D01*
X111106351Y-73495967D01*
X111215331Y-73566004D01*
X111215338Y-73566006D01*
X111339625Y-73602499D01*
X111339627Y-73602500D01*
X111339628Y-73602500D01*
X111469173Y-73602500D01*
X111469173Y-73602499D01*
X111523481Y-73586553D01*
X111593464Y-73566006D01*
X111593465Y-73566005D01*
X111593469Y-73566004D01*
X111674862Y-73513695D01*
X111741900Y-73494012D01*
X111808940Y-73513697D01*
X111854695Y-73566501D01*
X111865900Y-73618012D01*
X111865900Y-74812061D01*
X111864712Y-74829188D01*
X111863627Y-74836965D01*
X111865768Y-74883279D01*
X111865900Y-74889004D01*
X111865900Y-74907042D01*
X111866347Y-74911871D01*
X111867581Y-74922505D01*
X111868815Y-74949192D01*
X111868816Y-74949197D01*
X111871614Y-74955534D01*
X111880064Y-74982820D01*
X111881337Y-74989629D01*
X111881337Y-74989630D01*
X111881339Y-74989633D01*
X111895401Y-75012346D01*
X111903397Y-75027515D01*
X111914194Y-75051965D01*
X111914195Y-75051966D01*
X111914196Y-75051968D01*
X111919089Y-75056861D01*
X111936835Y-75079265D01*
X111940477Y-75085148D01*
X111940479Y-75085150D01*
X111940480Y-75085151D01*
X111940481Y-75085152D01*
X111955534Y-75096519D01*
X111961796Y-75101248D01*
X111974750Y-75112521D01*
X112109639Y-75247410D01*
X112120910Y-75260362D01*
X112125639Y-75266625D01*
X112125641Y-75266627D01*
X112125642Y-75266628D01*
X112153578Y-75292095D01*
X112159917Y-75297874D01*
X112164058Y-75301829D01*
X112176803Y-75314574D01*
X112180531Y-75317670D01*
X112188924Y-75324318D01*
X112196350Y-75331088D01*
X112208664Y-75342314D01*
X112208665Y-75342314D01*
X112208667Y-75342316D01*
X112215130Y-75344819D01*
X112240407Y-75358143D01*
X112246119Y-75362056D01*
X112272114Y-75368169D01*
X112288510Y-75373246D01*
X112313427Y-75382900D01*
X112320351Y-75382900D01*
X112348741Y-75386193D01*
X112355481Y-75387779D01*
X112378255Y-75384601D01*
X112381934Y-75384089D01*
X112399064Y-75382900D01*
X114893262Y-75382900D01*
X114910390Y-75384089D01*
X114918161Y-75385172D01*
X114918161Y-75385171D01*
X114918165Y-75385173D01*
X114964480Y-75383032D01*
X114970205Y-75382900D01*
X114988243Y-75382900D01*
X114988244Y-75382900D01*
X114988244Y-75382899D01*
X114993131Y-75382446D01*
X115003718Y-75381217D01*
X115030392Y-75379985D01*
X115036722Y-75377189D01*
X115064029Y-75368732D01*
X115070833Y-75367461D01*
X115070835Y-75367459D01*
X115070837Y-75367459D01*
X115093538Y-75353403D01*
X115108725Y-75345396D01*
X115133165Y-75334606D01*
X115138061Y-75329709D01*
X115160469Y-75311961D01*
X115166352Y-75308319D01*
X115182450Y-75287000D01*
X115193715Y-75274054D01*
X115328618Y-75139151D01*
X115341563Y-75127888D01*
X115347823Y-75123160D01*
X115347828Y-75123158D01*
X115379088Y-75088866D01*
X115383002Y-75084767D01*
X115395774Y-75071997D01*
X115395775Y-75071996D01*
X115398882Y-75068254D01*
X115405516Y-75059876D01*
X115423516Y-75040133D01*
X115426016Y-75033678D01*
X115439349Y-75008382D01*
X115443256Y-75002681D01*
X115449370Y-74976681D01*
X115454446Y-74960289D01*
X115464100Y-74935373D01*
X115464100Y-74928448D01*
X115467395Y-74900055D01*
X115468978Y-74893323D01*
X115468979Y-74893319D01*
X115465289Y-74866865D01*
X115464100Y-74849735D01*
X115464100Y-74751418D01*
X115483785Y-74684379D01*
X115536589Y-74638624D01*
X115605747Y-74628680D01*
X115616524Y-74631025D01*
X115619827Y-74631500D01*
X115701717Y-74631500D01*
X115768756Y-74651185D01*
X115814511Y-74703989D01*
X115824455Y-74773147D01*
X115814511Y-74807012D01*
X115793702Y-74852574D01*
X115775267Y-74980800D01*
X115793702Y-75109025D01*
X115837935Y-75205880D01*
X115847518Y-75226863D01*
X115918098Y-75308318D01*
X115926201Y-75317670D01*
X115932351Y-75324767D01*
X116041331Y-75394804D01*
X116165625Y-75431299D01*
X116165627Y-75431300D01*
X116165628Y-75431300D01*
X116295168Y-75431300D01*
X116295172Y-75431300D01*
X116295175Y-75431298D01*
X116300529Y-75430529D01*
X116369688Y-75440469D01*
X116422494Y-75486222D01*
X116442182Y-75553260D01*
X116430977Y-75604777D01*
X116403302Y-75665376D01*
X116384867Y-75793600D01*
X116403302Y-75921825D01*
X116450245Y-76024613D01*
X116457118Y-76039663D01*
X116541951Y-76137567D01*
X116650931Y-76207604D01*
X116677032Y-76215267D01*
X116735809Y-76253041D01*
X116764835Y-76316597D01*
X116761074Y-76369181D01*
X116758902Y-76376575D01*
X116740467Y-76504800D01*
X116758902Y-76633025D01*
X116806038Y-76736237D01*
X116812718Y-76750863D01*
X116897551Y-76848767D01*
X117001750Y-76915731D01*
X117047505Y-76968533D01*
X117057449Y-77037692D01*
X117028425Y-77101248D01*
X117001757Y-77124358D01*
X116999150Y-77126033D01*
X116914318Y-77223937D01*
X116914317Y-77223938D01*
X116860502Y-77341774D01*
X116842067Y-77470000D01*
X116860502Y-77598225D01*
X116914317Y-77716061D01*
X116914318Y-77716063D01*
X116999151Y-77813967D01*
X117012392Y-77822477D01*
X117058148Y-77875279D01*
X117068093Y-77944437D01*
X117039070Y-78007994D01*
X117012396Y-78031108D01*
X116999150Y-78039620D01*
X116914318Y-78137524D01*
X116914317Y-78137525D01*
X116860502Y-78255361D01*
X116842067Y-78383587D01*
X116860502Y-78511812D01*
X116870666Y-78534067D01*
X116914318Y-78629650D01*
X116999151Y-78727554D01*
X117108131Y-78797591D01*
X117197836Y-78823930D01*
X117232425Y-78834086D01*
X117232427Y-78834087D01*
X117232428Y-78834087D01*
X117361973Y-78834087D01*
X117361973Y-78834086D01*
X117378211Y-78829318D01*
X117396566Y-78823930D01*
X117466435Y-78823930D01*
X117525213Y-78861705D01*
X117554238Y-78925260D01*
X117555500Y-78942907D01*
X117555500Y-79549056D01*
X117535815Y-79616095D01*
X117483011Y-79661850D01*
X117413853Y-79671794D01*
X117366223Y-79654484D01*
X117356535Y-79648486D01*
X117356533Y-79648484D01*
X117350070Y-79645980D01*
X117324792Y-79632656D01*
X117319081Y-79628744D01*
X117319078Y-79628743D01*
X117319079Y-79628743D01*
X117293083Y-79622628D01*
X117276689Y-79617551D01*
X117251774Y-79607900D01*
X117251773Y-79607900D01*
X117244849Y-79607900D01*
X117216458Y-79604606D01*
X117209719Y-79603021D01*
X117183266Y-79606711D01*
X117166136Y-79607900D01*
X110355700Y-79607900D01*
X110288661Y-79588215D01*
X110242906Y-79535411D01*
X110231700Y-79483900D01*
X110231700Y-76911200D01*
X111660467Y-76911200D01*
X111678902Y-77039425D01*
X111724183Y-77138574D01*
X111732718Y-77157263D01*
X111817551Y-77255167D01*
X111926531Y-77325204D01*
X112050825Y-77361699D01*
X112050827Y-77361700D01*
X112050828Y-77361700D01*
X112180373Y-77361700D01*
X112180373Y-77361699D01*
X112304669Y-77325204D01*
X112413649Y-77255167D01*
X112498482Y-77157263D01*
X112552297Y-77039426D01*
X112570733Y-76911200D01*
X112981267Y-76911200D01*
X112999702Y-77039425D01*
X113044983Y-77138574D01*
X113053518Y-77157263D01*
X113138351Y-77255167D01*
X113247331Y-77325204D01*
X113371625Y-77361699D01*
X113371627Y-77361700D01*
X113371628Y-77361700D01*
X113501173Y-77361700D01*
X113501173Y-77361699D01*
X113625469Y-77325204D01*
X113734449Y-77255167D01*
X113819282Y-77157263D01*
X113873097Y-77039426D01*
X113891533Y-76911200D01*
X113884229Y-76860400D01*
X114505267Y-76860400D01*
X114523702Y-76988625D01*
X114564374Y-77077682D01*
X114577518Y-77106463D01*
X114662351Y-77204367D01*
X114771331Y-77274404D01*
X114891027Y-77309549D01*
X114895625Y-77310899D01*
X114895627Y-77310900D01*
X114895628Y-77310900D01*
X115025172Y-77310900D01*
X115029766Y-77309550D01*
X115099635Y-77309549D01*
X115158414Y-77347321D01*
X115180132Y-77387089D01*
X115180419Y-77386959D01*
X115182243Y-77390954D01*
X115183677Y-77393579D01*
X115184100Y-77395019D01*
X115184102Y-77395025D01*
X115184103Y-77395026D01*
X115237918Y-77512863D01*
X115322751Y-77610767D01*
X115431731Y-77680804D01*
X115551812Y-77716062D01*
X115556025Y-77717299D01*
X115556027Y-77717300D01*
X115556028Y-77717300D01*
X115685573Y-77717300D01*
X115685573Y-77717299D01*
X115809869Y-77680804D01*
X115918849Y-77610767D01*
X116003682Y-77512863D01*
X116057497Y-77395026D01*
X116075933Y-77266800D01*
X116057497Y-77138574D01*
X116003682Y-77020737D01*
X115918849Y-76922833D01*
X115809869Y-76852796D01*
X115809865Y-76852794D01*
X115809864Y-76852794D01*
X115685574Y-76816300D01*
X115685572Y-76816300D01*
X115556028Y-76816300D01*
X115556023Y-76816300D01*
X115551423Y-76817651D01*
X115481553Y-76817647D01*
X115422777Y-76779869D01*
X115401067Y-76740110D01*
X115400781Y-76740241D01*
X115398952Y-76736237D01*
X115397519Y-76733612D01*
X115397096Y-76732172D01*
X115351817Y-76633026D01*
X115343282Y-76614337D01*
X115258449Y-76516433D01*
X115149469Y-76446396D01*
X115149465Y-76446394D01*
X115149464Y-76446394D01*
X115025174Y-76409900D01*
X115025172Y-76409900D01*
X114895628Y-76409900D01*
X114895626Y-76409900D01*
X114771335Y-76446394D01*
X114771332Y-76446395D01*
X114771331Y-76446396D01*
X114720077Y-76479334D01*
X114662350Y-76516433D01*
X114577518Y-76614337D01*
X114577517Y-76614338D01*
X114523702Y-76732174D01*
X114505267Y-76860400D01*
X113884229Y-76860400D01*
X113873097Y-76782974D01*
X113819282Y-76665137D01*
X113734449Y-76567233D01*
X113625469Y-76497196D01*
X113625465Y-76497194D01*
X113625464Y-76497194D01*
X113501174Y-76460700D01*
X113501172Y-76460700D01*
X113371628Y-76460700D01*
X113371626Y-76460700D01*
X113247335Y-76497194D01*
X113247332Y-76497195D01*
X113247331Y-76497196D01*
X113229479Y-76508669D01*
X113138350Y-76567233D01*
X113053518Y-76665137D01*
X113053517Y-76665138D01*
X112999702Y-76782974D01*
X112981267Y-76911200D01*
X112570733Y-76911200D01*
X112552297Y-76782974D01*
X112498482Y-76665137D01*
X112413649Y-76567233D01*
X112304669Y-76497196D01*
X112304665Y-76497194D01*
X112304664Y-76497194D01*
X112180374Y-76460700D01*
X112180372Y-76460700D01*
X112050828Y-76460700D01*
X112050826Y-76460700D01*
X111926535Y-76497194D01*
X111926532Y-76497195D01*
X111926531Y-76497196D01*
X111908679Y-76508669D01*
X111817550Y-76567233D01*
X111732718Y-76665137D01*
X111732717Y-76665138D01*
X111678902Y-76782974D01*
X111660467Y-76911200D01*
X110231700Y-76911200D01*
X110231700Y-75766232D01*
X110251385Y-75699193D01*
X110268015Y-75678555D01*
X110604211Y-75342358D01*
X110617163Y-75331088D01*
X110623423Y-75326360D01*
X110623428Y-75326358D01*
X110654688Y-75292066D01*
X110658602Y-75287967D01*
X110671374Y-75275197D01*
X110671375Y-75275196D01*
X110674482Y-75271454D01*
X110681116Y-75263076D01*
X110699116Y-75243333D01*
X110701616Y-75236878D01*
X110714949Y-75211582D01*
X110718856Y-75205881D01*
X110724970Y-75179881D01*
X110730046Y-75163489D01*
X110739700Y-75138573D01*
X110739700Y-75131648D01*
X110742995Y-75103255D01*
X110744578Y-75096523D01*
X110744579Y-75096519D01*
X110740889Y-75070066D01*
X110739700Y-75052936D01*
X110739700Y-74641537D01*
X110740889Y-74624406D01*
X110741971Y-74616640D01*
X110741973Y-74616636D01*
X110739832Y-74570321D01*
X110739700Y-74564596D01*
X110739700Y-74546559D01*
X110739246Y-74541666D01*
X110738017Y-74531080D01*
X110737981Y-74530300D01*
X110736785Y-74504409D01*
X110733988Y-74498076D01*
X110725532Y-74470770D01*
X110724261Y-74463967D01*
X110719574Y-74456397D01*
X110710203Y-74441262D01*
X110702195Y-74426070D01*
X110691407Y-74401637D01*
X110691406Y-74401636D01*
X110691406Y-74401635D01*
X110686509Y-74396738D01*
X110668763Y-74374334D01*
X110665118Y-74368447D01*
X110665117Y-74368446D01*
X110643802Y-74352350D01*
X110630848Y-74341077D01*
X109781849Y-73492078D01*
X109748364Y-73430755D01*
X109753348Y-73361063D01*
X109795220Y-73305130D01*
X109834596Y-73285420D01*
X109917066Y-73261205D01*
X109917066Y-73261204D01*
X109917069Y-73261204D01*
X110016467Y-73197325D01*
X110083506Y-73177640D01*
X110150546Y-73197325D01*
G37*
G04 #@! TD.AperFunction*
G04 #@! TA.AperFunction,Conductor*
G36*
X118455201Y-62250185D02*
G01*
X118500956Y-62302989D01*
X118510900Y-62372147D01*
X118481875Y-62435703D01*
X118457053Y-62457602D01*
X118385447Y-62505447D01*
X118341132Y-62571769D01*
X118341131Y-62571770D01*
X118329500Y-62630247D01*
X118329500Y-63075500D01*
X118309815Y-63142539D01*
X118257011Y-63188294D01*
X118205500Y-63199500D01*
X117262738Y-63199500D01*
X117245610Y-63198311D01*
X117237838Y-63197227D01*
X117237835Y-63197227D01*
X117197572Y-63199088D01*
X117191520Y-63199368D01*
X117185795Y-63199500D01*
X117167756Y-63199500D01*
X117167751Y-63199500D01*
X117162926Y-63199948D01*
X117152297Y-63201181D01*
X117125608Y-63202415D01*
X117119263Y-63205215D01*
X117091980Y-63213665D01*
X117085168Y-63214938D01*
X117085167Y-63214939D01*
X117062457Y-63228999D01*
X117047278Y-63237000D01*
X117022835Y-63247793D01*
X117017936Y-63252693D01*
X116995542Y-63270431D01*
X116989648Y-63274080D01*
X116973549Y-63295398D01*
X116962279Y-63308348D01*
X116878186Y-63392441D01*
X116865235Y-63403712D01*
X116858967Y-63408444D01*
X116827722Y-63442718D01*
X116823774Y-63446853D01*
X116811027Y-63459600D01*
X116807946Y-63463311D01*
X116801285Y-63471719D01*
X116783283Y-63491466D01*
X116783283Y-63491467D01*
X116780778Y-63497933D01*
X116767459Y-63523202D01*
X116763545Y-63528915D01*
X116763543Y-63528920D01*
X116757428Y-63554917D01*
X116752351Y-63571313D01*
X116742700Y-63596226D01*
X116742700Y-63603151D01*
X116739406Y-63631541D01*
X116737821Y-63638277D01*
X116737821Y-63638282D01*
X116741511Y-63664733D01*
X116742700Y-63681864D01*
X116742700Y-66684061D01*
X116741512Y-66701188D01*
X116740427Y-66708965D01*
X116742568Y-66755279D01*
X116742700Y-66761004D01*
X116742700Y-66779042D01*
X116743147Y-66783871D01*
X116744381Y-66794505D01*
X116745615Y-66821192D01*
X116745616Y-66821197D01*
X116748414Y-66827534D01*
X116756864Y-66854820D01*
X116758137Y-66861629D01*
X116758137Y-66861630D01*
X116758139Y-66861633D01*
X116772201Y-66884346D01*
X116780197Y-66899515D01*
X116788220Y-66917682D01*
X116790996Y-66923969D01*
X116791402Y-66924561D01*
X116791807Y-66925805D01*
X116795636Y-66934476D01*
X116794758Y-66934863D01*
X116813048Y-66990993D01*
X116795342Y-67058582D01*
X116743906Y-67105869D01*
X116724036Y-67113614D01*
X116600135Y-67149993D01*
X116491150Y-67220033D01*
X116406318Y-67317937D01*
X116406317Y-67317938D01*
X116352502Y-67435774D01*
X116334067Y-67564000D01*
X116352502Y-67692225D01*
X116390216Y-67774805D01*
X116406318Y-67810063D01*
X116454249Y-67865379D01*
X116490569Y-67907296D01*
X116491151Y-67907967D01*
X116600131Y-67978004D01*
X116654041Y-67993833D01*
X116724425Y-68014499D01*
X116724427Y-68014500D01*
X116724428Y-68014500D01*
X116853973Y-68014500D01*
X116853973Y-68014499D01*
X116870211Y-68009731D01*
X116888566Y-68004343D01*
X116958435Y-68004343D01*
X117017213Y-68042118D01*
X117046238Y-68105673D01*
X117047500Y-68123320D01*
X117047500Y-71560861D01*
X117046312Y-71577988D01*
X117045227Y-71585765D01*
X117047368Y-71632079D01*
X117047500Y-71637804D01*
X117047500Y-71655842D01*
X117047947Y-71660671D01*
X117049181Y-71671305D01*
X117050415Y-71697992D01*
X117050416Y-71697997D01*
X117053214Y-71704334D01*
X117061664Y-71731620D01*
X117062937Y-71738429D01*
X117062937Y-71738430D01*
X117062939Y-71738433D01*
X117077001Y-71761146D01*
X117084997Y-71776315D01*
X117095794Y-71800765D01*
X117095795Y-71800766D01*
X117095796Y-71800768D01*
X117100689Y-71805661D01*
X117118435Y-71828065D01*
X117122077Y-71833948D01*
X117122079Y-71833950D01*
X117122080Y-71833951D01*
X117122081Y-71833952D01*
X117143396Y-71850048D01*
X117156350Y-71861321D01*
X117519181Y-72224152D01*
X117552666Y-72285475D01*
X117555500Y-72311833D01*
X117555500Y-75975863D01*
X117535815Y-76042902D01*
X117483011Y-76088657D01*
X117413853Y-76098601D01*
X117393383Y-76092592D01*
X117393177Y-76093294D01*
X117358566Y-76083131D01*
X117299788Y-76045356D01*
X117270764Y-75981800D01*
X117274528Y-75929209D01*
X117276693Y-75921833D01*
X117276697Y-75921826D01*
X117295133Y-75793600D01*
X117276697Y-75665374D01*
X117222882Y-75547537D01*
X117138049Y-75449633D01*
X117029069Y-75379596D01*
X117029065Y-75379594D01*
X117029064Y-75379594D01*
X116904774Y-75343100D01*
X116904772Y-75343100D01*
X116775228Y-75343100D01*
X116775224Y-75343100D01*
X116769860Y-75343871D01*
X116700702Y-75333926D01*
X116647899Y-75288169D01*
X116628217Y-75221129D01*
X116639421Y-75169625D01*
X116667097Y-75109026D01*
X116685533Y-74980800D01*
X116667097Y-74852574D01*
X116613282Y-74734737D01*
X116528449Y-74636833D01*
X116419469Y-74566796D01*
X116419465Y-74566794D01*
X116419464Y-74566794D01*
X116295174Y-74530300D01*
X116295172Y-74530300D01*
X116213283Y-74530300D01*
X116146244Y-74510615D01*
X116100489Y-74457811D01*
X116090545Y-74388653D01*
X116100489Y-74354788D01*
X116121297Y-74309226D01*
X116139733Y-74181000D01*
X116121297Y-74052774D01*
X116067482Y-73934937D01*
X115982649Y-73837033D01*
X115873669Y-73766996D01*
X115873665Y-73766994D01*
X115873664Y-73766994D01*
X115749374Y-73730500D01*
X115749372Y-73730500D01*
X115736316Y-73730500D01*
X115669277Y-73710815D01*
X115623522Y-73658011D01*
X115613578Y-73624147D01*
X115605218Y-73566004D01*
X115600297Y-73531774D01*
X115546482Y-73413937D01*
X115461649Y-73316033D01*
X115455841Y-73309330D01*
X115457631Y-73307778D01*
X115426777Y-73259774D01*
X115426773Y-73189904D01*
X115452039Y-73143631D01*
X115495679Y-73093267D01*
X115495679Y-73093265D01*
X115495682Y-73093263D01*
X115549497Y-72975426D01*
X115567933Y-72847200D01*
X115549497Y-72718974D01*
X115495682Y-72601137D01*
X115410849Y-72503233D01*
X115301869Y-72433196D01*
X115301865Y-72433194D01*
X115301864Y-72433194D01*
X115177574Y-72396700D01*
X115177572Y-72396700D01*
X115048028Y-72396700D01*
X115048025Y-72396700D01*
X115046939Y-72396856D01*
X115045854Y-72396700D01*
X115039160Y-72396700D01*
X115039160Y-72395737D01*
X114977781Y-72386908D01*
X114924980Y-72341150D01*
X114905300Y-72274117D01*
X114905300Y-69189600D01*
X115216467Y-69189600D01*
X115234902Y-69317825D01*
X115272768Y-69400738D01*
X115288718Y-69435663D01*
X115373551Y-69533567D01*
X115482531Y-69603604D01*
X115606825Y-69640099D01*
X115606827Y-69640100D01*
X115606828Y-69640100D01*
X115736373Y-69640100D01*
X115736373Y-69640099D01*
X115860669Y-69603604D01*
X115969649Y-69533567D01*
X116054482Y-69435663D01*
X116108297Y-69317826D01*
X116126733Y-69189600D01*
X116108297Y-69061374D01*
X116054482Y-68943537D01*
X115969649Y-68845633D01*
X115860669Y-68775596D01*
X115860665Y-68775594D01*
X115860664Y-68775594D01*
X115736374Y-68739100D01*
X115736372Y-68739100D01*
X115606828Y-68739100D01*
X115606826Y-68739100D01*
X115482535Y-68775594D01*
X115482532Y-68775595D01*
X115482531Y-68775596D01*
X115466448Y-68785932D01*
X115373550Y-68845633D01*
X115288718Y-68943537D01*
X115288717Y-68943538D01*
X115234902Y-69061374D01*
X115216467Y-69189600D01*
X114905300Y-69189600D01*
X114905300Y-67993833D01*
X114924985Y-67926794D01*
X114941619Y-67906152D01*
X114982392Y-67865379D01*
X115043715Y-67831894D01*
X115105007Y-67834083D01*
X115200425Y-67862099D01*
X115200427Y-67862100D01*
X115200428Y-67862100D01*
X115329973Y-67862100D01*
X115329973Y-67862099D01*
X115454269Y-67825604D01*
X115563249Y-67755567D01*
X115648082Y-67657663D01*
X115701897Y-67539826D01*
X115720333Y-67411600D01*
X115701897Y-67283374D01*
X115648082Y-67165537D01*
X115563249Y-67067633D01*
X115454269Y-66997596D01*
X115454265Y-66997594D01*
X115454264Y-66997594D01*
X115329974Y-66961100D01*
X115329972Y-66961100D01*
X115200428Y-66961100D01*
X115200426Y-66961100D01*
X115076135Y-66997594D01*
X115076132Y-66997595D01*
X115076131Y-66997596D01*
X114981235Y-67058582D01*
X114967151Y-67067633D01*
X114967149Y-67067634D01*
X114944042Y-67094302D01*
X114909406Y-67118675D01*
X114910532Y-67120493D01*
X114878056Y-67140599D01*
X114862873Y-67148602D01*
X114838434Y-67159393D01*
X114833529Y-67164298D01*
X114811139Y-67182033D01*
X114805249Y-67185680D01*
X114805244Y-67185684D01*
X114789148Y-67206998D01*
X114777878Y-67219948D01*
X114489280Y-67508547D01*
X114427957Y-67542032D01*
X114358266Y-67537048D01*
X114313919Y-67508548D01*
X114230580Y-67425209D01*
X114197096Y-67363887D01*
X114195524Y-67355175D01*
X114193066Y-67338081D01*
X114177897Y-67232574D01*
X114124082Y-67114737D01*
X114039249Y-67016833D01*
X113930269Y-66946796D01*
X113930265Y-66946794D01*
X113930264Y-66946794D01*
X113805974Y-66910300D01*
X113805972Y-66910300D01*
X113676428Y-66910300D01*
X113676426Y-66910300D01*
X113552135Y-66946794D01*
X113552132Y-66946795D01*
X113552131Y-66946796D01*
X113528467Y-66962004D01*
X113443150Y-67016833D01*
X113358318Y-67114737D01*
X113358317Y-67114738D01*
X113304502Y-67232574D01*
X113286067Y-67360800D01*
X113304502Y-67489025D01*
X113352843Y-67594875D01*
X113358318Y-67606863D01*
X113443151Y-67704767D01*
X113552131Y-67774804D01*
X113676425Y-67811299D01*
X113676427Y-67811300D01*
X113676428Y-67811300D01*
X113715367Y-67811300D01*
X113782406Y-67830985D01*
X113803048Y-67847619D01*
X113861581Y-67906152D01*
X113895066Y-67967475D01*
X113897900Y-67993833D01*
X113897900Y-72274117D01*
X113878215Y-72341156D01*
X113825411Y-72386911D01*
X113764040Y-72395737D01*
X113764040Y-72396700D01*
X113757346Y-72396700D01*
X113756261Y-72396856D01*
X113755175Y-72396700D01*
X113755172Y-72396700D01*
X113625628Y-72396700D01*
X113625626Y-72396700D01*
X113501335Y-72433194D01*
X113501332Y-72433195D01*
X113501331Y-72433196D01*
X113450077Y-72466134D01*
X113392350Y-72503233D01*
X113307518Y-72601136D01*
X113274516Y-72673399D01*
X113228760Y-72726202D01*
X113161720Y-72745886D01*
X113126634Y-72738261D01*
X113125979Y-72740494D01*
X112993174Y-72701500D01*
X112993172Y-72701500D01*
X112863628Y-72701500D01*
X112863626Y-72701500D01*
X112739335Y-72737994D01*
X112739332Y-72737995D01*
X112739331Y-72737996D01*
X112684841Y-72773014D01*
X112630347Y-72808035D01*
X112628597Y-72809552D01*
X112626491Y-72810513D01*
X112622890Y-72812828D01*
X112622557Y-72812309D01*
X112565040Y-72838573D01*
X112495882Y-72828625D01*
X112466203Y-72809552D01*
X112464452Y-72808035D01*
X112464449Y-72808033D01*
X112355469Y-72737996D01*
X112355465Y-72737994D01*
X112355464Y-72737994D01*
X112231174Y-72701500D01*
X112231172Y-72701500D01*
X112101628Y-72701500D01*
X112101626Y-72701500D01*
X111977333Y-72737994D01*
X111977332Y-72737994D01*
X111895938Y-72790303D01*
X111828899Y-72809987D01*
X111761859Y-72790302D01*
X111716105Y-72737497D01*
X111704900Y-72685987D01*
X111704900Y-71898336D01*
X111706089Y-71881205D01*
X111707171Y-71873439D01*
X111707173Y-71873435D01*
X111705032Y-71827120D01*
X111704900Y-71821395D01*
X111704900Y-71803359D01*
X111704446Y-71798466D01*
X111703217Y-71787880D01*
X111701985Y-71761208D01*
X111699188Y-71754875D01*
X111690732Y-71727568D01*
X111689461Y-71720767D01*
X111675399Y-71698056D01*
X111667372Y-71682818D01*
X111666870Y-71681682D01*
X111656333Y-71631659D01*
X111656333Y-71628001D01*
X111650260Y-71585765D01*
X111637897Y-71499774D01*
X111584082Y-71381937D01*
X111499249Y-71284033D01*
X111390269Y-71213996D01*
X111390265Y-71213994D01*
X111390264Y-71213994D01*
X111265974Y-71177500D01*
X111265972Y-71177500D01*
X111136428Y-71177500D01*
X111136426Y-71177500D01*
X111135741Y-71177701D01*
X111135028Y-71177700D01*
X111127648Y-71178762D01*
X111127495Y-71177700D01*
X111065871Y-71177699D01*
X111007095Y-71139923D01*
X110978072Y-71076366D01*
X110988017Y-71007208D01*
X111013126Y-70971045D01*
X111139354Y-70844816D01*
X111200676Y-70811334D01*
X111227034Y-70808500D01*
X111265973Y-70808500D01*
X111265973Y-70808499D01*
X111390269Y-70772004D01*
X111499249Y-70701967D01*
X111584082Y-70604063D01*
X111637897Y-70486226D01*
X111656333Y-70358000D01*
X111637897Y-70229774D01*
X111584082Y-70111937D01*
X111499249Y-70014033D01*
X111390269Y-69943996D01*
X111390265Y-69943994D01*
X111390264Y-69943994D01*
X111265974Y-69907500D01*
X111265972Y-69907500D01*
X111136428Y-69907500D01*
X111136426Y-69907500D01*
X111012135Y-69943994D01*
X111012132Y-69943995D01*
X111012131Y-69943996D01*
X110960877Y-69976934D01*
X110903150Y-70014033D01*
X110818318Y-70111937D01*
X110818317Y-70111938D01*
X110764502Y-70229774D01*
X110746875Y-70352376D01*
X110717850Y-70415931D01*
X110711818Y-70422409D01*
X110477386Y-70656841D01*
X110464435Y-70668112D01*
X110458167Y-70672844D01*
X110426922Y-70707118D01*
X110422974Y-70711253D01*
X110410227Y-70724000D01*
X110407146Y-70727711D01*
X110400485Y-70736119D01*
X110382483Y-70755866D01*
X110382483Y-70755867D01*
X110379978Y-70762333D01*
X110366659Y-70787602D01*
X110362745Y-70793315D01*
X110362743Y-70793320D01*
X110356628Y-70819317D01*
X110351551Y-70835713D01*
X110341900Y-70860626D01*
X110341900Y-70867551D01*
X110338606Y-70895941D01*
X110337021Y-70902677D01*
X110337021Y-70902682D01*
X110340711Y-70929133D01*
X110341900Y-70946264D01*
X110341900Y-72538302D01*
X110322215Y-72605341D01*
X110269411Y-72651096D01*
X110200253Y-72661040D01*
X110136697Y-72632015D01*
X110113586Y-72605344D01*
X110110883Y-72601138D01*
X110026049Y-72503233D01*
X109917069Y-72433196D01*
X109917065Y-72433194D01*
X109917064Y-72433194D01*
X109792774Y-72396700D01*
X109792772Y-72396700D01*
X109663228Y-72396700D01*
X109663226Y-72396700D01*
X109538935Y-72433194D01*
X109538932Y-72433195D01*
X109538931Y-72433196D01*
X109487677Y-72466134D01*
X109429950Y-72503233D01*
X109345118Y-72601137D01*
X109345117Y-72601138D01*
X109291302Y-72718975D01*
X109291301Y-72718978D01*
X109291037Y-72720818D01*
X109290265Y-72722508D01*
X109288803Y-72727487D01*
X109288087Y-72727276D01*
X109262010Y-72784373D01*
X109203231Y-72822145D01*
X109133361Y-72822143D01*
X109080619Y-72790848D01*
X109048819Y-72759048D01*
X109015334Y-72697725D01*
X109012500Y-72671367D01*
X109012500Y-70034186D01*
X109032185Y-69967147D01*
X109042778Y-69952994D01*
X109094882Y-69892863D01*
X109148697Y-69775026D01*
X109167133Y-69646800D01*
X109148697Y-69518574D01*
X109094882Y-69400737D01*
X109010049Y-69302833D01*
X108901069Y-69232796D01*
X108901065Y-69232794D01*
X108901064Y-69232794D01*
X108776774Y-69196300D01*
X108776772Y-69196300D01*
X108647228Y-69196300D01*
X108647225Y-69196300D01*
X108646139Y-69196456D01*
X108645054Y-69196300D01*
X108638360Y-69196300D01*
X108638360Y-69195337D01*
X108576981Y-69186508D01*
X108524180Y-69140750D01*
X108523608Y-69138800D01*
X110644467Y-69138800D01*
X110662902Y-69267025D01*
X110686102Y-69317825D01*
X110716718Y-69384863D01*
X110801551Y-69482767D01*
X110910531Y-69552804D01*
X111034825Y-69589299D01*
X111034827Y-69589300D01*
X111034828Y-69589300D01*
X111164373Y-69589300D01*
X111164373Y-69589299D01*
X111288669Y-69552804D01*
X111397649Y-69482767D01*
X111482482Y-69384863D01*
X111536297Y-69267026D01*
X111554733Y-69138800D01*
X111536297Y-69010574D01*
X111482482Y-68892737D01*
X111397649Y-68794833D01*
X111288669Y-68724796D01*
X111288665Y-68724794D01*
X111288664Y-68724794D01*
X111164374Y-68688300D01*
X111164372Y-68688300D01*
X111034828Y-68688300D01*
X111034826Y-68688300D01*
X110910535Y-68724794D01*
X110910532Y-68724795D01*
X110910531Y-68724796D01*
X110862932Y-68755386D01*
X110801550Y-68794833D01*
X110716718Y-68892737D01*
X110716717Y-68892738D01*
X110662902Y-69010574D01*
X110644467Y-69138800D01*
X108523608Y-69138800D01*
X108504500Y-69073717D01*
X108504500Y-68044633D01*
X108524185Y-67977594D01*
X108540819Y-67956952D01*
X108596952Y-67900819D01*
X108658275Y-67867334D01*
X108684633Y-67864500D01*
X110453257Y-67864500D01*
X110520296Y-67884185D01*
X110546969Y-67907296D01*
X110547549Y-67907965D01*
X110547551Y-67907967D01*
X110656531Y-67978004D01*
X110710441Y-67993833D01*
X110780825Y-68014499D01*
X110780827Y-68014500D01*
X110780828Y-68014500D01*
X110910373Y-68014500D01*
X110910373Y-68014499D01*
X111034669Y-67978004D01*
X111143649Y-67907967D01*
X111227705Y-67810959D01*
X111286481Y-67773186D01*
X111356350Y-67773185D01*
X111402480Y-67802826D01*
X111404446Y-67800558D01*
X111411146Y-67806364D01*
X111416902Y-67810063D01*
X111520131Y-67876404D01*
X111644425Y-67912899D01*
X111644427Y-67912900D01*
X111644428Y-67912900D01*
X111773973Y-67912900D01*
X111773973Y-67912899D01*
X111898269Y-67876404D01*
X112007249Y-67806367D01*
X112092082Y-67708463D01*
X112145897Y-67590626D01*
X112164333Y-67462400D01*
X112145897Y-67334174D01*
X112092082Y-67216337D01*
X112092080Y-67216335D01*
X112092079Y-67216332D01*
X112039986Y-67156212D01*
X112010962Y-67092656D01*
X112009700Y-67075011D01*
X112009700Y-64455859D01*
X112029385Y-64388820D01*
X112082189Y-64343065D01*
X112151347Y-64333121D01*
X112200736Y-64351541D01*
X112231331Y-64371204D01*
X112355625Y-64407699D01*
X112355627Y-64407700D01*
X112355628Y-64407700D01*
X112485173Y-64407700D01*
X112485173Y-64407699D01*
X112609469Y-64371204D01*
X112718449Y-64301167D01*
X112803282Y-64203263D01*
X112857097Y-64085426D01*
X112875533Y-63957200D01*
X112862517Y-63866672D01*
X112872461Y-63797516D01*
X112918215Y-63744712D01*
X112950316Y-63730051D01*
X113015869Y-63710804D01*
X113124849Y-63640767D01*
X113209682Y-63542863D01*
X113263497Y-63425026D01*
X113281933Y-63296800D01*
X113263497Y-63168574D01*
X113209682Y-63050737D01*
X113124849Y-62952833D01*
X113015869Y-62882796D01*
X113015865Y-62882794D01*
X113015864Y-62882794D01*
X112891574Y-62846300D01*
X112891572Y-62846300D01*
X112762028Y-62846300D01*
X112762026Y-62846300D01*
X112637735Y-62882794D01*
X112637732Y-62882795D01*
X112637731Y-62882796D01*
X112586477Y-62915734D01*
X112528750Y-62952833D01*
X112443918Y-63050737D01*
X112443917Y-63050738D01*
X112390102Y-63168574D01*
X112371667Y-63296800D01*
X112384682Y-63387326D01*
X112374738Y-63456484D01*
X112328983Y-63509288D01*
X112296879Y-63523949D01*
X112231332Y-63543195D01*
X112147387Y-63597142D01*
X112080347Y-63616826D01*
X112013308Y-63597141D01*
X111967554Y-63544336D01*
X111966987Y-63543075D01*
X111961406Y-63530435D01*
X111956509Y-63525538D01*
X111938763Y-63503134D01*
X111935118Y-63497247D01*
X111935117Y-63497246D01*
X111913802Y-63481150D01*
X111900848Y-63469877D01*
X111765962Y-63334991D01*
X111754687Y-63322035D01*
X111749955Y-63315768D01*
X111715683Y-63284525D01*
X111711560Y-63280589D01*
X111698797Y-63267826D01*
X111698796Y-63267825D01*
X111698794Y-63267823D01*
X111695077Y-63264737D01*
X111686679Y-63258084D01*
X111666933Y-63240084D01*
X111660470Y-63237580D01*
X111635192Y-63224256D01*
X111629481Y-63220344D01*
X111629478Y-63220343D01*
X111629479Y-63220343D01*
X111603483Y-63214228D01*
X111587089Y-63209151D01*
X111562174Y-63199500D01*
X111562173Y-63199500D01*
X111555249Y-63199500D01*
X111526858Y-63196206D01*
X111520119Y-63194621D01*
X111493666Y-63198311D01*
X111476536Y-63199500D01*
X107854500Y-63199500D01*
X107787461Y-63179815D01*
X107741706Y-63127011D01*
X107730500Y-63075500D01*
X107730500Y-62630249D01*
X107730499Y-62630247D01*
X107718868Y-62571770D01*
X107718867Y-62571769D01*
X107674552Y-62505447D01*
X107602947Y-62457602D01*
X107558142Y-62403989D01*
X107549435Y-62334664D01*
X107579590Y-62271637D01*
X107639033Y-62234918D01*
X107671838Y-62230500D01*
X118388162Y-62230500D01*
X118455201Y-62250185D01*
G37*
G04 #@! TD.AperFunction*
G04 #@! TA.AperFunction,Conductor*
G36*
X118272539Y-63820185D02*
G01*
X118318294Y-63872989D01*
X118329500Y-63924500D01*
X118329500Y-64369752D01*
X118341131Y-64428229D01*
X118341132Y-64428230D01*
X118385447Y-64494552D01*
X118451769Y-64538867D01*
X118451770Y-64538868D01*
X118510247Y-64550499D01*
X118510250Y-64550500D01*
X118510252Y-64550500D01*
X120249750Y-64550500D01*
X120249751Y-64550499D01*
X120264568Y-64547552D01*
X120308229Y-64538868D01*
X120308229Y-64538867D01*
X120308231Y-64538867D01*
X120374552Y-64494552D01*
X120418867Y-64428231D01*
X120418867Y-64428230D01*
X120422398Y-64422946D01*
X120476010Y-64378141D01*
X120545335Y-64369434D01*
X120608363Y-64399588D01*
X120645082Y-64459031D01*
X120649500Y-64491837D01*
X120649500Y-65595515D01*
X120629815Y-65662554D01*
X120577011Y-65708309D01*
X120507853Y-65718253D01*
X120444297Y-65689228D01*
X120413596Y-65645602D01*
X120412670Y-65646064D01*
X120319245Y-65458443D01*
X120196391Y-65295757D01*
X120045739Y-65158421D01*
X119872413Y-65051101D01*
X119682315Y-64977458D01*
X119682309Y-64977456D01*
X119630001Y-64967677D01*
X119630000Y-64967679D01*
X119630000Y-65604498D01*
X119522315Y-65555320D01*
X119415763Y-65540000D01*
X119344237Y-65540000D01*
X119237685Y-65555320D01*
X119130000Y-65604498D01*
X119130000Y-64967679D01*
X119129998Y-64967677D01*
X119077690Y-64977456D01*
X119077684Y-64977458D01*
X118887586Y-65051101D01*
X118714260Y-65158421D01*
X118563608Y-65295757D01*
X118440754Y-65458443D01*
X118349890Y-65640921D01*
X118349885Y-65640934D01*
X118307471Y-65789999D01*
X118307472Y-65790000D01*
X118946314Y-65790000D01*
X118920507Y-65830156D01*
X118880000Y-65968111D01*
X118880000Y-66111889D01*
X118920507Y-66249844D01*
X118946314Y-66290000D01*
X118307472Y-66290000D01*
X118317650Y-66325772D01*
X118317426Y-66352396D01*
X118326848Y-66363269D01*
X118333320Y-66380845D01*
X118349886Y-66439068D01*
X118349890Y-66439078D01*
X118440754Y-66621556D01*
X118563608Y-66784242D01*
X118714260Y-66921578D01*
X118887584Y-67028897D01*
X119077678Y-67102539D01*
X119130000Y-67112320D01*
X119130000Y-66475501D01*
X119237685Y-66524680D01*
X119344237Y-66540000D01*
X119415763Y-66540000D01*
X119522315Y-66524680D01*
X119630000Y-66475501D01*
X119630000Y-67112320D01*
X119682321Y-67102539D01*
X119872415Y-67028897D01*
X120045739Y-66921578D01*
X120196391Y-66784242D01*
X120319245Y-66621556D01*
X120412670Y-66433936D01*
X120413846Y-66434521D01*
X120452445Y-66384290D01*
X120518211Y-66360698D01*
X120586292Y-66376408D01*
X120635071Y-66426431D01*
X120649500Y-66484484D01*
X120649500Y-68310179D01*
X120629815Y-68377218D01*
X120577011Y-68422973D01*
X120507853Y-68432917D01*
X120444297Y-68403892D01*
X120406839Y-68346174D01*
X120387152Y-68281274D01*
X120355232Y-68176046D01*
X120257685Y-67993550D01*
X120187449Y-67907967D01*
X120126410Y-67833589D01*
X119973214Y-67707866D01*
X119966450Y-67702315D01*
X119791574Y-67608841D01*
X119783956Y-67604769D01*
X119783955Y-67604768D01*
X119783954Y-67604768D01*
X119585934Y-67544700D01*
X119585932Y-67544699D01*
X119585934Y-67544699D01*
X119380000Y-67524417D01*
X119174067Y-67544699D01*
X118976043Y-67604769D01*
X118877091Y-67657661D01*
X118793550Y-67702315D01*
X118793548Y-67702316D01*
X118793547Y-67702317D01*
X118633589Y-67833589D01*
X118515073Y-67978004D01*
X118502315Y-67993550D01*
X118491117Y-68014500D01*
X118404769Y-68176043D01*
X118344699Y-68374067D01*
X118324417Y-68580000D01*
X118344699Y-68785932D01*
X118362809Y-68845633D01*
X118404768Y-68983954D01*
X118502315Y-69166450D01*
X118502317Y-69166452D01*
X118633589Y-69326410D01*
X118724158Y-69400737D01*
X118793550Y-69457685D01*
X118976046Y-69555232D01*
X119174066Y-69615300D01*
X119174065Y-69615300D01*
X119192529Y-69617118D01*
X119380000Y-69635583D01*
X119585934Y-69615300D01*
X119783954Y-69555232D01*
X119966450Y-69457685D01*
X120126410Y-69326410D01*
X120257685Y-69166450D01*
X120355232Y-68983954D01*
X120406839Y-68813823D01*
X120445137Y-68755386D01*
X120508949Y-68726930D01*
X120578016Y-68737490D01*
X120630409Y-68783714D01*
X120649500Y-68849820D01*
X120649500Y-70850179D01*
X120629815Y-70917218D01*
X120577011Y-70962973D01*
X120507853Y-70972917D01*
X120444297Y-70943892D01*
X120406839Y-70886174D01*
X120401190Y-70867551D01*
X120355232Y-70716046D01*
X120257685Y-70533550D01*
X120205702Y-70470209D01*
X120126410Y-70373589D01*
X119966452Y-70242317D01*
X119966453Y-70242317D01*
X119966450Y-70242315D01*
X119783954Y-70144768D01*
X119585934Y-70084700D01*
X119585932Y-70084699D01*
X119585934Y-70084699D01*
X119380000Y-70064417D01*
X119174067Y-70084699D01*
X118976043Y-70144769D01*
X118865898Y-70203643D01*
X118793550Y-70242315D01*
X118793548Y-70242316D01*
X118793547Y-70242317D01*
X118633589Y-70373589D01*
X118533035Y-70496117D01*
X118502315Y-70533550D01*
X118464626Y-70604061D01*
X118404767Y-70716047D01*
X118402915Y-70722152D01*
X118364613Y-70780588D01*
X118300799Y-70809040D01*
X118231732Y-70798474D01*
X118190543Y-70767350D01*
X118162106Y-70734532D01*
X118154049Y-70725233D01*
X118045069Y-70655196D01*
X118045065Y-70655194D01*
X118045064Y-70655194D01*
X117920774Y-70618700D01*
X117920772Y-70618700D01*
X117791228Y-70618700D01*
X117791225Y-70618700D01*
X117790139Y-70618856D01*
X117789054Y-70618700D01*
X117782360Y-70618700D01*
X117782360Y-70617737D01*
X117720981Y-70608908D01*
X117668180Y-70563150D01*
X117648500Y-70496117D01*
X117648500Y-67123136D01*
X117649688Y-67106015D01*
X117651364Y-67093993D01*
X117680116Y-67030313D01*
X117738732Y-66992288D01*
X117738988Y-66992211D01*
X117841869Y-66962004D01*
X117950849Y-66891967D01*
X118035682Y-66794063D01*
X118089497Y-66676226D01*
X118107933Y-66548000D01*
X118091316Y-66432426D01*
X118092521Y-66424041D01*
X118085590Y-66411219D01*
X118073292Y-66384290D01*
X118035682Y-66301937D01*
X117950849Y-66204033D01*
X117841869Y-66133996D01*
X117841865Y-66133994D01*
X117841864Y-66133994D01*
X117717574Y-66097500D01*
X117717572Y-66097500D01*
X117588028Y-66097500D01*
X117502633Y-66122573D01*
X117432764Y-66122572D01*
X117373986Y-66084796D01*
X117344962Y-66021240D01*
X117343700Y-66003595D01*
X117343700Y-63924500D01*
X117363385Y-63857461D01*
X117416189Y-63811706D01*
X117467700Y-63800500D01*
X118205500Y-63800500D01*
X118272539Y-63820185D01*
G37*
G04 #@! TD.AperFunction*
G04 #@! TA.AperFunction,Conductor*
G36*
X111351739Y-63820185D02*
G01*
X111397494Y-63872989D01*
X111408700Y-63924500D01*
X111408700Y-67075011D01*
X111389015Y-67142050D01*
X111378414Y-67156213D01*
X111327096Y-67215438D01*
X111268318Y-67253213D01*
X111198448Y-67253213D01*
X111152320Y-67223572D01*
X111150354Y-67225842D01*
X111143653Y-67220035D01*
X111108790Y-67197630D01*
X111034669Y-67149996D01*
X111034665Y-67149994D01*
X111034664Y-67149994D01*
X110910374Y-67113500D01*
X110910372Y-67113500D01*
X110780828Y-67113500D01*
X110780826Y-67113500D01*
X110656535Y-67149994D01*
X110656532Y-67149995D01*
X110656531Y-67149996D01*
X110583877Y-67196687D01*
X110547549Y-67220034D01*
X110546969Y-67220704D01*
X110546220Y-67221184D01*
X110540846Y-67225842D01*
X110540176Y-67225069D01*
X110488191Y-67258477D01*
X110453257Y-67263500D01*
X108575938Y-67263500D01*
X108558810Y-67262311D01*
X108551038Y-67261227D01*
X108551035Y-67261227D01*
X108510772Y-67263088D01*
X108504720Y-67263368D01*
X108498995Y-67263500D01*
X108480956Y-67263500D01*
X108480951Y-67263500D01*
X108476126Y-67263948D01*
X108465497Y-67265181D01*
X108438808Y-67266415D01*
X108432463Y-67269215D01*
X108405180Y-67277665D01*
X108398368Y-67278938D01*
X108398367Y-67278939D01*
X108375657Y-67292999D01*
X108360478Y-67301000D01*
X108336035Y-67311793D01*
X108331136Y-67316693D01*
X108308742Y-67334431D01*
X108302848Y-67338080D01*
X108286749Y-67359398D01*
X108275479Y-67372348D01*
X108038986Y-67608841D01*
X108026035Y-67620112D01*
X108019767Y-67624844D01*
X107988522Y-67659118D01*
X107984574Y-67663253D01*
X107971827Y-67676000D01*
X107968746Y-67679711D01*
X107962085Y-67688119D01*
X107944083Y-67707866D01*
X107944083Y-67707867D01*
X107941578Y-67714333D01*
X107928259Y-67739602D01*
X107924345Y-67745315D01*
X107924343Y-67745320D01*
X107918228Y-67771317D01*
X107913151Y-67787713D01*
X107903500Y-67812626D01*
X107903500Y-67819551D01*
X107900206Y-67847941D01*
X107898621Y-67854677D01*
X107898621Y-67854682D01*
X107902311Y-67881133D01*
X107903500Y-67898264D01*
X107903500Y-68158536D01*
X107883815Y-68225575D01*
X107831011Y-68271330D01*
X107761853Y-68281274D01*
X107698297Y-68252249D01*
X107660840Y-68194532D01*
X107655232Y-68176046D01*
X107655230Y-68176043D01*
X107557685Y-67993550D01*
X107487449Y-67907967D01*
X107426410Y-67833589D01*
X107273214Y-67707866D01*
X107266450Y-67702315D01*
X107091574Y-67608841D01*
X107083956Y-67604769D01*
X107083955Y-67604768D01*
X107083954Y-67604768D01*
X106885934Y-67544700D01*
X106885932Y-67544699D01*
X106885934Y-67544699D01*
X106680000Y-67524417D01*
X106474067Y-67544699D01*
X106276043Y-67604769D01*
X106177091Y-67657661D01*
X106093550Y-67702315D01*
X106093548Y-67702316D01*
X106093547Y-67702317D01*
X105933589Y-67833589D01*
X105815073Y-67978004D01*
X105802315Y-67993550D01*
X105791117Y-68014500D01*
X105704769Y-68176043D01*
X105653161Y-68346174D01*
X105614863Y-68404613D01*
X105551051Y-68433069D01*
X105481984Y-68422509D01*
X105429590Y-68376285D01*
X105410500Y-68310179D01*
X105410500Y-66309820D01*
X105430185Y-66242781D01*
X105482989Y-66197026D01*
X105552147Y-66187082D01*
X105615703Y-66216107D01*
X105653160Y-66273823D01*
X105704768Y-66443954D01*
X105802315Y-66626450D01*
X105802317Y-66626452D01*
X105933589Y-66786410D01*
X105975972Y-66821192D01*
X106093550Y-66917685D01*
X106276046Y-67015232D01*
X106474066Y-67075300D01*
X106474065Y-67075300D01*
X106492529Y-67077118D01*
X106680000Y-67095583D01*
X106885934Y-67075300D01*
X107083954Y-67015232D01*
X107266450Y-66917685D01*
X107426410Y-66786410D01*
X107557685Y-66626450D01*
X107655232Y-66443954D01*
X107715300Y-66245934D01*
X107717517Y-66223421D01*
X107743676Y-66158634D01*
X107800710Y-66118274D01*
X107870510Y-66115155D01*
X107907956Y-66131256D01*
X108014931Y-66200004D01*
X108139225Y-66236499D01*
X108139227Y-66236500D01*
X108139228Y-66236500D01*
X108268773Y-66236500D01*
X108268773Y-66236499D01*
X108393069Y-66200004D01*
X108502049Y-66129967D01*
X108586882Y-66032063D01*
X108640697Y-65914226D01*
X108659133Y-65786000D01*
X108640697Y-65657774D01*
X108586882Y-65539937D01*
X108502049Y-65442033D01*
X108393069Y-65371996D01*
X108393065Y-65371994D01*
X108393064Y-65371994D01*
X108268774Y-65335500D01*
X108268772Y-65335500D01*
X108139228Y-65335500D01*
X108139226Y-65335500D01*
X108014935Y-65371994D01*
X108014932Y-65371995D01*
X108014931Y-65371996D01*
X107963677Y-65404934D01*
X107905950Y-65442033D01*
X107821114Y-65539941D01*
X107816653Y-65546883D01*
X107763847Y-65592636D01*
X107694688Y-65602577D01*
X107631134Y-65573550D01*
X107602982Y-65538294D01*
X107557685Y-65453550D01*
X107490754Y-65371994D01*
X107426410Y-65293589D01*
X107266452Y-65162317D01*
X107266453Y-65162317D01*
X107266450Y-65162315D01*
X107083954Y-65064768D01*
X106885934Y-65004700D01*
X106885932Y-65004699D01*
X106885934Y-65004699D01*
X106680000Y-64984417D01*
X106474067Y-65004699D01*
X106276043Y-65064769D01*
X106165898Y-65123643D01*
X106093550Y-65162315D01*
X106093548Y-65162316D01*
X106093547Y-65162317D01*
X105933589Y-65293589D01*
X105802317Y-65453547D01*
X105704769Y-65636043D01*
X105704768Y-65636045D01*
X105704768Y-65636046D01*
X105658068Y-65789999D01*
X105653161Y-65806174D01*
X105614863Y-65864613D01*
X105551051Y-65893069D01*
X105481984Y-65882509D01*
X105429590Y-65836285D01*
X105410500Y-65770179D01*
X105410500Y-64491837D01*
X105430185Y-64424798D01*
X105482989Y-64379043D01*
X105552147Y-64369099D01*
X105615703Y-64398124D01*
X105637602Y-64422946D01*
X105685447Y-64494552D01*
X105751769Y-64538867D01*
X105751770Y-64538868D01*
X105810247Y-64550499D01*
X105810250Y-64550500D01*
X105810252Y-64550500D01*
X107549750Y-64550500D01*
X107549751Y-64550499D01*
X107564568Y-64547552D01*
X107608229Y-64538868D01*
X107608229Y-64538867D01*
X107608231Y-64538867D01*
X107674552Y-64494552D01*
X107718867Y-64428231D01*
X107718867Y-64428229D01*
X107718868Y-64428229D01*
X107728651Y-64379043D01*
X107730500Y-64369748D01*
X107730500Y-63924500D01*
X107750185Y-63857461D01*
X107802989Y-63811706D01*
X107854500Y-63800500D01*
X111284700Y-63800500D01*
X111351739Y-63820185D01*
G37*
G04 #@! TD.AperFunction*
M02*
