G04 #@! TF.GenerationSoftware,KiCad,Pcbnew,7.0.10*
G04 #@! TF.CreationDate,2024-06-11T13:44:31+02:00*
G04 #@! TF.ProjectId,RP2040,52503230-3430-42e6-9b69-6361645f7063,rev?*
G04 #@! TF.SameCoordinates,Original*
G04 #@! TF.FileFunction,Copper,L1,Top*
G04 #@! TF.FilePolarity,Positive*
%FSLAX46Y46*%
G04 Gerber Fmt 4.6, Leading zero omitted, Abs format (unit mm)*
G04 Created by KiCad (PCBNEW 7.0.10) date 2024-06-11 13:44:31*
%MOMM*%
%LPD*%
G01*
G04 APERTURE LIST*
G04 Aperture macros list*
%AMRoundRect*
0 Rectangle with rounded corners*
0 $1 Rounding radius*
0 $2 $3 $4 $5 $6 $7 $8 $9 X,Y pos of 4 corners*
0 Add a 4 corners polygon primitive as box body*
4,1,4,$2,$3,$4,$5,$6,$7,$8,$9,$2,$3,0*
0 Add four circle primitives for the rounded corners*
1,1,$1+$1,$2,$3*
1,1,$1+$1,$4,$5*
1,1,$1+$1,$6,$7*
1,1,$1+$1,$8,$9*
0 Add four rect primitives between the rounded corners*
20,1,$1+$1,$2,$3,$4,$5,0*
20,1,$1+$1,$4,$5,$6,$7,0*
20,1,$1+$1,$6,$7,$8,$9,0*
20,1,$1+$1,$8,$9,$2,$3,0*%
G04 Aperture macros list end*
G04 #@! TA.AperFunction,SMDPad,CuDef*
%ADD10R,0.450000X1.380000*%
G04 #@! TD*
G04 #@! TA.AperFunction,SMDPad,CuDef*
%ADD11R,1.650000X1.300000*%
G04 #@! TD*
G04 #@! TA.AperFunction,SMDPad,CuDef*
%ADD12R,1.425000X1.550000*%
G04 #@! TD*
G04 #@! TA.AperFunction,SMDPad,CuDef*
%ADD13R,1.800000X1.900000*%
G04 #@! TD*
G04 #@! TA.AperFunction,SMDPad,CuDef*
%ADD14R,1.000000X1.900000*%
G04 #@! TD*
G04 #@! TA.AperFunction,SMDPad,CuDef*
%ADD15RoundRect,0.243750X-0.456250X0.243750X-0.456250X-0.243750X0.456250X-0.243750X0.456250X0.243750X0*%
G04 #@! TD*
G04 #@! TA.AperFunction,SMDPad,CuDef*
%ADD16RoundRect,0.050000X-0.387500X-0.050000X0.387500X-0.050000X0.387500X0.050000X-0.387500X0.050000X0*%
G04 #@! TD*
G04 #@! TA.AperFunction,SMDPad,CuDef*
%ADD17RoundRect,0.050000X-0.050000X-0.387500X0.050000X-0.387500X0.050000X0.387500X-0.050000X0.387500X0*%
G04 #@! TD*
G04 #@! TA.AperFunction,SMDPad,CuDef*
%ADD18R,3.200000X3.200000*%
G04 #@! TD*
G04 #@! TA.AperFunction,SMDPad,CuDef*
%ADD19RoundRect,0.225000X0.250000X-0.225000X0.250000X0.225000X-0.250000X0.225000X-0.250000X-0.225000X0*%
G04 #@! TD*
G04 #@! TA.AperFunction,SMDPad,CuDef*
%ADD20RoundRect,0.225000X-0.250000X0.225000X-0.250000X-0.225000X0.250000X-0.225000X0.250000X0.225000X0*%
G04 #@! TD*
G04 #@! TA.AperFunction,SMDPad,CuDef*
%ADD21R,1.000000X1.450000*%
G04 #@! TD*
G04 #@! TA.AperFunction,SMDPad,CuDef*
%ADD22RoundRect,0.125000X-0.262500X-0.125000X0.262500X-0.125000X0.262500X0.125000X-0.262500X0.125000X0*%
G04 #@! TD*
G04 #@! TA.AperFunction,SMDPad,CuDef*
%ADD23R,3.400000X4.000000*%
G04 #@! TD*
G04 #@! TA.AperFunction,ComponentPad*
%ADD24R,1.700000X1.700000*%
G04 #@! TD*
G04 #@! TA.AperFunction,ComponentPad*
%ADD25O,1.700000X1.700000*%
G04 #@! TD*
G04 #@! TA.AperFunction,ViaPad*
%ADD26C,0.500000*%
G04 #@! TD*
G04 #@! TA.AperFunction,Conductor*
%ADD27C,0.200000*%
G04 #@! TD*
G04 APERTURE END LIST*
D10*
X114330000Y-66230000D03*
X113680000Y-66230000D03*
X113030000Y-66230000D03*
X112380000Y-66230000D03*
X111730000Y-66230000D03*
D11*
X116405000Y-63570000D03*
D12*
X115517500Y-66145000D03*
D13*
X114180000Y-63570000D03*
D14*
X111480000Y-63570000D03*
D12*
X110542500Y-66145000D03*
D11*
X109655000Y-63570000D03*
D15*
X108966000Y-68709300D03*
X108966000Y-70584300D03*
D16*
X109592500Y-76610000D03*
X109592500Y-77010000D03*
X109592500Y-77410000D03*
X109592500Y-77810000D03*
X109592500Y-78210000D03*
X109592500Y-78610000D03*
X109592500Y-79010000D03*
X109592500Y-79410000D03*
X109592500Y-79810000D03*
X109592500Y-80210000D03*
X109592500Y-80610000D03*
X109592500Y-81010000D03*
X109592500Y-81410000D03*
X109592500Y-81810000D03*
D17*
X110430000Y-82647500D03*
X110830000Y-82647500D03*
X111230000Y-82647500D03*
X111630000Y-82647500D03*
X112030000Y-82647500D03*
X112430000Y-82647500D03*
X112830000Y-82647500D03*
X113230000Y-82647500D03*
X113630000Y-82647500D03*
X114030000Y-82647500D03*
X114430000Y-82647500D03*
X114830000Y-82647500D03*
X115230000Y-82647500D03*
X115630000Y-82647500D03*
D16*
X116467500Y-81810000D03*
X116467500Y-81410000D03*
X116467500Y-81010000D03*
X116467500Y-80610000D03*
X116467500Y-80210000D03*
X116467500Y-79810000D03*
X116467500Y-79410000D03*
X116467500Y-79010000D03*
X116467500Y-78610000D03*
X116467500Y-78210000D03*
X116467500Y-77810000D03*
X116467500Y-77410000D03*
X116467500Y-77010000D03*
X116467500Y-76610000D03*
D17*
X115630000Y-75772500D03*
X115230000Y-75772500D03*
X114830000Y-75772500D03*
X114430000Y-75772500D03*
X114030000Y-75772500D03*
X113630000Y-75772500D03*
X113230000Y-75772500D03*
X112830000Y-75772500D03*
X112430000Y-75772500D03*
X112030000Y-75772500D03*
X111630000Y-75772500D03*
X111230000Y-75772500D03*
X110830000Y-75772500D03*
X110430000Y-75772500D03*
D18*
X113030000Y-79210000D03*
D19*
X117398800Y-74181000D03*
X117398800Y-72631000D03*
D20*
X117398800Y-68363800D03*
X117398800Y-69913800D03*
D21*
X114466000Y-89951000D03*
X114466000Y-84801000D03*
X116166000Y-89951000D03*
X116166000Y-84801000D03*
D19*
X109169200Y-73622200D03*
X109169200Y-72072200D03*
D21*
X111594000Y-84801000D03*
X111594000Y-89951000D03*
X109894000Y-84801000D03*
X109894000Y-89951000D03*
D22*
X110642400Y-68529200D03*
X110642400Y-69799200D03*
X110642400Y-71069200D03*
X110642400Y-72339200D03*
X115967400Y-72339200D03*
X115967400Y-71069200D03*
X115967400Y-69799200D03*
X115967400Y-68529200D03*
D23*
X113304900Y-70434200D03*
D24*
X119380000Y-63500000D03*
D25*
X119380000Y-66040000D03*
X119380000Y-68580000D03*
X119380000Y-71120000D03*
X119380000Y-73660000D03*
X119380000Y-76200000D03*
X119380000Y-78740000D03*
X119380000Y-81280000D03*
X119380000Y-83820000D03*
X119380000Y-86360000D03*
X119380000Y-88900000D03*
X119380000Y-91440000D03*
D24*
X106680000Y-63500000D03*
D25*
X106680000Y-66040000D03*
X106680000Y-68580000D03*
X106680000Y-71120000D03*
X106680000Y-73660000D03*
X106680000Y-76200000D03*
X106680000Y-78740000D03*
X106680000Y-81280000D03*
X106680000Y-83820000D03*
X106680000Y-86360000D03*
X106680000Y-88900000D03*
X106680000Y-91440000D03*
D26*
X113842800Y-81778400D03*
X112115600Y-76911200D03*
X116230400Y-74980800D03*
X116941600Y-87477600D03*
X117602000Y-89966800D03*
X107594400Y-67360800D03*
X115366800Y-62738000D03*
X110490000Y-76758800D03*
X110642400Y-62687200D03*
X112471200Y-81178400D03*
X116789200Y-71475600D03*
X108508800Y-89966800D03*
X110998000Y-80975200D03*
X110032800Y-71678800D03*
X110998000Y-79146400D03*
X116840000Y-75793600D03*
X115468400Y-80568800D03*
X109728000Y-72847200D03*
X115684600Y-74181000D03*
X111099600Y-69138800D03*
X117195600Y-76504800D03*
X114960400Y-76860400D03*
X116789200Y-67564000D03*
X117551200Y-87985600D03*
X108712000Y-80314800D03*
X117856000Y-71069200D03*
X113030000Y-81778400D03*
X113436400Y-76911200D03*
X115620800Y-77266800D03*
X111963200Y-83616800D03*
X113639600Y-83616800D03*
X111709200Y-67462400D03*
X117652800Y-66548000D03*
X112826800Y-63296800D03*
X112420400Y-63957200D03*
X117297200Y-78383587D03*
X117398800Y-82753200D03*
X115214400Y-88798400D03*
X108712000Y-81076800D03*
X110439200Y-80467200D03*
X110337600Y-81432400D03*
X108712000Y-81838800D03*
X109423200Y-82854800D03*
X110998000Y-81788000D03*
X109372400Y-83616800D03*
X111709200Y-81381600D03*
X110744000Y-83870800D03*
X117297200Y-77470000D03*
X118821200Y-80060800D03*
X118922800Y-77470000D03*
X109829600Y-74828400D03*
X112369600Y-88036400D03*
X110845600Y-67564000D03*
X110693200Y-88849200D03*
X108204000Y-65786000D03*
X108712000Y-69646800D03*
X117348000Y-81889600D03*
X110642400Y-73152000D03*
X111201200Y-70358000D03*
X111201200Y-71628000D03*
X111404400Y-73152000D03*
X115163600Y-73660000D03*
X112166400Y-73152000D03*
X112928400Y-73152000D03*
X115112800Y-72847200D03*
X113690400Y-72847200D03*
X115671600Y-69189600D03*
X113842800Y-73914000D03*
X113741200Y-67360800D03*
X115265200Y-67411600D03*
X114554000Y-74523600D03*
D27*
X115468400Y-77419200D02*
X115620800Y-77266800D01*
X115468400Y-80568800D02*
X115468400Y-77419200D01*
X115163600Y-74828400D02*
X114830000Y-75162000D01*
X112830000Y-76207366D02*
X112830000Y-75772500D01*
X113842800Y-81778400D02*
X113630000Y-81991200D01*
X112115600Y-76911200D02*
X112126166Y-76911200D01*
X116078000Y-74828400D02*
X115163600Y-74828400D01*
X114830000Y-75162000D02*
X114830000Y-75772500D01*
X113630000Y-81991200D02*
X113630000Y-82647500D01*
X116230400Y-74980800D02*
X116078000Y-74828400D01*
X112126166Y-76911200D02*
X112830000Y-76207366D01*
X110642400Y-72339200D02*
X110642400Y-72288400D01*
X112030000Y-82647500D02*
X112030000Y-82026000D01*
X112369600Y-81280000D02*
X112471200Y-81178400D01*
X116789200Y-71475600D02*
X116789200Y-72021400D01*
X113030000Y-79210000D02*
X112941200Y-79210000D01*
X111061600Y-79210000D02*
X110998000Y-79146400D01*
X112471200Y-81178400D02*
X113030000Y-80619600D01*
X109639400Y-72072200D02*
X110032800Y-71678800D01*
X109169200Y-72072200D02*
X109639400Y-72072200D01*
X116910000Y-63570000D02*
X119380000Y-66040000D01*
X112763200Y-79210000D02*
X110998000Y-80975200D01*
X117344500Y-67106800D02*
X118313200Y-67106800D01*
X112941200Y-79210000D02*
X110490000Y-76758800D01*
X113030000Y-79210000D02*
X111061600Y-79210000D01*
X110642400Y-72288400D02*
X110032800Y-71678800D01*
X116405000Y-63570000D02*
X116910000Y-63570000D01*
X116166000Y-86702000D02*
X116941600Y-87477600D01*
X118313200Y-67106800D02*
X119380000Y-66040000D01*
X116166000Y-84801000D02*
X116166000Y-86702000D01*
X112030000Y-82026000D02*
X112369600Y-81686400D01*
X116789200Y-72021400D02*
X117398800Y-72631000D01*
X113030000Y-79210000D02*
X112763200Y-79210000D01*
X116382700Y-66145000D02*
X117344500Y-67106800D01*
X112369600Y-81686400D02*
X112369600Y-81280000D01*
X117398800Y-69913800D02*
X116789200Y-70523400D01*
X116789200Y-70523400D02*
X116789200Y-71475600D01*
X113030000Y-80619600D02*
X113030000Y-79210000D01*
X115517500Y-66145000D02*
X116382700Y-66145000D01*
X109283800Y-73291400D02*
X109283800Y-73876200D01*
X116636800Y-67716400D02*
X116789200Y-67564000D01*
X113230000Y-81978400D02*
X113230000Y-82647500D01*
X117548000Y-80210000D02*
X116467500Y-80210000D01*
X117551200Y-80213200D02*
X117906800Y-80213200D01*
X109728000Y-72847200D02*
X109283800Y-73291400D01*
X113030000Y-81778400D02*
X113230000Y-81978400D01*
X117893800Y-68363800D02*
X118103800Y-68573800D01*
X109169200Y-73990800D02*
X109169200Y-76186700D01*
X116840000Y-75793600D02*
X116818900Y-75772500D01*
X116818900Y-75772500D02*
X115630000Y-75772500D01*
X117551200Y-80213200D02*
X117548000Y-80210000D01*
X116636800Y-68529200D02*
X117233400Y-68529200D01*
X117398800Y-68363800D02*
X117893800Y-68363800D01*
X117906800Y-87630000D02*
X117551200Y-87985600D01*
X117090400Y-76610000D02*
X116467500Y-76610000D01*
X109283800Y-73876200D02*
X109169200Y-73990800D01*
X118103800Y-70821400D02*
X117856000Y-71069200D01*
X118103800Y-68573800D02*
X118103800Y-70821400D01*
X115967400Y-68529200D02*
X116636800Y-68529200D01*
X117398800Y-74181000D02*
X117906800Y-74689000D01*
X113630000Y-75772500D02*
X113630000Y-76717600D01*
X113230000Y-76704800D02*
X113230000Y-75772500D01*
X113630000Y-76717600D02*
X113436400Y-76911200D01*
X117906800Y-80213200D02*
X117906800Y-87630000D01*
X108816800Y-80210000D02*
X108712000Y-80314800D01*
X109169200Y-76186700D02*
X109592500Y-76610000D01*
X113436400Y-76911200D02*
X113230000Y-76704800D01*
X116636800Y-68529200D02*
X116636800Y-67716400D01*
X117906800Y-74689000D02*
X117906800Y-80213200D01*
X114960400Y-76860400D02*
X115230000Y-76590800D01*
X115230000Y-76590800D02*
X115230000Y-75772500D01*
X115684600Y-74181000D02*
X117398800Y-74181000D01*
X117195600Y-76504800D02*
X117090400Y-76610000D01*
X117233400Y-68529200D02*
X117398800Y-68363800D01*
X109592500Y-80210000D02*
X108816800Y-80210000D01*
X112430000Y-83353200D02*
X112430000Y-82647500D01*
X111963200Y-83616800D02*
X112166400Y-83616800D01*
X112166400Y-83616800D02*
X112430000Y-83353200D01*
X113080800Y-83616800D02*
X112830000Y-83366000D01*
X112830000Y-83366000D02*
X112830000Y-82647500D01*
X113639600Y-83616800D02*
X113080800Y-83616800D01*
X114330000Y-66230000D02*
X114330000Y-65340000D01*
X114330000Y-65340000D02*
X114798400Y-64871600D01*
X114798400Y-64871600D02*
X117195600Y-64871600D01*
X117195600Y-64871600D02*
X117652800Y-65328800D01*
X114330000Y-67450823D02*
X113940023Y-67840800D01*
X112087600Y-67840800D02*
X111709200Y-67462400D01*
X113940023Y-67840800D02*
X112087600Y-67840800D01*
X117652800Y-65328800D02*
X117652800Y-66548000D01*
X114330000Y-66230000D02*
X114330000Y-67450823D01*
X112826800Y-63296800D02*
X112979200Y-63449200D01*
X113680000Y-65420000D02*
X113680000Y-66230000D01*
X112979200Y-63449200D02*
X112979200Y-64719200D01*
X112979200Y-64719200D02*
X113680000Y-65420000D01*
X112420400Y-63957200D02*
X112369600Y-64008000D01*
X112369600Y-64668400D02*
X113030000Y-65328800D01*
X112369600Y-64008000D02*
X112369600Y-64668400D01*
X113030000Y-65328800D02*
X113030000Y-66230000D01*
X108762800Y-74625200D02*
X108204000Y-74066400D01*
X108762800Y-76911200D02*
X108762800Y-74625200D01*
X108204000Y-74066400D02*
X108204000Y-72085200D01*
X108204000Y-72085200D02*
X107848400Y-71729600D01*
X108861600Y-77010000D02*
X108762800Y-76911200D01*
X109592500Y-77010000D02*
X108861600Y-77010000D01*
X107848400Y-69748400D02*
X106680000Y-68580000D01*
X107848400Y-71729600D02*
X107848400Y-69748400D01*
X107797600Y-72237600D02*
X106680000Y-71120000D01*
X109592500Y-77410000D02*
X108550400Y-77410000D01*
X108356400Y-74777600D02*
X107797600Y-74218800D01*
X107797600Y-74218800D02*
X107797600Y-72237600D01*
X108550400Y-77410000D02*
X108356400Y-77216000D01*
X108356400Y-77216000D02*
X108356400Y-74777600D01*
X107950000Y-74930000D02*
X106680000Y-73660000D01*
X107950000Y-77622400D02*
X107950000Y-74930000D01*
X108137600Y-77810000D02*
X107950000Y-77622400D01*
X109592500Y-77810000D02*
X108137600Y-77810000D01*
X107543600Y-77978000D02*
X107543600Y-77063600D01*
X109592500Y-78210000D02*
X107775600Y-78210000D01*
X107775600Y-78210000D02*
X107543600Y-77978000D01*
X107543600Y-77063600D02*
X106680000Y-76200000D01*
X109592500Y-78610000D02*
X106810000Y-78610000D01*
X106810000Y-78610000D02*
X106680000Y-78740000D01*
X108137200Y-79010000D02*
X106680000Y-80467200D01*
X109592500Y-79010000D02*
X108137200Y-79010000D01*
X106680000Y-80467200D02*
X106680000Y-81280000D01*
X106680000Y-83718400D02*
X106680000Y-83820000D01*
X109592500Y-79410000D02*
X108296000Y-79410000D01*
X107797600Y-82600800D02*
X106680000Y-83718400D01*
X108296000Y-79410000D02*
X107797600Y-79908400D01*
X107797600Y-79908400D02*
X107797600Y-82600800D01*
X108204000Y-80060800D02*
X108204000Y-82753200D01*
X108454800Y-79810000D02*
X108204000Y-80060800D01*
X108204000Y-82753200D02*
X107848400Y-83108800D01*
X107848400Y-83108800D02*
X107848400Y-85191600D01*
X109592500Y-79810000D02*
X108454800Y-79810000D01*
X107848400Y-85191600D02*
X106680000Y-86360000D01*
X117297200Y-78383587D02*
X117297200Y-78282800D01*
X117123613Y-78210000D02*
X116467500Y-78210000D01*
X117297200Y-78383587D02*
X117123613Y-78210000D01*
X114466000Y-89951000D02*
X114466000Y-89546800D01*
X114830000Y-82647500D02*
X114830000Y-83464400D01*
X114830000Y-84437000D02*
X114466000Y-84801000D01*
X117398800Y-82753200D02*
X116687600Y-83464400D01*
X114466000Y-89546800D02*
X115214400Y-88798400D01*
X116687600Y-83464400D02*
X114830000Y-83464400D01*
X114466000Y-84801000D02*
X114466000Y-89951000D01*
X114830000Y-83464400D02*
X114830000Y-84437000D01*
X109592500Y-80610000D02*
X109155000Y-80610000D01*
X108712000Y-81053000D02*
X108712000Y-81076800D01*
X109155000Y-80610000D02*
X108712000Y-81053000D01*
X109592500Y-81010000D02*
X110039400Y-81010000D01*
X110439200Y-80610200D02*
X110439200Y-80467200D01*
X110039400Y-81010000D02*
X110439200Y-80610200D01*
X110315200Y-81410000D02*
X110337600Y-81432400D01*
X109592500Y-81410000D02*
X110315200Y-81410000D01*
X108740800Y-81810000D02*
X109592500Y-81810000D01*
X108712000Y-81838800D02*
X108740800Y-81810000D01*
X110425900Y-82651600D02*
X110430000Y-82647500D01*
X109423200Y-82854800D02*
X109626400Y-82651600D01*
X109626400Y-82651600D02*
X110425900Y-82651600D01*
X110830000Y-82647500D02*
X110830000Y-81956000D01*
X110830000Y-81956000D02*
X110998000Y-81788000D01*
X109626400Y-83362800D02*
X111048800Y-83362800D01*
X111230000Y-83181600D02*
X111230000Y-82647500D01*
X109372400Y-83616800D02*
X109626400Y-83362800D01*
X111048800Y-83362800D02*
X111230000Y-83181600D01*
X111709200Y-81381600D02*
X111630000Y-81460800D01*
X111630000Y-81460800D02*
X111630000Y-82647500D01*
X117297200Y-77470000D02*
X116957200Y-77810000D01*
X116957200Y-77810000D02*
X116467500Y-77810000D01*
X110430000Y-75428800D02*
X109829600Y-74828400D01*
X110845600Y-67564000D02*
X110845600Y-68326000D01*
X110430000Y-75772500D02*
X110430000Y-75428800D01*
X110845600Y-68326000D02*
X110642400Y-68529200D01*
X109894000Y-89951000D02*
X109894000Y-89648400D01*
X109894000Y-89648400D02*
X110693200Y-88849200D01*
X109894000Y-89951000D02*
X109894000Y-84801000D01*
X108966000Y-68709300D02*
X108204000Y-67947300D01*
X108204000Y-67947300D02*
X108204000Y-65786000D01*
X108966000Y-69900800D02*
X108712000Y-69646800D01*
X108966000Y-70584300D02*
X108966000Y-69900800D01*
X117268400Y-81810000D02*
X116467500Y-81810000D01*
X117348000Y-81889600D02*
X117268400Y-81810000D01*
X111201200Y-70358000D02*
X110642400Y-69799200D01*
X110642400Y-73152000D02*
X110830000Y-73339600D01*
X110830000Y-73339600D02*
X110830000Y-75772500D01*
X111404400Y-73152000D02*
X111230000Y-73326400D01*
X110642400Y-71069200D02*
X111201200Y-71628000D01*
X111230000Y-73326400D02*
X111230000Y-75772500D01*
X115967400Y-72856200D02*
X115163600Y-73660000D01*
X111630000Y-75772500D02*
X111630000Y-73688400D01*
X115967400Y-72339200D02*
X115967400Y-72856200D01*
X111630000Y-73688400D02*
X112166400Y-73152000D01*
X112030000Y-74101200D02*
X112928400Y-73202800D01*
X115265200Y-71771400D02*
X115265200Y-72694800D01*
X112030000Y-75772500D02*
X112030000Y-74101200D01*
X112928400Y-73202800D02*
X112928400Y-73152000D01*
X115265200Y-72694800D02*
X115112800Y-72847200D01*
X115967400Y-71069200D02*
X115265200Y-71771400D01*
X115967400Y-69799200D02*
X115967400Y-69485400D01*
X115967400Y-69485400D02*
X115671600Y-69189600D01*
X112430000Y-74514000D02*
X112430000Y-75772500D01*
X113690400Y-73253600D02*
X112430000Y-74514000D01*
X113690400Y-72847200D02*
X113690400Y-73253600D01*
X113842800Y-73914000D02*
X114030000Y-74101200D01*
X114030000Y-74101200D02*
X114030000Y-76026500D01*
X114430000Y-74647600D02*
X114430000Y-76026500D01*
X114554000Y-74523600D02*
X114430000Y-74647600D01*
G04 #@! TA.AperFunction,Conductor*
G36*
X109589993Y-82130185D02*
G01*
X109635748Y-82182989D01*
X109645692Y-82252147D01*
X109616667Y-82315703D01*
X109566332Y-82348051D01*
X109566917Y-82349376D01*
X109558462Y-82353108D01*
X109557889Y-82353477D01*
X109557238Y-82353648D01*
X109553183Y-82355438D01*
X109550063Y-82356815D01*
X109522780Y-82365265D01*
X109515968Y-82366538D01*
X109515964Y-82366540D01*
X109493257Y-82380598D01*
X109478085Y-82388596D01*
X109466463Y-82393729D01*
X109416365Y-82404300D01*
X109358426Y-82404300D01*
X109234135Y-82440794D01*
X109234132Y-82440795D01*
X109234131Y-82440796D01*
X109182877Y-82473734D01*
X109125150Y-82510833D01*
X109040318Y-82608737D01*
X109040317Y-82608738D01*
X108986502Y-82726574D01*
X108968067Y-82854800D01*
X108986502Y-82983025D01*
X109036001Y-83091411D01*
X109040318Y-83100863D01*
X109054146Y-83116822D01*
X109061479Y-83125285D01*
X109090502Y-83188842D01*
X109080557Y-83258000D01*
X109061478Y-83287687D01*
X108989520Y-83370732D01*
X108989517Y-83370738D01*
X108935702Y-83488574D01*
X108917267Y-83616800D01*
X108935702Y-83745025D01*
X108986299Y-83855815D01*
X108989518Y-83862863D01*
X109040914Y-83922178D01*
X109073769Y-83960096D01*
X109074351Y-83960767D01*
X109136540Y-84000733D01*
X109182294Y-84053536D01*
X109193500Y-84105048D01*
X109193500Y-85545752D01*
X109205131Y-85604229D01*
X109205132Y-85604230D01*
X109249447Y-85670552D01*
X109315769Y-85714867D01*
X109315770Y-85714868D01*
X109374247Y-85726499D01*
X109374250Y-85726500D01*
X109374252Y-85726500D01*
X109469500Y-85726500D01*
X109536539Y-85746185D01*
X109582294Y-85798989D01*
X109593500Y-85850500D01*
X109593500Y-88901500D01*
X109573815Y-88968539D01*
X109521011Y-89014294D01*
X109469500Y-89025500D01*
X109374247Y-89025500D01*
X109315770Y-89037131D01*
X109315769Y-89037132D01*
X109249447Y-89081447D01*
X109205132Y-89147769D01*
X109205131Y-89147770D01*
X109193500Y-89206247D01*
X109193500Y-90695752D01*
X109205131Y-90754229D01*
X109205132Y-90754230D01*
X109249447Y-90820552D01*
X109315769Y-90864867D01*
X109315770Y-90864868D01*
X109374247Y-90876499D01*
X109374250Y-90876500D01*
X109374252Y-90876500D01*
X110413750Y-90876500D01*
X110413751Y-90876499D01*
X110428568Y-90873552D01*
X110472229Y-90864868D01*
X110472229Y-90864867D01*
X110472231Y-90864867D01*
X110538552Y-90820552D01*
X110582867Y-90754231D01*
X110582867Y-90754229D01*
X110582868Y-90754229D01*
X110594499Y-90695752D01*
X110594500Y-90695750D01*
X110594500Y-90201000D01*
X110844000Y-90201000D01*
X110844000Y-90700628D01*
X110858503Y-90773540D01*
X110858505Y-90773544D01*
X110913760Y-90856239D01*
X110996455Y-90911494D01*
X110996459Y-90911496D01*
X111069371Y-90925999D01*
X111069374Y-90926000D01*
X111344000Y-90926000D01*
X111344000Y-90201000D01*
X111844000Y-90201000D01*
X111844000Y-90926000D01*
X112118626Y-90926000D01*
X112118628Y-90925999D01*
X112191540Y-90911496D01*
X112191544Y-90911494D01*
X112274239Y-90856239D01*
X112329494Y-90773544D01*
X112329496Y-90773540D01*
X112343999Y-90700628D01*
X112344000Y-90700626D01*
X112344000Y-90201000D01*
X111844000Y-90201000D01*
X111344000Y-90201000D01*
X110844000Y-90201000D01*
X110594500Y-90201000D01*
X110594500Y-89424233D01*
X110614185Y-89357194D01*
X110630819Y-89336552D01*
X110631352Y-89336019D01*
X110692675Y-89302534D01*
X110719033Y-89299700D01*
X110720000Y-89299700D01*
X110787039Y-89319385D01*
X110832794Y-89372189D01*
X110844000Y-89423700D01*
X110844000Y-89701000D01*
X111344000Y-89701000D01*
X111344000Y-88976000D01*
X111844000Y-88976000D01*
X111844000Y-89701000D01*
X112344000Y-89701000D01*
X112344000Y-89201373D01*
X112343999Y-89201371D01*
X112329496Y-89128459D01*
X112329494Y-89128455D01*
X112274239Y-89045760D01*
X112191544Y-88990505D01*
X112191540Y-88990503D01*
X112118627Y-88976000D01*
X111844000Y-88976000D01*
X111344000Y-88976000D01*
X111272333Y-88976000D01*
X111205294Y-88956315D01*
X111159539Y-88903511D01*
X111149632Y-88857973D01*
X111149595Y-88857979D01*
X111149519Y-88857454D01*
X111148333Y-88852000D01*
X111148333Y-88849201D01*
X111129897Y-88720974D01*
X111076082Y-88603138D01*
X111076082Y-88603137D01*
X110991249Y-88505233D01*
X110882269Y-88435196D01*
X110882265Y-88435194D01*
X110882264Y-88435194D01*
X110757974Y-88398700D01*
X110757972Y-88398700D01*
X110628428Y-88398700D01*
X110628426Y-88398700D01*
X110504135Y-88435194D01*
X110504132Y-88435195D01*
X110504131Y-88435196D01*
X110423678Y-88486900D01*
X110387690Y-88510028D01*
X110386075Y-88507516D01*
X110336119Y-88530317D01*
X110266963Y-88520358D01*
X110214169Y-88474591D01*
X110194500Y-88407575D01*
X110194500Y-88036400D01*
X111914467Y-88036400D01*
X111932902Y-88164625D01*
X111963518Y-88231663D01*
X111986718Y-88282463D01*
X112028128Y-88330253D01*
X112067036Y-88375157D01*
X112071551Y-88380367D01*
X112180531Y-88450404D01*
X112304825Y-88486899D01*
X112304827Y-88486900D01*
X112304828Y-88486900D01*
X112434373Y-88486900D01*
X112434373Y-88486899D01*
X112558669Y-88450404D01*
X112667649Y-88380367D01*
X112752482Y-88282463D01*
X112806297Y-88164626D01*
X112824733Y-88036400D01*
X112806297Y-87908174D01*
X112752482Y-87790337D01*
X112667649Y-87692433D01*
X112558669Y-87622396D01*
X112558665Y-87622394D01*
X112558664Y-87622394D01*
X112434374Y-87585900D01*
X112434372Y-87585900D01*
X112304828Y-87585900D01*
X112304826Y-87585900D01*
X112180535Y-87622394D01*
X112180532Y-87622395D01*
X112180531Y-87622396D01*
X112129277Y-87655334D01*
X112071550Y-87692433D01*
X111986718Y-87790337D01*
X111986717Y-87790338D01*
X111932902Y-87908174D01*
X111914467Y-88036400D01*
X110194500Y-88036400D01*
X110194500Y-85850500D01*
X110214185Y-85783461D01*
X110266989Y-85737706D01*
X110318500Y-85726500D01*
X110413750Y-85726500D01*
X110413751Y-85726499D01*
X110428568Y-85723552D01*
X110472229Y-85714868D01*
X110472229Y-85714867D01*
X110472231Y-85714867D01*
X110538552Y-85670552D01*
X110582867Y-85604231D01*
X110582867Y-85604229D01*
X110582868Y-85604229D01*
X110594499Y-85545752D01*
X110594500Y-85545750D01*
X110594500Y-85051000D01*
X110844000Y-85051000D01*
X110844000Y-85550628D01*
X110858503Y-85623540D01*
X110858505Y-85623544D01*
X110913760Y-85706239D01*
X110996455Y-85761494D01*
X110996459Y-85761496D01*
X111069371Y-85775999D01*
X111069374Y-85776000D01*
X111344000Y-85776000D01*
X111344000Y-85051000D01*
X111844000Y-85051000D01*
X111844000Y-85776000D01*
X112118626Y-85776000D01*
X112118628Y-85775999D01*
X112191540Y-85761496D01*
X112191544Y-85761494D01*
X112274239Y-85706239D01*
X112329494Y-85623544D01*
X112329496Y-85623540D01*
X112343999Y-85550628D01*
X112344000Y-85550626D01*
X112344000Y-85051000D01*
X111844000Y-85051000D01*
X111344000Y-85051000D01*
X110844000Y-85051000D01*
X110594500Y-85051000D01*
X110594500Y-84445300D01*
X110614185Y-84378261D01*
X110666989Y-84332506D01*
X110718500Y-84321300D01*
X110720000Y-84321300D01*
X110787039Y-84340985D01*
X110832794Y-84393789D01*
X110844000Y-84445300D01*
X110844000Y-84551000D01*
X112344000Y-84551000D01*
X112344000Y-84051373D01*
X112343999Y-84051371D01*
X112327113Y-83966476D01*
X112331269Y-83965649D01*
X112326272Y-83919284D01*
X112357530Y-83856796D01*
X112364774Y-83849626D01*
X112372345Y-83842723D01*
X112372352Y-83842719D01*
X112388453Y-83821395D01*
X112399714Y-83808455D01*
X112535920Y-83672249D01*
X112597241Y-83638766D01*
X112666933Y-83643750D01*
X112711280Y-83672251D01*
X112820839Y-83781810D01*
X112832110Y-83794762D01*
X112836839Y-83801025D01*
X112836841Y-83801027D01*
X112836842Y-83801028D01*
X112851661Y-83814537D01*
X112871117Y-83832274D01*
X112875258Y-83836229D01*
X112888003Y-83848974D01*
X112891731Y-83852070D01*
X112900124Y-83858718D01*
X112919867Y-83876716D01*
X112925668Y-83878963D01*
X112926328Y-83879219D01*
X112951609Y-83892545D01*
X112957320Y-83896457D01*
X112983317Y-83902571D01*
X112999718Y-83907651D01*
X113024624Y-83917300D01*
X113024627Y-83917300D01*
X113031552Y-83917300D01*
X113059940Y-83920593D01*
X113066681Y-83922179D01*
X113093133Y-83918489D01*
X113110264Y-83917300D01*
X113247257Y-83917300D01*
X113314296Y-83936985D01*
X113340969Y-83960096D01*
X113341549Y-83960765D01*
X113341551Y-83960767D01*
X113450531Y-84030804D01*
X113574825Y-84067299D01*
X113574827Y-84067300D01*
X113641500Y-84067300D01*
X113708539Y-84086985D01*
X113754294Y-84139789D01*
X113765500Y-84191300D01*
X113765500Y-85545752D01*
X113777131Y-85604229D01*
X113777132Y-85604230D01*
X113821447Y-85670552D01*
X113887769Y-85714867D01*
X113887770Y-85714868D01*
X113946247Y-85726499D01*
X113946250Y-85726500D01*
X113946252Y-85726500D01*
X114041500Y-85726500D01*
X114108539Y-85746185D01*
X114154294Y-85798989D01*
X114165500Y-85850500D01*
X114165500Y-88901500D01*
X114145815Y-88968539D01*
X114093011Y-89014294D01*
X114041500Y-89025500D01*
X113946247Y-89025500D01*
X113887770Y-89037131D01*
X113887769Y-89037132D01*
X113821447Y-89081447D01*
X113777132Y-89147769D01*
X113777131Y-89147770D01*
X113765500Y-89206247D01*
X113765500Y-90695752D01*
X113777131Y-90754229D01*
X113777132Y-90754230D01*
X113821447Y-90820552D01*
X113887769Y-90864867D01*
X113887770Y-90864868D01*
X113946247Y-90876499D01*
X113946250Y-90876500D01*
X113946252Y-90876500D01*
X114985750Y-90876500D01*
X114985751Y-90876499D01*
X115000568Y-90873552D01*
X115044229Y-90864868D01*
X115044229Y-90864867D01*
X115044231Y-90864867D01*
X115110552Y-90820552D01*
X115154867Y-90754231D01*
X115154867Y-90754229D01*
X115154868Y-90754229D01*
X115166499Y-90695752D01*
X115166500Y-90695750D01*
X115166500Y-90201000D01*
X115416000Y-90201000D01*
X115416000Y-90700628D01*
X115430503Y-90773540D01*
X115430505Y-90773544D01*
X115485760Y-90856239D01*
X115568455Y-90911494D01*
X115568459Y-90911496D01*
X115641371Y-90925999D01*
X115641374Y-90926000D01*
X115916000Y-90926000D01*
X115916000Y-90201000D01*
X116416000Y-90201000D01*
X116416000Y-90926000D01*
X116690626Y-90926000D01*
X116690628Y-90925999D01*
X116763540Y-90911496D01*
X116763544Y-90911494D01*
X116846239Y-90856239D01*
X116901494Y-90773544D01*
X116901496Y-90773540D01*
X116915999Y-90700628D01*
X116916000Y-90700626D01*
X116916000Y-90201000D01*
X116416000Y-90201000D01*
X115916000Y-90201000D01*
X115416000Y-90201000D01*
X115166500Y-90201000D01*
X115166500Y-89372546D01*
X115186185Y-89305507D01*
X115238989Y-89259752D01*
X115272826Y-89249812D01*
X115274326Y-89249596D01*
X115343487Y-89259524D01*
X115396301Y-89305268D01*
X115416000Y-89372303D01*
X115416000Y-89701000D01*
X115916000Y-89701000D01*
X115916000Y-88976000D01*
X116416000Y-88976000D01*
X116416000Y-89701000D01*
X116916000Y-89701000D01*
X116916000Y-89201373D01*
X116915999Y-89201371D01*
X116901496Y-89128459D01*
X116901494Y-89128455D01*
X116846239Y-89045760D01*
X116763544Y-88990505D01*
X116763540Y-88990503D01*
X116690627Y-88976000D01*
X116416000Y-88976000D01*
X115916000Y-88976000D01*
X115787102Y-88976000D01*
X115720063Y-88956315D01*
X115674308Y-88903511D01*
X115664364Y-88834354D01*
X115669533Y-88798400D01*
X115651097Y-88670174D01*
X115597282Y-88552338D01*
X115597282Y-88552337D01*
X115512449Y-88454433D01*
X115403469Y-88384396D01*
X115403465Y-88384394D01*
X115403464Y-88384394D01*
X115279174Y-88347900D01*
X115279172Y-88347900D01*
X115149628Y-88347900D01*
X115149626Y-88347900D01*
X115025333Y-88384394D01*
X115025332Y-88384394D01*
X114957538Y-88427963D01*
X114890499Y-88447647D01*
X114823459Y-88427962D01*
X114777705Y-88375157D01*
X114766500Y-88323647D01*
X114766500Y-85850500D01*
X114786185Y-85783461D01*
X114838989Y-85737706D01*
X114890500Y-85726500D01*
X114985750Y-85726500D01*
X114985751Y-85726499D01*
X115000568Y-85723552D01*
X115044229Y-85714868D01*
X115044229Y-85714867D01*
X115044231Y-85714867D01*
X115110552Y-85670552D01*
X115154867Y-85604231D01*
X115154867Y-85604229D01*
X115154868Y-85604229D01*
X115166499Y-85545752D01*
X115166500Y-85545750D01*
X115166500Y-85051000D01*
X115416000Y-85051000D01*
X115416000Y-85550628D01*
X115430503Y-85623540D01*
X115430505Y-85623544D01*
X115485760Y-85706239D01*
X115568455Y-85761494D01*
X115568459Y-85761496D01*
X115641371Y-85775999D01*
X115641374Y-85776000D01*
X115916000Y-85776000D01*
X115916000Y-85051000D01*
X116416000Y-85051000D01*
X116416000Y-85776000D01*
X116690626Y-85776000D01*
X116690628Y-85775999D01*
X116763540Y-85761496D01*
X116763544Y-85761494D01*
X116846239Y-85706239D01*
X116901494Y-85623544D01*
X116901496Y-85623540D01*
X116915999Y-85550628D01*
X116916000Y-85550626D01*
X116916000Y-85051000D01*
X116416000Y-85051000D01*
X115916000Y-85051000D01*
X115416000Y-85051000D01*
X115166500Y-85051000D01*
X115166500Y-84056249D01*
X115166499Y-84056247D01*
X115154868Y-83997771D01*
X115154866Y-83997768D01*
X115151396Y-83992574D01*
X115130520Y-83925896D01*
X115130500Y-83923686D01*
X115130500Y-83888900D01*
X115150185Y-83821861D01*
X115202989Y-83776106D01*
X115254500Y-83764900D01*
X115341211Y-83764900D01*
X115408250Y-83784585D01*
X115454005Y-83837389D01*
X115463949Y-83906547D01*
X115444313Y-83957792D01*
X115430503Y-83978458D01*
X115430503Y-83978459D01*
X115416000Y-84051371D01*
X115416000Y-84551000D01*
X116916000Y-84551000D01*
X116916000Y-84051373D01*
X116915999Y-84051371D01*
X116901496Y-83978459D01*
X116901494Y-83978455D01*
X116839455Y-83885606D01*
X116842030Y-83883885D01*
X116817765Y-83839447D01*
X116822749Y-83769755D01*
X116854646Y-83727145D01*
X116852236Y-83724735D01*
X116860362Y-83716606D01*
X116860365Y-83716606D01*
X116865261Y-83711709D01*
X116887669Y-83693961D01*
X116893552Y-83690319D01*
X116909653Y-83668995D01*
X116920914Y-83656055D01*
X117336952Y-83240019D01*
X117398275Y-83206534D01*
X117424633Y-83203700D01*
X117463571Y-83203700D01*
X117463572Y-83203700D01*
X117463572Y-83203699D01*
X117464649Y-83203545D01*
X117465727Y-83203700D01*
X117472440Y-83203700D01*
X117472440Y-83204664D01*
X117533808Y-83213486D01*
X117586613Y-83259239D01*
X117606300Y-83326278D01*
X117606300Y-87411100D01*
X117586615Y-87478139D01*
X117533811Y-87523894D01*
X117494989Y-87532339D01*
X117495205Y-87533838D01*
X117486425Y-87535100D01*
X117362135Y-87571594D01*
X117362132Y-87571595D01*
X117362131Y-87571596D01*
X117310877Y-87604534D01*
X117253150Y-87641633D01*
X117168318Y-87739537D01*
X117168317Y-87739538D01*
X117114502Y-87857374D01*
X117096067Y-87985600D01*
X117114502Y-88113825D01*
X117137702Y-88164625D01*
X117168318Y-88231663D01*
X117212334Y-88282461D01*
X117249123Y-88324919D01*
X117253151Y-88329567D01*
X117362131Y-88399604D01*
X117486425Y-88436099D01*
X117486427Y-88436100D01*
X117486428Y-88436100D01*
X117615973Y-88436100D01*
X117615973Y-88436099D01*
X117740269Y-88399604D01*
X117849249Y-88329567D01*
X117849249Y-88329566D01*
X117849253Y-88329564D01*
X117855954Y-88323758D01*
X117856960Y-88324919D01*
X117907422Y-88292486D01*
X117977291Y-88292482D01*
X118036072Y-88330253D01*
X118065100Y-88393807D01*
X118066363Y-88411668D01*
X118059407Y-92585707D01*
X118039611Y-92652713D01*
X117986730Y-92698380D01*
X117935407Y-92709500D01*
X108124800Y-92709500D01*
X108057761Y-92689815D01*
X108012006Y-92637011D01*
X108000800Y-92585500D01*
X108000800Y-85518509D01*
X108020485Y-85451470D01*
X108033161Y-85434973D01*
X108063888Y-85401266D01*
X108067802Y-85397167D01*
X108080574Y-85384397D01*
X108080575Y-85384396D01*
X108083682Y-85380654D01*
X108090316Y-85372276D01*
X108108316Y-85352533D01*
X108110816Y-85346078D01*
X108124149Y-85320782D01*
X108128056Y-85315081D01*
X108134170Y-85289081D01*
X108139246Y-85272689D01*
X108148900Y-85247773D01*
X108148900Y-85240848D01*
X108152195Y-85212455D01*
X108153778Y-85205723D01*
X108153779Y-85205719D01*
X108150089Y-85179265D01*
X108148900Y-85162135D01*
X108148900Y-83284632D01*
X108168585Y-83217593D01*
X108185215Y-83196955D01*
X108369012Y-83013157D01*
X108381963Y-83001888D01*
X108388223Y-82997160D01*
X108388228Y-82997158D01*
X108419488Y-82962866D01*
X108423402Y-82958767D01*
X108436174Y-82945997D01*
X108436175Y-82945996D01*
X108439282Y-82942254D01*
X108445916Y-82933876D01*
X108463916Y-82914133D01*
X108466416Y-82907678D01*
X108479749Y-82882382D01*
X108483656Y-82876681D01*
X108489770Y-82850681D01*
X108494846Y-82834289D01*
X108504500Y-82809373D01*
X108504500Y-82802448D01*
X108507795Y-82774055D01*
X108509378Y-82767323D01*
X108509379Y-82767319D01*
X108505689Y-82740865D01*
X108504500Y-82723735D01*
X108504500Y-82411882D01*
X108524185Y-82344843D01*
X108576989Y-82299088D01*
X108638360Y-82290263D01*
X108638360Y-82289300D01*
X108645062Y-82289300D01*
X108646147Y-82289144D01*
X108646151Y-82289145D01*
X108647227Y-82289299D01*
X108647228Y-82289300D01*
X108647229Y-82289300D01*
X108776773Y-82289300D01*
X108776773Y-82289299D01*
X108901069Y-82252804D01*
X109010049Y-82182767D01*
X109035583Y-82153297D01*
X109094360Y-82115524D01*
X109129297Y-82110500D01*
X109522954Y-82110500D01*
X109589993Y-82130185D01*
G37*
G04 #@! TD.AperFunction*
G04 #@! TA.AperFunction,Conductor*
G36*
X111477461Y-76393977D02*
G01*
X111482256Y-76395963D01*
X111482260Y-76395966D01*
X111482264Y-76395966D01*
X111482267Y-76395968D01*
X111555321Y-76410499D01*
X111555324Y-76410500D01*
X111681839Y-76410500D01*
X111748878Y-76430185D01*
X111794633Y-76482989D01*
X111804577Y-76552147D01*
X111775553Y-76615702D01*
X111732718Y-76665137D01*
X111732717Y-76665138D01*
X111678902Y-76782974D01*
X111660467Y-76911200D01*
X111678902Y-77039425D01*
X111732717Y-77157261D01*
X111737513Y-77164724D01*
X111735659Y-77165915D01*
X111759607Y-77218359D01*
X111749660Y-77287517D01*
X111703902Y-77340319D01*
X111636868Y-77360000D01*
X111405373Y-77360000D01*
X111332459Y-77374503D01*
X111332455Y-77374505D01*
X111249760Y-77429760D01*
X111194505Y-77512455D01*
X111194503Y-77512459D01*
X111180000Y-77585371D01*
X111180000Y-78960000D01*
X112780000Y-78960000D01*
X112780000Y-77360000D01*
X112594332Y-77360000D01*
X112527293Y-77340315D01*
X112481538Y-77287511D01*
X112471594Y-77218353D01*
X112495540Y-77165914D01*
X112493687Y-77164724D01*
X112498477Y-77157268D01*
X112498482Y-77157263D01*
X112552297Y-77039426D01*
X112568150Y-76929161D01*
X112597175Y-76865608D01*
X112603191Y-76859144D01*
X112729416Y-76732920D01*
X112790734Y-76699438D01*
X112860426Y-76704422D01*
X112916360Y-76746293D01*
X112930530Y-76770525D01*
X112935214Y-76781135D01*
X112943664Y-76808420D01*
X112944937Y-76815229D01*
X112944937Y-76815230D01*
X112946535Y-76817811D01*
X112959001Y-76837946D01*
X112967000Y-76853120D01*
X112970699Y-76861498D01*
X112979353Y-76902515D01*
X112980005Y-76902422D01*
X112999702Y-77039425D01*
X113045080Y-77138786D01*
X113053518Y-77157263D01*
X113138351Y-77255167D01*
X113223039Y-77309592D01*
X113268794Y-77362394D01*
X113280000Y-77413907D01*
X113280000Y-78960000D01*
X114880000Y-78960000D01*
X114880000Y-77585373D01*
X114879999Y-77585371D01*
X114865496Y-77512459D01*
X114865493Y-77512453D01*
X114859705Y-77503789D01*
X114838828Y-77437111D01*
X114857314Y-77369731D01*
X114909293Y-77323042D01*
X114962808Y-77310900D01*
X115034040Y-77310900D01*
X115034040Y-77312463D01*
X115093321Y-77320979D01*
X115146130Y-77366728D01*
X115164633Y-77416642D01*
X115166710Y-77431526D01*
X115167900Y-77448664D01*
X115167900Y-80181411D01*
X115148215Y-80248450D01*
X115137614Y-80262613D01*
X115097714Y-80308661D01*
X115038936Y-80346436D01*
X114969066Y-80346436D01*
X114910288Y-80308663D01*
X114881262Y-80245107D01*
X114880000Y-80227459D01*
X114880000Y-79460000D01*
X113280000Y-79460000D01*
X113280000Y-81060000D01*
X114654626Y-81060000D01*
X114654628Y-81059999D01*
X114727540Y-81045496D01*
X114727544Y-81045494D01*
X114810239Y-80990239D01*
X114865494Y-80907544D01*
X114872141Y-80874131D01*
X114904526Y-80812220D01*
X114965241Y-80777645D01*
X115035011Y-80781384D01*
X115087472Y-80817118D01*
X115170351Y-80912767D01*
X115279331Y-80982804D01*
X115403625Y-81019299D01*
X115403627Y-81019300D01*
X115403628Y-81019300D01*
X115533173Y-81019300D01*
X115533173Y-81019299D01*
X115590900Y-81002350D01*
X115665979Y-80980306D01*
X115666592Y-80982394D01*
X115723735Y-80974171D01*
X115787294Y-81003186D01*
X115825077Y-81061959D01*
X115829173Y-81083032D01*
X115844033Y-81157740D01*
X115846025Y-81162548D01*
X115853494Y-81232017D01*
X115846025Y-81257452D01*
X115844033Y-81262259D01*
X115829500Y-81335323D01*
X115829500Y-81335326D01*
X115829500Y-81484674D01*
X115829500Y-81484676D01*
X115829499Y-81484676D01*
X115844033Y-81557740D01*
X115846025Y-81562548D01*
X115853494Y-81632017D01*
X115846025Y-81657452D01*
X115844033Y-81662259D01*
X115829500Y-81735323D01*
X115829500Y-81885500D01*
X115809815Y-81952539D01*
X115757011Y-81998294D01*
X115705500Y-82009500D01*
X115555324Y-82009500D01*
X115482259Y-82024033D01*
X115477452Y-82026025D01*
X115407983Y-82033494D01*
X115382548Y-82026025D01*
X115377740Y-82024033D01*
X115304676Y-82009500D01*
X115304674Y-82009500D01*
X115155326Y-82009500D01*
X115155324Y-82009500D01*
X115082259Y-82024033D01*
X115077452Y-82026025D01*
X115007983Y-82033494D01*
X114982548Y-82026025D01*
X114977740Y-82024033D01*
X114904676Y-82009500D01*
X114904674Y-82009500D01*
X114755326Y-82009500D01*
X114755324Y-82009500D01*
X114682259Y-82024033D01*
X114677452Y-82026025D01*
X114607983Y-82033494D01*
X114582548Y-82026025D01*
X114577740Y-82024033D01*
X114504676Y-82009500D01*
X114504674Y-82009500D01*
X114407810Y-82009500D01*
X114340771Y-81989815D01*
X114295016Y-81937011D01*
X114285072Y-81867854D01*
X114297933Y-81778400D01*
X114279497Y-81650174D01*
X114269216Y-81627662D01*
X114225682Y-81532337D01*
X114140849Y-81434433D01*
X114031869Y-81364396D01*
X114031865Y-81364394D01*
X114031864Y-81364394D01*
X113907574Y-81327900D01*
X113907572Y-81327900D01*
X113778028Y-81327900D01*
X113778026Y-81327900D01*
X113653735Y-81364394D01*
X113653732Y-81364395D01*
X113653731Y-81364396D01*
X113587530Y-81406941D01*
X113544748Y-81434435D01*
X113530113Y-81451325D01*
X113471335Y-81489100D01*
X113401466Y-81489100D01*
X113342687Y-81451326D01*
X113342687Y-81451325D01*
X113328051Y-81434435D01*
X113328050Y-81434434D01*
X113328049Y-81434433D01*
X113219069Y-81364396D01*
X113219065Y-81364394D01*
X113219064Y-81364394D01*
X113094774Y-81327900D01*
X113094772Y-81327900D01*
X112965228Y-81327900D01*
X112965226Y-81327900D01*
X112840935Y-81364394D01*
X112840932Y-81364395D01*
X112840931Y-81364396D01*
X112814161Y-81381600D01*
X112731950Y-81434433D01*
X112647118Y-81532337D01*
X112647117Y-81532338D01*
X112593302Y-81650174D01*
X112574867Y-81778400D01*
X112587728Y-81867854D01*
X112577784Y-81937012D01*
X112532029Y-81989816D01*
X112464990Y-82009500D01*
X112355323Y-82009500D01*
X112324862Y-82015559D01*
X112255271Y-82009332D01*
X112250586Y-82007377D01*
X112149876Y-81962910D01*
X112124794Y-81960000D01*
X112064768Y-81960000D01*
X111997729Y-81940315D01*
X111951974Y-81887511D01*
X111942030Y-81818353D01*
X111971055Y-81754797D01*
X111997730Y-81731683D01*
X112007249Y-81725567D01*
X112092082Y-81627663D01*
X112145897Y-81509826D01*
X112164333Y-81381600D01*
X112145897Y-81253374D01*
X112137739Y-81235510D01*
X112127796Y-81166351D01*
X112156822Y-81102796D01*
X112215601Y-81065022D01*
X112250534Y-81060000D01*
X112780000Y-81060000D01*
X112780000Y-79460000D01*
X111180000Y-79460000D01*
X111180000Y-80834628D01*
X111194503Y-80907540D01*
X111194505Y-80907544D01*
X111249759Y-80990239D01*
X111271519Y-81004778D01*
X111316325Y-81058390D01*
X111325032Y-81127715D01*
X111315423Y-81159393D01*
X111272502Y-81253375D01*
X111270003Y-81261887D01*
X111268272Y-81261378D01*
X111243733Y-81315098D01*
X111184951Y-81352866D01*
X111115096Y-81352863D01*
X111062772Y-81337500D01*
X110933228Y-81337500D01*
X110933226Y-81337500D01*
X110909598Y-81344437D01*
X110839729Y-81344435D01*
X110780952Y-81306659D01*
X110761873Y-81276970D01*
X110720484Y-81186340D01*
X110720482Y-81186338D01*
X110720482Y-81186337D01*
X110635649Y-81088433D01*
X110635648Y-81088432D01*
X110633051Y-81086763D01*
X110631027Y-81084427D01*
X110628948Y-81082626D01*
X110629207Y-81082327D01*
X110587295Y-81033960D01*
X110577351Y-80964801D01*
X110606375Y-80901245D01*
X110633048Y-80878132D01*
X110737249Y-80811167D01*
X110822082Y-80713263D01*
X110875897Y-80595426D01*
X110894333Y-80467200D01*
X110875897Y-80338974D01*
X110822082Y-80221137D01*
X110737249Y-80123233D01*
X110628269Y-80053196D01*
X110628265Y-80053194D01*
X110628264Y-80053194D01*
X110503974Y-80016700D01*
X110503972Y-80016700D01*
X110374428Y-80016700D01*
X110374422Y-80016700D01*
X110371784Y-80017079D01*
X110369149Y-80016700D01*
X110365560Y-80016700D01*
X110365560Y-80016183D01*
X110302626Y-80007130D01*
X110249826Y-79961371D01*
X110230147Y-79894330D01*
X110230500Y-79887165D01*
X110230500Y-79735323D01*
X110230499Y-79735321D01*
X110215968Y-79662267D01*
X110215966Y-79662264D01*
X110215966Y-79662260D01*
X110215963Y-79662256D01*
X110213977Y-79657461D01*
X110206504Y-79587992D01*
X110213977Y-79562539D01*
X110215962Y-79557745D01*
X110215966Y-79557740D01*
X110230500Y-79484674D01*
X110230500Y-79335326D01*
X110230500Y-79335323D01*
X110230499Y-79335321D01*
X110215968Y-79262267D01*
X110215966Y-79262264D01*
X110215966Y-79262260D01*
X110215963Y-79262256D01*
X110213977Y-79257461D01*
X110206504Y-79187992D01*
X110213977Y-79162539D01*
X110215962Y-79157745D01*
X110215966Y-79157740D01*
X110230500Y-79084674D01*
X110230500Y-78935326D01*
X110230500Y-78935323D01*
X110230499Y-78935321D01*
X110215968Y-78862267D01*
X110215966Y-78862264D01*
X110215966Y-78862260D01*
X110215963Y-78862256D01*
X110213977Y-78857461D01*
X110206504Y-78787992D01*
X110213977Y-78762539D01*
X110215962Y-78757745D01*
X110215966Y-78757740D01*
X110221971Y-78727554D01*
X110225655Y-78709029D01*
X110230500Y-78684674D01*
X110230500Y-78535326D01*
X110230500Y-78535323D01*
X110230499Y-78535321D01*
X110215968Y-78462267D01*
X110215966Y-78462264D01*
X110215966Y-78462260D01*
X110215963Y-78462256D01*
X110213977Y-78457461D01*
X110206504Y-78387992D01*
X110213977Y-78362539D01*
X110215962Y-78357745D01*
X110215966Y-78357740D01*
X110230500Y-78284674D01*
X110230500Y-78135326D01*
X110230500Y-78135323D01*
X110230499Y-78135321D01*
X110215968Y-78062267D01*
X110215966Y-78062264D01*
X110215966Y-78062260D01*
X110215963Y-78062256D01*
X110213977Y-78057461D01*
X110206504Y-77987992D01*
X110213977Y-77962539D01*
X110215962Y-77957745D01*
X110215966Y-77957740D01*
X110230500Y-77884674D01*
X110230500Y-77735326D01*
X110230500Y-77735323D01*
X110230499Y-77735321D01*
X110215968Y-77662267D01*
X110215966Y-77662264D01*
X110215966Y-77662260D01*
X110215963Y-77662256D01*
X110213977Y-77657461D01*
X110206504Y-77587992D01*
X110213977Y-77562539D01*
X110215962Y-77557745D01*
X110215966Y-77557740D01*
X110230500Y-77484674D01*
X110230500Y-77335326D01*
X110230500Y-77335323D01*
X110230499Y-77335321D01*
X110215968Y-77262267D01*
X110215966Y-77262264D01*
X110215966Y-77262260D01*
X110215963Y-77262256D01*
X110213977Y-77257461D01*
X110206504Y-77187992D01*
X110213977Y-77162539D01*
X110215962Y-77157745D01*
X110215966Y-77157740D01*
X110216062Y-77157261D01*
X110230499Y-77084678D01*
X110230500Y-77084676D01*
X110230500Y-76935323D01*
X110230499Y-76935321D01*
X110215968Y-76862267D01*
X110215966Y-76862264D01*
X110215966Y-76862260D01*
X110215963Y-76862256D01*
X110213977Y-76857461D01*
X110206504Y-76787992D01*
X110213977Y-76762539D01*
X110215962Y-76757745D01*
X110215966Y-76757740D01*
X110220903Y-76732923D01*
X110229288Y-76690766D01*
X110230500Y-76684674D01*
X110230500Y-76535326D01*
X110230500Y-76534500D01*
X110250185Y-76467461D01*
X110302989Y-76421706D01*
X110354500Y-76410500D01*
X110504676Y-76410500D01*
X110504677Y-76410499D01*
X110529504Y-76405561D01*
X110577732Y-76395968D01*
X110577733Y-76395967D01*
X110577740Y-76395966D01*
X110577745Y-76395962D01*
X110582539Y-76393977D01*
X110652008Y-76386504D01*
X110677461Y-76393977D01*
X110682256Y-76395963D01*
X110682260Y-76395966D01*
X110682264Y-76395966D01*
X110682267Y-76395968D01*
X110755321Y-76410499D01*
X110755324Y-76410500D01*
X110755326Y-76410500D01*
X110904676Y-76410500D01*
X110904677Y-76410499D01*
X110929504Y-76405561D01*
X110977732Y-76395968D01*
X110977733Y-76395967D01*
X110977740Y-76395966D01*
X110977745Y-76395962D01*
X110982539Y-76393977D01*
X111052008Y-76386504D01*
X111077461Y-76393977D01*
X111082256Y-76395963D01*
X111082260Y-76395966D01*
X111082264Y-76395966D01*
X111082267Y-76395968D01*
X111155321Y-76410499D01*
X111155324Y-76410500D01*
X111155326Y-76410500D01*
X111304676Y-76410500D01*
X111304677Y-76410499D01*
X111329504Y-76405561D01*
X111377732Y-76395968D01*
X111377733Y-76395967D01*
X111377740Y-76395966D01*
X111377745Y-76395962D01*
X111382539Y-76393977D01*
X111452008Y-76386504D01*
X111477461Y-76393977D01*
G37*
G04 #@! TD.AperFunction*
G04 #@! TA.AperFunction,Conductor*
G36*
X117591839Y-69683485D02*
G01*
X117637594Y-69736289D01*
X117648800Y-69787800D01*
X117648800Y-70599138D01*
X117629115Y-70666177D01*
X117591841Y-70703453D01*
X117557950Y-70725233D01*
X117473118Y-70823137D01*
X117473117Y-70823138D01*
X117419302Y-70940974D01*
X117400867Y-71069200D01*
X117419302Y-71197425D01*
X117457090Y-71280167D01*
X117473118Y-71315263D01*
X117557951Y-71413167D01*
X117666931Y-71483204D01*
X117791225Y-71519699D01*
X117791227Y-71519700D01*
X117791228Y-71519700D01*
X117920772Y-71519700D01*
X117935390Y-71515408D01*
X118005260Y-71515408D01*
X118064038Y-71553182D01*
X118093063Y-71616738D01*
X118094325Y-71634591D01*
X118093886Y-71898323D01*
X118074090Y-71965330D01*
X118021210Y-72010997D01*
X117952035Y-72020825D01*
X117895577Y-71997385D01*
X117878787Y-71984816D01*
X117878783Y-71984814D01*
X117750810Y-71937083D01*
X117694228Y-71931000D01*
X117648800Y-71931000D01*
X117648800Y-72757000D01*
X117629115Y-72824039D01*
X117576311Y-72869794D01*
X117524800Y-72881000D01*
X117272800Y-72881000D01*
X117205761Y-72861315D01*
X117160006Y-72808511D01*
X117148800Y-72757000D01*
X117148800Y-71931000D01*
X117103367Y-71931000D01*
X117103358Y-71931001D01*
X117046792Y-71937081D01*
X116918818Y-71984813D01*
X116918815Y-71984815D01*
X116809467Y-72066672D01*
X116755380Y-72138924D01*
X116699447Y-72180795D01*
X116629755Y-72185779D01*
X116568432Y-72152293D01*
X116543733Y-72117020D01*
X116500647Y-72024621D01*
X116419479Y-71943453D01*
X116315445Y-71894941D01*
X116315443Y-71894940D01*
X116315444Y-71894940D01*
X116268040Y-71888700D01*
X115872231Y-71888700D01*
X115805192Y-71869015D01*
X115759437Y-71816211D01*
X115749493Y-71747053D01*
X115778518Y-71683497D01*
X115784517Y-71677053D01*
X115905554Y-71556015D01*
X115966875Y-71522533D01*
X115993233Y-71519699D01*
X116268033Y-71519699D01*
X116268038Y-71519699D01*
X116315445Y-71513459D01*
X116419479Y-71464947D01*
X116500647Y-71383779D01*
X116549159Y-71279745D01*
X116555400Y-71232339D01*
X116555399Y-70906062D01*
X116549159Y-70858655D01*
X116500647Y-70754621D01*
X116419479Y-70673453D01*
X116315445Y-70624941D01*
X116315443Y-70624940D01*
X116315444Y-70624940D01*
X116268039Y-70618700D01*
X115666767Y-70618700D01*
X115651739Y-70620678D01*
X115619355Y-70624941D01*
X115619353Y-70624942D01*
X115619351Y-70624942D01*
X115515320Y-70673453D01*
X115434151Y-70754622D01*
X115430972Y-70759163D01*
X115376394Y-70802786D01*
X115306895Y-70809977D01*
X115244542Y-70778452D01*
X115209130Y-70718221D01*
X115205400Y-70688036D01*
X115205400Y-70180363D01*
X115225085Y-70113324D01*
X115277889Y-70067569D01*
X115347047Y-70057625D01*
X115410603Y-70086650D01*
X115430975Y-70109239D01*
X115434151Y-70113775D01*
X115434153Y-70113779D01*
X115515321Y-70194947D01*
X115619355Y-70243459D01*
X115666761Y-70249700D01*
X116268038Y-70249699D01*
X116315445Y-70243459D01*
X116419479Y-70194947D01*
X116466886Y-70147539D01*
X116528207Y-70114055D01*
X116597899Y-70119039D01*
X116653832Y-70160910D01*
X116677855Y-70221964D01*
X116679880Y-70240804D01*
X116727613Y-70368781D01*
X116727615Y-70368784D01*
X116809470Y-70478129D01*
X116918815Y-70559984D01*
X116918816Y-70559985D01*
X117046791Y-70607717D01*
X117046794Y-70607718D01*
X117103355Y-70613799D01*
X117148799Y-70613799D01*
X117148800Y-70613798D01*
X117148800Y-69787800D01*
X117168485Y-69720761D01*
X117221289Y-69675006D01*
X117272800Y-69663800D01*
X117524800Y-69663800D01*
X117591839Y-69683485D01*
G37*
G04 #@! TD.AperFunction*
G04 #@! TA.AperFunction,Conductor*
G36*
X110003344Y-70993156D02*
G01*
X110045977Y-71048511D01*
X110054400Y-71093430D01*
X110054400Y-71232332D01*
X110054401Y-71232338D01*
X110060641Y-71279745D01*
X110060642Y-71279747D01*
X110060642Y-71279748D01*
X110092099Y-71347206D01*
X110109153Y-71383779D01*
X110190321Y-71464947D01*
X110294355Y-71513459D01*
X110341761Y-71519700D01*
X110616566Y-71519699D01*
X110683605Y-71539383D01*
X110704247Y-71556018D01*
X110711818Y-71563589D01*
X110745303Y-71624912D01*
X110746875Y-71633623D01*
X110764502Y-71756225D01*
X110818317Y-71874061D01*
X110818320Y-71874067D01*
X110837214Y-71895871D01*
X110862112Y-71924605D01*
X110891138Y-71988159D01*
X110892400Y-72005807D01*
X110892400Y-72465200D01*
X110872715Y-72532239D01*
X110819911Y-72577994D01*
X110768400Y-72589200D01*
X110516400Y-72589200D01*
X110449361Y-72569515D01*
X110403606Y-72516711D01*
X110392400Y-72465200D01*
X110392400Y-71839200D01*
X110344318Y-71839200D01*
X110271417Y-71849820D01*
X110158983Y-71904786D01*
X110105880Y-71957889D01*
X110044556Y-71991373D01*
X109974864Y-71986388D01*
X109918931Y-71944517D01*
X109894515Y-71879052D01*
X109894199Y-71870207D01*
X109894199Y-71801765D01*
X109894198Y-71801759D01*
X109888118Y-71745192D01*
X109840386Y-71617218D01*
X109840384Y-71617215D01*
X109758529Y-71507870D01*
X109642084Y-71420700D01*
X109643722Y-71418511D01*
X109604274Y-71379059D01*
X109589426Y-71310786D01*
X109613847Y-71245323D01*
X109639474Y-71219870D01*
X109739930Y-71145730D01*
X109819455Y-71037979D01*
X109819458Y-71037968D01*
X109820764Y-71035500D01*
X109822921Y-71033282D01*
X109824973Y-71030503D01*
X109825353Y-71030783D01*
X109869488Y-70985423D01*
X109937552Y-70969637D01*
X110003344Y-70993156D01*
G37*
G04 #@! TD.AperFunction*
G04 #@! TA.AperFunction,Conductor*
G36*
X110776697Y-62250185D02*
G01*
X110822452Y-62302989D01*
X110832396Y-62372147D01*
X110806246Y-62429406D01*
X110806545Y-62429606D01*
X110805314Y-62431448D01*
X110803371Y-62435703D01*
X110800184Y-62439124D01*
X110744505Y-62522455D01*
X110744503Y-62522458D01*
X110731334Y-62588666D01*
X110698949Y-62650577D01*
X110638233Y-62685151D01*
X110585527Y-62686092D01*
X110504624Y-62670000D01*
X109905000Y-62670000D01*
X109905000Y-63320000D01*
X111606000Y-63320000D01*
X111673039Y-63339685D01*
X111718794Y-63392489D01*
X111730000Y-63444000D01*
X111730000Y-64770000D01*
X112005174Y-64770000D01*
X112072213Y-64789685D01*
X112109463Y-64832674D01*
X112110903Y-64831689D01*
X112117396Y-64841168D01*
X112122289Y-64846061D01*
X112140035Y-64868465D01*
X112143677Y-64874348D01*
X112143679Y-64874350D01*
X112143680Y-64874351D01*
X112143681Y-64874352D01*
X112164996Y-64890448D01*
X112177950Y-64901721D01*
X112404047Y-65127819D01*
X112437532Y-65189142D01*
X112432548Y-65258834D01*
X112390676Y-65314767D01*
X112325212Y-65339184D01*
X112316366Y-65339500D01*
X112142535Y-65339500D01*
X112075496Y-65319815D01*
X112073645Y-65318603D01*
X112052544Y-65304504D01*
X112052545Y-65304504D01*
X111979626Y-65290000D01*
X111955000Y-65290000D01*
X111955000Y-65509084D01*
X111954500Y-65519262D01*
X111954500Y-66331000D01*
X111934815Y-66398039D01*
X111882011Y-66443794D01*
X111830500Y-66455000D01*
X111323362Y-66455000D01*
X111256323Y-66435315D01*
X111235681Y-66418681D01*
X111212000Y-66395000D01*
X109580000Y-66395000D01*
X109580000Y-66944628D01*
X109594503Y-67017540D01*
X109594505Y-67017544D01*
X109649760Y-67100239D01*
X109732455Y-67155494D01*
X109732459Y-67155496D01*
X109805371Y-67169999D01*
X109805374Y-67170000D01*
X110337331Y-67170000D01*
X110404370Y-67189685D01*
X110450125Y-67242489D01*
X110460069Y-67311647D01*
X110450125Y-67345512D01*
X110408902Y-67435774D01*
X110390467Y-67564000D01*
X110408902Y-67692225D01*
X110453681Y-67790275D01*
X110462718Y-67810063D01*
X110514814Y-67870186D01*
X110543838Y-67933738D01*
X110545100Y-67951386D01*
X110545100Y-67954700D01*
X110525415Y-68021739D01*
X110472611Y-68067494D01*
X110421101Y-68078700D01*
X110341767Y-68078700D01*
X110326739Y-68080678D01*
X110294355Y-68084941D01*
X110294353Y-68084942D01*
X110294351Y-68084942D01*
X110190320Y-68133453D01*
X110109153Y-68214620D01*
X110064233Y-68310952D01*
X110018060Y-68363391D01*
X109950867Y-68382543D01*
X109883986Y-68362327D01*
X109838651Y-68309162D01*
X109834810Y-68299502D01*
X109819455Y-68255621D01*
X109819454Y-68255619D01*
X109739930Y-68147869D01*
X109632180Y-68068345D01*
X109632178Y-68068344D01*
X109505781Y-68024115D01*
X109505769Y-68024113D01*
X109475768Y-68021300D01*
X109475764Y-68021300D01*
X108754333Y-68021300D01*
X108687294Y-68001615D01*
X108666652Y-67984981D01*
X108540819Y-67859148D01*
X108507334Y-67797825D01*
X108504500Y-67771467D01*
X108504500Y-66173386D01*
X108524185Y-66106347D01*
X108534778Y-66092194D01*
X108586882Y-66032063D01*
X108640697Y-65914226D01*
X108643461Y-65895000D01*
X109580000Y-65895000D01*
X110292500Y-65895000D01*
X110292500Y-65120000D01*
X110792500Y-65120000D01*
X110792500Y-65895000D01*
X111505000Y-65895000D01*
X111505000Y-65289944D01*
X111489831Y-65271462D01*
X111435239Y-65189760D01*
X111352544Y-65134505D01*
X111352540Y-65134503D01*
X111279627Y-65120000D01*
X110792500Y-65120000D01*
X110292500Y-65120000D01*
X109805373Y-65120000D01*
X109732459Y-65134503D01*
X109732455Y-65134505D01*
X109649760Y-65189760D01*
X109594505Y-65272455D01*
X109594503Y-65272459D01*
X109580000Y-65345371D01*
X109580000Y-65895000D01*
X108643461Y-65895000D01*
X108659133Y-65786000D01*
X108640697Y-65657774D01*
X108586882Y-65539937D01*
X108502049Y-65442033D01*
X108393069Y-65371996D01*
X108393065Y-65371994D01*
X108393064Y-65371994D01*
X108268774Y-65335500D01*
X108268772Y-65335500D01*
X108139228Y-65335500D01*
X108130360Y-65335500D01*
X108130360Y-65333300D01*
X108073280Y-65325090D01*
X108020480Y-65279331D01*
X108000800Y-65212299D01*
X108000800Y-63820000D01*
X108580000Y-63820000D01*
X108580000Y-64244628D01*
X108594503Y-64317540D01*
X108594505Y-64317544D01*
X108649760Y-64400239D01*
X108732455Y-64455494D01*
X108732459Y-64455496D01*
X108805371Y-64469999D01*
X108805374Y-64470000D01*
X109405000Y-64470000D01*
X109405000Y-63820000D01*
X109905000Y-63820000D01*
X109905000Y-64470000D01*
X110504626Y-64470000D01*
X110585525Y-64453908D01*
X110655117Y-64460135D01*
X110710294Y-64502998D01*
X110731334Y-64551334D01*
X110744503Y-64617540D01*
X110744505Y-64617544D01*
X110799760Y-64700239D01*
X110882455Y-64755494D01*
X110882459Y-64755496D01*
X110955371Y-64769999D01*
X110955374Y-64770000D01*
X111230000Y-64770000D01*
X111230000Y-63820000D01*
X109905000Y-63820000D01*
X109405000Y-63820000D01*
X108580000Y-63820000D01*
X108000800Y-63820000D01*
X108000800Y-63320000D01*
X108580000Y-63320000D01*
X109405000Y-63320000D01*
X109405000Y-62670000D01*
X108805373Y-62670000D01*
X108732459Y-62684503D01*
X108732455Y-62684505D01*
X108649760Y-62739760D01*
X108594505Y-62822455D01*
X108594503Y-62822459D01*
X108580000Y-62895371D01*
X108580000Y-63320000D01*
X108000800Y-63320000D01*
X108000800Y-62354500D01*
X108020485Y-62287461D01*
X108073289Y-62241706D01*
X108124800Y-62230500D01*
X110709658Y-62230500D01*
X110776697Y-62250185D01*
G37*
G04 #@! TD.AperFunction*
G04 #@! TA.AperFunction,Conductor*
G36*
X117086806Y-65191785D02*
G01*
X117107448Y-65208419D01*
X117315981Y-65416952D01*
X117349466Y-65478275D01*
X117352300Y-65504633D01*
X117352300Y-66160611D01*
X117332615Y-66227650D01*
X117322014Y-66241812D01*
X117269920Y-66301932D01*
X117269917Y-66301938D01*
X117216102Y-66419774D01*
X117197667Y-66548000D01*
X117216102Y-66676225D01*
X117269917Y-66794061D01*
X117269918Y-66794063D01*
X117354751Y-66891967D01*
X117463731Y-66962004D01*
X117587112Y-66998231D01*
X117588025Y-66998499D01*
X117588027Y-66998500D01*
X117588028Y-66998500D01*
X117717573Y-66998500D01*
X117717573Y-66998499D01*
X117771881Y-66982553D01*
X117841864Y-66962006D01*
X117841865Y-66962005D01*
X117841869Y-66962004D01*
X117910974Y-66917592D01*
X117978012Y-66897909D01*
X118045052Y-66917594D01*
X118090807Y-66970398D01*
X118102012Y-67022116D01*
X118100896Y-67691607D01*
X118081100Y-67758613D01*
X118028219Y-67804280D01*
X117959044Y-67814108D01*
X117910823Y-67794490D01*
X117910715Y-67794703D01*
X117908219Y-67793431D01*
X117904015Y-67791721D01*
X117902024Y-67790275D01*
X117902021Y-67790273D01*
X117902020Y-67790272D01*
X117781926Y-67729081D01*
X117781924Y-67729080D01*
X117781921Y-67729079D01*
X117682293Y-67713300D01*
X117682288Y-67713300D01*
X117365971Y-67713300D01*
X117298932Y-67693615D01*
X117253177Y-67640811D01*
X117243233Y-67571656D01*
X117244333Y-67564003D01*
X117244333Y-67564000D01*
X117225897Y-67435774D01*
X117207338Y-67395136D01*
X117172082Y-67317937D01*
X117087249Y-67220033D01*
X116978269Y-67149996D01*
X116978265Y-67149994D01*
X116978264Y-67149994D01*
X116853974Y-67113500D01*
X116853972Y-67113500D01*
X116724428Y-67113500D01*
X116625669Y-67142497D01*
X116555800Y-67142496D01*
X116497022Y-67104721D01*
X116467998Y-67041165D01*
X116469119Y-66999327D01*
X116480000Y-66944626D01*
X116480000Y-66395000D01*
X115391500Y-66395000D01*
X115324461Y-66375315D01*
X115278706Y-66322511D01*
X115267500Y-66271000D01*
X115267500Y-66019000D01*
X115287185Y-65951961D01*
X115339989Y-65906206D01*
X115391500Y-65895000D01*
X116480000Y-65895000D01*
X116480000Y-65345373D01*
X116479999Y-65345371D01*
X116475011Y-65320291D01*
X116481238Y-65250700D01*
X116524101Y-65195522D01*
X116589991Y-65172278D01*
X116596628Y-65172100D01*
X117019767Y-65172100D01*
X117086806Y-65191785D01*
G37*
G04 #@! TD.AperFunction*
G04 #@! TA.AperFunction,Conductor*
G36*
X118052831Y-62250185D02*
G01*
X118098586Y-62302989D01*
X118109792Y-62354707D01*
X118105293Y-65053170D01*
X118085497Y-65120176D01*
X118032616Y-65165843D01*
X117963441Y-65175671D01*
X117899934Y-65146540D01*
X117886769Y-65131059D01*
X117886461Y-65131340D01*
X117878720Y-65122849D01*
X117875180Y-65120176D01*
X117857406Y-65106753D01*
X117844452Y-65095480D01*
X117455562Y-64706591D01*
X117444287Y-64693635D01*
X117439555Y-64687368D01*
X117405283Y-64656125D01*
X117401160Y-64652189D01*
X117388397Y-64639426D01*
X117388396Y-64639425D01*
X117388394Y-64639423D01*
X117384687Y-64636345D01*
X117376279Y-64629685D01*
X117372418Y-64626165D01*
X117362479Y-64617104D01*
X117326198Y-64557395D01*
X117327957Y-64487547D01*
X117367200Y-64429739D01*
X117377128Y-64422364D01*
X117410239Y-64400240D01*
X117465494Y-64317544D01*
X117465496Y-64317540D01*
X117479999Y-64244628D01*
X117480000Y-64244626D01*
X117480000Y-63820000D01*
X114430000Y-63820000D01*
X114430000Y-64763666D01*
X114410315Y-64830705D01*
X114393681Y-64851347D01*
X114164986Y-65080041D01*
X114152035Y-65091312D01*
X114145767Y-65096044D01*
X114114522Y-65130318D01*
X114110574Y-65134453D01*
X114097827Y-65147200D01*
X114094746Y-65150911D01*
X114088085Y-65159319D01*
X114062344Y-65187557D01*
X114059681Y-65185130D01*
X114022565Y-65218379D01*
X113953580Y-65229462D01*
X113894475Y-65205405D01*
X113884604Y-65197951D01*
X113871648Y-65186677D01*
X113666652Y-64981681D01*
X113633167Y-64920358D01*
X113638151Y-64850666D01*
X113680023Y-64794733D01*
X113745487Y-64770316D01*
X113754333Y-64770000D01*
X113930000Y-64770000D01*
X113930000Y-63444000D01*
X113949685Y-63376961D01*
X114002489Y-63331206D01*
X114054000Y-63320000D01*
X116155000Y-63320000D01*
X116155000Y-62670000D01*
X116655000Y-62670000D01*
X116655000Y-63320000D01*
X117480000Y-63320000D01*
X117480000Y-62895373D01*
X117479999Y-62895371D01*
X117465496Y-62822459D01*
X117465494Y-62822455D01*
X117410239Y-62739760D01*
X117327544Y-62684505D01*
X117327540Y-62684503D01*
X117254627Y-62670000D01*
X116655000Y-62670000D01*
X116155000Y-62670000D01*
X115555376Y-62670000D01*
X115474472Y-62686092D01*
X115404880Y-62679863D01*
X115349704Y-62637000D01*
X115328664Y-62588664D01*
X115315494Y-62522455D01*
X115253455Y-62429606D01*
X115255169Y-62428460D01*
X115229176Y-62380858D01*
X115234160Y-62311166D01*
X115276032Y-62255233D01*
X115341496Y-62230816D01*
X115350342Y-62230500D01*
X117985792Y-62230500D01*
X118052831Y-62250185D01*
G37*
G04 #@! TD.AperFunction*
M02*
