G04 #@! TF.GenerationSoftware,KiCad,Pcbnew,7.0.10*
G04 #@! TF.CreationDate,2024-06-11T13:44:31+02:00*
G04 #@! TF.ProjectId,RP2040,52503230-3430-42e6-9b69-6361645f7063,rev?*
G04 #@! TF.SameCoordinates,Original*
G04 #@! TF.FileFunction,Paste,Top*
G04 #@! TF.FilePolarity,Positive*
%FSLAX46Y46*%
G04 Gerber Fmt 4.6, Leading zero omitted, Abs format (unit mm)*
G04 Created by KiCad (PCBNEW 7.0.10) date 2024-06-11 13:44:31*
%MOMM*%
%LPD*%
G01*
G04 APERTURE LIST*
G04 Aperture macros list*
%AMRoundRect*
0 Rectangle with rounded corners*
0 $1 Rounding radius*
0 $2 $3 $4 $5 $6 $7 $8 $9 X,Y pos of 4 corners*
0 Add a 4 corners polygon primitive as box body*
4,1,4,$2,$3,$4,$5,$6,$7,$8,$9,$2,$3,0*
0 Add four circle primitives for the rounded corners*
1,1,$1+$1,$2,$3*
1,1,$1+$1,$4,$5*
1,1,$1+$1,$6,$7*
1,1,$1+$1,$8,$9*
0 Add four rect primitives between the rounded corners*
20,1,$1+$1,$2,$3,$4,$5,0*
20,1,$1+$1,$4,$5,$6,$7,0*
20,1,$1+$1,$6,$7,$8,$9,0*
20,1,$1+$1,$8,$9,$2,$3,0*%
G04 Aperture macros list end*
%ADD10R,0.450000X1.380000*%
%ADD11R,1.650000X1.300000*%
%ADD12R,1.425000X1.550000*%
%ADD13R,1.800000X1.900000*%
%ADD14R,1.000000X1.900000*%
%ADD15RoundRect,0.243750X-0.456250X0.243750X-0.456250X-0.243750X0.456250X-0.243750X0.456250X0.243750X0*%
%ADD16RoundRect,0.249999X-0.395001X-0.395001X0.395001X-0.395001X0.395001X0.395001X-0.395001X0.395001X0*%
%ADD17RoundRect,0.050000X-0.387500X-0.050000X0.387500X-0.050000X0.387500X0.050000X-0.387500X0.050000X0*%
%ADD18RoundRect,0.050000X-0.050000X-0.387500X0.050000X-0.387500X0.050000X0.387500X-0.050000X0.387500X0*%
%ADD19RoundRect,0.225000X0.250000X-0.225000X0.250000X0.225000X-0.250000X0.225000X-0.250000X-0.225000X0*%
%ADD20RoundRect,0.225000X-0.250000X0.225000X-0.250000X-0.225000X0.250000X-0.225000X0.250000X0.225000X0*%
%ADD21R,1.000000X1.450000*%
%ADD22RoundRect,0.250000X-0.435000X-0.555000X0.435000X-0.555000X0.435000X0.555000X-0.435000X0.555000X0*%
%ADD23RoundRect,0.125000X-0.262500X-0.125000X0.262500X-0.125000X0.262500X0.125000X-0.262500X0.125000X0*%
G04 APERTURE END LIST*
D10*
X114330000Y-66230000D03*
X113680000Y-66230000D03*
X113030000Y-66230000D03*
X112380000Y-66230000D03*
X111730000Y-66230000D03*
D11*
X116405000Y-63570000D03*
D12*
X115517500Y-66145000D03*
D13*
X114180000Y-63570000D03*
D14*
X111480000Y-63570000D03*
D12*
X110542500Y-66145000D03*
D11*
X109655000Y-63570000D03*
D15*
X108966000Y-68709300D03*
X108966000Y-70584300D03*
D16*
X112230000Y-78410000D03*
X112230000Y-80010000D03*
X113830000Y-78410000D03*
X113830000Y-80010000D03*
D17*
X109592500Y-76610000D03*
X109592500Y-77010000D03*
X109592500Y-77410000D03*
X109592500Y-77810000D03*
X109592500Y-78210000D03*
X109592500Y-78610000D03*
X109592500Y-79010000D03*
X109592500Y-79410000D03*
X109592500Y-79810000D03*
X109592500Y-80210000D03*
X109592500Y-80610000D03*
X109592500Y-81010000D03*
X109592500Y-81410000D03*
X109592500Y-81810000D03*
D18*
X110430000Y-82647500D03*
X110830000Y-82647500D03*
X111230000Y-82647500D03*
X111630000Y-82647500D03*
X112030000Y-82647500D03*
X112430000Y-82647500D03*
X112830000Y-82647500D03*
X113230000Y-82647500D03*
X113630000Y-82647500D03*
X114030000Y-82647500D03*
X114430000Y-82647500D03*
X114830000Y-82647500D03*
X115230000Y-82647500D03*
X115630000Y-82647500D03*
D17*
X116467500Y-81810000D03*
X116467500Y-81410000D03*
X116467500Y-81010000D03*
X116467500Y-80610000D03*
X116467500Y-80210000D03*
X116467500Y-79810000D03*
X116467500Y-79410000D03*
X116467500Y-79010000D03*
X116467500Y-78610000D03*
X116467500Y-78210000D03*
X116467500Y-77810000D03*
X116467500Y-77410000D03*
X116467500Y-77010000D03*
X116467500Y-76610000D03*
D18*
X115630000Y-75772500D03*
X115230000Y-75772500D03*
X114830000Y-75772500D03*
X114430000Y-75772500D03*
X114030000Y-75772500D03*
X113630000Y-75772500D03*
X113230000Y-75772500D03*
X112830000Y-75772500D03*
X112430000Y-75772500D03*
X112030000Y-75772500D03*
X111630000Y-75772500D03*
X111230000Y-75772500D03*
X110830000Y-75772500D03*
X110430000Y-75772500D03*
D19*
X117398800Y-74181000D03*
X117398800Y-72631000D03*
D20*
X117398800Y-68363800D03*
X117398800Y-69913800D03*
D21*
X114466000Y-89951000D03*
X114466000Y-84801000D03*
X116166000Y-89951000D03*
X116166000Y-84801000D03*
D19*
X109169200Y-73622200D03*
X109169200Y-72072200D03*
D21*
X111594000Y-84801000D03*
X111594000Y-89951000D03*
X109894000Y-84801000D03*
X109894000Y-89951000D03*
D22*
X112454900Y-69434200D03*
X112454900Y-71434200D03*
X114154900Y-69434200D03*
X114154900Y-71434200D03*
D23*
X110642400Y-68529200D03*
X110642400Y-69799200D03*
X110642400Y-71069200D03*
X110642400Y-72339200D03*
X115967400Y-72339200D03*
X115967400Y-71069200D03*
X115967400Y-69799200D03*
X115967400Y-68529200D03*
M02*
