M48
; DRILL file {KiCad 7.0.10} date Tue Jun 11 13:44:36 2024
; FORMAT={-:-/ absolute / metric / decimal}
; #@! TF.CreationDate,2024-06-11T13:44:36+02:00
; #@! TF.GenerationSoftware,Kicad,Pcbnew,7.0.10
; #@! TF.FileFunction,Plated,1,4,PTH
FMAT,2
METRIC
; #@! TA.AperFunction,Plated,PTH,ViaDrill
T1C0.250
; #@! TA.AperFunction,Plated,PTH,ComponentDrill
T2C1.000
%
G90
G05
T1
X107.594Y-67.361
X108.204Y-65.786
X108.509Y-89.967
X108.712Y-69.647
X108.712Y-80.315
X108.712Y-81.077
X108.712Y-81.839
X109.372Y-83.617
X109.423Y-82.855
X109.728Y-72.847
X109.83Y-74.828
X110.033Y-71.679
X110.338Y-81.432
X110.439Y-80.467
X110.49Y-76.759
X110.642Y-62.687
X110.642Y-73.152
X110.693Y-88.849
X110.744Y-83.871
X110.846Y-67.564
X110.998Y-79.146
X110.998Y-80.975
X110.998Y-81.788
X111.1Y-69.139
X111.201Y-70.358
X111.201Y-71.628
X111.404Y-73.152
X111.709Y-67.462
X111.709Y-81.382
X111.963Y-83.617
X112.116Y-76.911
X112.166Y-73.152
X112.37Y-88.036
X112.42Y-63.957
X112.471Y-81.178
X112.827Y-63.297
X112.928Y-73.152
X113.03Y-81.778
X113.436Y-76.911
X113.64Y-83.617
X113.69Y-72.847
X113.741Y-67.361
X113.843Y-73.914
X113.843Y-81.778
X114.554Y-74.524
X114.96Y-76.86
X115.113Y-72.847
X115.164Y-73.66
X115.214Y-88.798
X115.265Y-67.412
X115.367Y-62.738
X115.468Y-80.569
X115.621Y-77.267
X115.672Y-69.19
X115.685Y-74.181
X116.23Y-74.981
X116.789Y-67.564
X116.789Y-71.476
X116.84Y-75.794
X116.942Y-87.478
X117.196Y-76.505
X117.297Y-77.47
X117.297Y-78.384
X117.348Y-81.89
X117.399Y-82.753
X117.551Y-87.986
X117.602Y-89.967
X117.653Y-66.548
X117.856Y-71.069
X118.821Y-80.061
X118.923Y-77.47
T2
X106.68Y-63.5
X106.68Y-66.04
X106.68Y-68.58
X106.68Y-71.12
X106.68Y-73.66
X106.68Y-76.2
X106.68Y-78.74
X106.68Y-81.28
X106.68Y-83.82
X106.68Y-86.36
X106.68Y-88.9
X106.68Y-91.44
X119.38Y-63.5
X119.38Y-66.04
X119.38Y-68.58
X119.38Y-71.12
X119.38Y-73.66
X119.38Y-76.2
X119.38Y-78.74
X119.38Y-81.28
X119.38Y-83.82
X119.38Y-86.36
X119.38Y-88.9
X119.38Y-91.44
M30
