%TF.GenerationSoftware,KiCad,Pcbnew,7.0.10*%
%TF.CreationDate,2024-06-11T13:44:37+02:00*%
%TF.ProjectId,RP2040,52503230-3430-42e6-9b69-6361645f7063,rev?*%
%TF.SameCoordinates,Original*%
%TF.FileFunction,Drillmap*%
%TF.FilePolarity,Positive*%
%FSLAX45Y45*%
G04 Gerber Fmt 4.5, Leading zero omitted, Abs format (unit mm)*
G04 Created by KiCad (PCBNEW 7.0.10) date 2024-06-11 13:44:37*
%MOMM*%
%LPD*%
G01*
G04 APERTURE LIST*
%ADD10C,0.100000*%
%ADD11C,0.200000*%
G04 APERTURE END LIST*
D10*
X10541000Y-6223000D02*
X12065000Y-6223000D01*
X12065000Y-9271000D01*
X10541000Y-9271000D01*
X10541000Y-6223000D01*
D11*
D10*
X10746940Y-6723580D02*
X10771940Y-6748580D01*
X10771940Y-6723580D02*
X10746940Y-6748580D01*
X10807900Y-6566100D02*
X10832900Y-6591100D01*
X10832900Y-6566100D02*
X10807900Y-6591100D01*
X10838380Y-8984180D02*
X10863380Y-9009180D01*
X10863380Y-8984180D02*
X10838380Y-9009180D01*
X10858700Y-6952180D02*
X10883700Y-6977180D01*
X10883700Y-6952180D02*
X10858700Y-6977180D01*
X10858700Y-8018980D02*
X10883700Y-8043980D01*
X10883700Y-8018980D02*
X10858700Y-8043980D01*
X10858700Y-8095180D02*
X10883700Y-8120180D01*
X10883700Y-8095180D02*
X10858700Y-8120180D01*
X10858700Y-8171380D02*
X10883700Y-8196380D01*
X10883700Y-8171380D02*
X10858700Y-8196380D01*
X10924740Y-8349180D02*
X10949740Y-8374180D01*
X10949740Y-8349180D02*
X10924740Y-8374180D01*
X10929820Y-8272980D02*
X10954820Y-8297980D01*
X10954820Y-8272980D02*
X10929820Y-8297980D01*
X10960300Y-7272220D02*
X10985300Y-7297220D01*
X10985300Y-7272220D02*
X10960300Y-7297220D01*
X10970460Y-7470340D02*
X10995460Y-7495340D01*
X10995460Y-7470340D02*
X10970460Y-7495340D01*
X10990780Y-7155380D02*
X11015780Y-7180380D01*
X11015780Y-7155380D02*
X10990780Y-7180380D01*
X11021260Y-8130740D02*
X11046260Y-8155740D01*
X11046260Y-8130740D02*
X11021260Y-8155740D01*
X11031420Y-8034220D02*
X11056420Y-8059220D01*
X11056420Y-8034220D02*
X11031420Y-8059220D01*
X11036500Y-7663380D02*
X11061500Y-7688380D01*
X11061500Y-7663380D02*
X11036500Y-7688380D01*
X11051740Y-6256220D02*
X11076740Y-6281220D01*
X11076740Y-6256220D02*
X11051740Y-6281220D01*
X11051740Y-7302700D02*
X11076740Y-7327700D01*
X11076740Y-7302700D02*
X11051740Y-7327700D01*
X11056820Y-8872420D02*
X11081820Y-8897420D01*
X11081820Y-8872420D02*
X11056820Y-8897420D01*
X11061900Y-8374580D02*
X11086900Y-8399580D01*
X11086900Y-8374580D02*
X11061900Y-8399580D01*
X11072060Y-6743900D02*
X11097060Y-6768900D01*
X11097060Y-6743900D02*
X11072060Y-6768900D01*
X11087300Y-7902140D02*
X11112300Y-7927140D01*
X11112300Y-7902140D02*
X11087300Y-7927140D01*
X11087300Y-8085020D02*
X11112300Y-8110020D01*
X11112300Y-8085020D02*
X11087300Y-8110020D01*
X11087300Y-8166300D02*
X11112300Y-8191300D01*
X11112300Y-8166300D02*
X11087300Y-8191300D01*
X11097460Y-6901380D02*
X11122460Y-6926380D01*
X11122460Y-6901380D02*
X11097460Y-6926380D01*
X11107620Y-7023300D02*
X11132620Y-7048300D01*
X11132620Y-7023300D02*
X11107620Y-7048300D01*
X11107620Y-7150300D02*
X11132620Y-7175300D01*
X11132620Y-7150300D02*
X11107620Y-7175300D01*
X11127940Y-7302700D02*
X11152940Y-7327700D01*
X11152940Y-7302700D02*
X11127940Y-7327700D01*
X11158420Y-6733740D02*
X11183420Y-6758740D01*
X11183420Y-6733740D02*
X11158420Y-6758740D01*
X11158420Y-8125660D02*
X11183420Y-8150660D01*
X11183420Y-8125660D02*
X11158420Y-8150660D01*
X11183820Y-8349180D02*
X11208820Y-8374180D01*
X11208820Y-8349180D02*
X11183820Y-8374180D01*
X11199060Y-7678620D02*
X11224060Y-7703620D01*
X11224060Y-7678620D02*
X11199060Y-7703620D01*
X11204140Y-7302700D02*
X11229140Y-7327700D01*
X11229140Y-7302700D02*
X11204140Y-7327700D01*
X11224460Y-8791140D02*
X11249460Y-8816140D01*
X11249460Y-8791140D02*
X11224460Y-8816140D01*
X11229540Y-6383220D02*
X11254540Y-6408220D01*
X11254540Y-6383220D02*
X11229540Y-6408220D01*
X11234620Y-8105340D02*
X11259620Y-8130340D01*
X11259620Y-8105340D02*
X11234620Y-8130340D01*
X11270180Y-6317180D02*
X11295180Y-6342180D01*
X11295180Y-6317180D02*
X11270180Y-6342180D01*
X11280340Y-7302700D02*
X11305340Y-7327700D01*
X11305340Y-7302700D02*
X11280340Y-7327700D01*
X11290500Y-8165340D02*
X11315500Y-8190340D01*
X11315500Y-8165340D02*
X11290500Y-8190340D01*
X11331140Y-7678620D02*
X11356140Y-7703620D01*
X11356140Y-7678620D02*
X11331140Y-7703620D01*
X11351460Y-8349180D02*
X11376460Y-8374180D01*
X11376460Y-8349180D02*
X11351460Y-8374180D01*
X11356540Y-7272220D02*
X11381540Y-7297220D01*
X11381540Y-7272220D02*
X11356540Y-7297220D01*
X11361620Y-6723580D02*
X11386620Y-6748580D01*
X11386620Y-6723580D02*
X11361620Y-6748580D01*
X11371780Y-7378900D02*
X11396780Y-7403900D01*
X11396780Y-7378900D02*
X11371780Y-7403900D01*
X11371780Y-8165340D02*
X11396780Y-8190340D01*
X11396780Y-8165340D02*
X11371780Y-8190340D01*
X11442900Y-7439860D02*
X11467900Y-7464860D01*
X11467900Y-7439860D02*
X11442900Y-7464860D01*
X11483540Y-7673540D02*
X11508540Y-7698540D01*
X11508540Y-7673540D02*
X11483540Y-7698540D01*
X11498780Y-7272220D02*
X11523780Y-7297220D01*
X11523780Y-7272220D02*
X11498780Y-7297220D01*
X11503860Y-7353500D02*
X11528860Y-7378500D01*
X11528860Y-7353500D02*
X11503860Y-7378500D01*
X11508940Y-8867340D02*
X11533940Y-8892340D01*
X11533940Y-8867340D02*
X11508940Y-8892340D01*
X11514020Y-6728660D02*
X11539020Y-6753660D01*
X11539020Y-6728660D02*
X11514020Y-6753660D01*
X11524180Y-6261300D02*
X11549180Y-6286300D01*
X11549180Y-6261300D02*
X11524180Y-6286300D01*
X11534340Y-8044380D02*
X11559340Y-8069380D01*
X11559340Y-8044380D02*
X11534340Y-8069380D01*
X11549580Y-7714180D02*
X11574580Y-7739180D01*
X11574580Y-7714180D02*
X11549580Y-7739180D01*
X11554660Y-6906460D02*
X11579660Y-6931460D01*
X11579660Y-6906460D02*
X11554660Y-6931460D01*
X11555960Y-7405600D02*
X11580960Y-7430600D01*
X11580960Y-7405600D02*
X11555960Y-7430600D01*
X11610540Y-7485580D02*
X11635540Y-7510580D01*
X11635540Y-7485580D02*
X11610540Y-7510580D01*
X11666420Y-6743900D02*
X11691420Y-6768900D01*
X11691420Y-6743900D02*
X11666420Y-6768900D01*
X11666420Y-7135060D02*
X11691420Y-7160060D01*
X11691420Y-7135060D02*
X11666420Y-7160060D01*
X11671500Y-7566860D02*
X11696500Y-7591860D01*
X11696500Y-7566860D02*
X11671500Y-7591860D01*
X11681660Y-8735260D02*
X11706660Y-8760260D01*
X11706660Y-8735260D02*
X11681660Y-8760260D01*
X11707060Y-7637980D02*
X11732060Y-7662980D01*
X11732060Y-7637980D02*
X11707060Y-7662980D01*
X11717220Y-7734500D02*
X11742220Y-7759500D01*
X11742220Y-7734500D02*
X11717220Y-7759500D01*
X11717220Y-7825859D02*
X11742220Y-7850859D01*
X11742220Y-7825859D02*
X11717220Y-7850859D01*
X11722300Y-8176460D02*
X11747300Y-8201460D01*
X11747300Y-8176460D02*
X11722300Y-8201460D01*
X11727380Y-8262820D02*
X11752380Y-8287820D01*
X11752380Y-8262820D02*
X11727380Y-8287820D01*
X11742620Y-8786060D02*
X11767620Y-8811060D01*
X11767620Y-8786060D02*
X11742620Y-8811060D01*
X11747700Y-8984180D02*
X11772700Y-9009180D01*
X11772700Y-8984180D02*
X11747700Y-9009180D01*
X11752780Y-6642300D02*
X11777780Y-6667300D01*
X11777780Y-6642300D02*
X11752780Y-6667300D01*
X11773100Y-7094420D02*
X11798100Y-7119420D01*
X11798100Y-7094420D02*
X11773100Y-7119420D01*
X11869620Y-7993580D02*
X11894620Y-8018580D01*
X11894620Y-7993580D02*
X11869620Y-8018580D01*
X11879780Y-7734500D02*
X11904780Y-7759500D01*
X11904780Y-7734500D02*
X11879780Y-7759500D01*
X10718000Y-6350000D02*
G75*
G03*
X10618000Y-6350000I-50000J0D01*
G01*
X10618000Y-6350000D02*
G75*
G03*
X10718000Y-6350000I50000J0D01*
G01*
X10718000Y-6604000D02*
G75*
G03*
X10618000Y-6604000I-50000J0D01*
G01*
X10618000Y-6604000D02*
G75*
G03*
X10718000Y-6604000I50000J0D01*
G01*
X10718000Y-6858000D02*
G75*
G03*
X10618000Y-6858000I-50000J0D01*
G01*
X10618000Y-6858000D02*
G75*
G03*
X10718000Y-6858000I50000J0D01*
G01*
X10718000Y-7112000D02*
G75*
G03*
X10618000Y-7112000I-50000J0D01*
G01*
X10618000Y-7112000D02*
G75*
G03*
X10718000Y-7112000I50000J0D01*
G01*
X10718000Y-7366000D02*
G75*
G03*
X10618000Y-7366000I-50000J0D01*
G01*
X10618000Y-7366000D02*
G75*
G03*
X10718000Y-7366000I50000J0D01*
G01*
X10718000Y-7620000D02*
G75*
G03*
X10618000Y-7620000I-50000J0D01*
G01*
X10618000Y-7620000D02*
G75*
G03*
X10718000Y-7620000I50000J0D01*
G01*
X10718000Y-7874000D02*
G75*
G03*
X10618000Y-7874000I-50000J0D01*
G01*
X10618000Y-7874000D02*
G75*
G03*
X10718000Y-7874000I50000J0D01*
G01*
X10718000Y-8128000D02*
G75*
G03*
X10618000Y-8128000I-50000J0D01*
G01*
X10618000Y-8128000D02*
G75*
G03*
X10718000Y-8128000I50000J0D01*
G01*
X10718000Y-8382000D02*
G75*
G03*
X10618000Y-8382000I-50000J0D01*
G01*
X10618000Y-8382000D02*
G75*
G03*
X10718000Y-8382000I50000J0D01*
G01*
X10718000Y-8636000D02*
G75*
G03*
X10618000Y-8636000I-50000J0D01*
G01*
X10618000Y-8636000D02*
G75*
G03*
X10718000Y-8636000I50000J0D01*
G01*
X10718000Y-8890000D02*
G75*
G03*
X10618000Y-8890000I-50000J0D01*
G01*
X10618000Y-8890000D02*
G75*
G03*
X10718000Y-8890000I50000J0D01*
G01*
X10718000Y-9144000D02*
G75*
G03*
X10618000Y-9144000I-50000J0D01*
G01*
X10618000Y-9144000D02*
G75*
G03*
X10718000Y-9144000I50000J0D01*
G01*
X11988000Y-6350000D02*
G75*
G03*
X11888000Y-6350000I-50000J0D01*
G01*
X11888000Y-6350000D02*
G75*
G03*
X11988000Y-6350000I50000J0D01*
G01*
X11988000Y-6604000D02*
G75*
G03*
X11888000Y-6604000I-50000J0D01*
G01*
X11888000Y-6604000D02*
G75*
G03*
X11988000Y-6604000I50000J0D01*
G01*
X11988000Y-6858000D02*
G75*
G03*
X11888000Y-6858000I-50000J0D01*
G01*
X11888000Y-6858000D02*
G75*
G03*
X11988000Y-6858000I50000J0D01*
G01*
X11988000Y-7112000D02*
G75*
G03*
X11888000Y-7112000I-50000J0D01*
G01*
X11888000Y-7112000D02*
G75*
G03*
X11988000Y-7112000I50000J0D01*
G01*
X11988000Y-7366000D02*
G75*
G03*
X11888000Y-7366000I-50000J0D01*
G01*
X11888000Y-7366000D02*
G75*
G03*
X11988000Y-7366000I50000J0D01*
G01*
X11988000Y-7620000D02*
G75*
G03*
X11888000Y-7620000I-50000J0D01*
G01*
X11888000Y-7620000D02*
G75*
G03*
X11988000Y-7620000I50000J0D01*
G01*
X11988000Y-7874000D02*
G75*
G03*
X11888000Y-7874000I-50000J0D01*
G01*
X11888000Y-7874000D02*
G75*
G03*
X11988000Y-7874000I50000J0D01*
G01*
X11988000Y-8128000D02*
G75*
G03*
X11888000Y-8128000I-50000J0D01*
G01*
X11888000Y-8128000D02*
G75*
G03*
X11988000Y-8128000I50000J0D01*
G01*
X11988000Y-8382000D02*
G75*
G03*
X11888000Y-8382000I-50000J0D01*
G01*
X11888000Y-8382000D02*
G75*
G03*
X11988000Y-8382000I50000J0D01*
G01*
X11988000Y-8636000D02*
G75*
G03*
X11888000Y-8636000I-50000J0D01*
G01*
X11888000Y-8636000D02*
G75*
G03*
X11988000Y-8636000I50000J0D01*
G01*
X11988000Y-8890000D02*
G75*
G03*
X11888000Y-8890000I-50000J0D01*
G01*
X11888000Y-8890000D02*
G75*
G03*
X11988000Y-8890000I50000J0D01*
G01*
X11988000Y-9144000D02*
G75*
G03*
X11888000Y-9144000I-50000J0D01*
G01*
X11888000Y-9144000D02*
G75*
G03*
X11988000Y-9144000I50000J0D01*
G01*
D11*
X10796777Y-9587484D02*
X10796777Y-9387484D01*
X10796777Y-9387484D02*
X10844396Y-9387484D01*
X10844396Y-9387484D02*
X10872967Y-9397008D01*
X10872967Y-9397008D02*
X10892015Y-9416055D01*
X10892015Y-9416055D02*
X10901539Y-9435103D01*
X10901539Y-9435103D02*
X10911063Y-9473198D01*
X10911063Y-9473198D02*
X10911063Y-9501770D01*
X10911063Y-9501770D02*
X10901539Y-9539865D01*
X10901539Y-9539865D02*
X10892015Y-9558912D01*
X10892015Y-9558912D02*
X10872967Y-9577960D01*
X10872967Y-9577960D02*
X10844396Y-9587484D01*
X10844396Y-9587484D02*
X10796777Y-9587484D01*
X10996777Y-9587484D02*
X10996777Y-9454150D01*
X10996777Y-9492246D02*
X11006301Y-9473198D01*
X11006301Y-9473198D02*
X11015824Y-9463674D01*
X11015824Y-9463674D02*
X11034872Y-9454150D01*
X11034872Y-9454150D02*
X11053920Y-9454150D01*
X11120586Y-9587484D02*
X11120586Y-9454150D01*
X11120586Y-9387484D02*
X11111063Y-9397008D01*
X11111063Y-9397008D02*
X11120586Y-9406531D01*
X11120586Y-9406531D02*
X11130110Y-9397008D01*
X11130110Y-9397008D02*
X11120586Y-9387484D01*
X11120586Y-9387484D02*
X11120586Y-9406531D01*
X11244396Y-9587484D02*
X11225348Y-9577960D01*
X11225348Y-9577960D02*
X11215824Y-9558912D01*
X11215824Y-9558912D02*
X11215824Y-9387484D01*
X11349158Y-9587484D02*
X11330110Y-9577960D01*
X11330110Y-9577960D02*
X11320586Y-9558912D01*
X11320586Y-9558912D02*
X11320586Y-9387484D01*
X11577729Y-9587484D02*
X11577729Y-9387484D01*
X11577729Y-9387484D02*
X11644396Y-9530341D01*
X11644396Y-9530341D02*
X11711062Y-9387484D01*
X11711062Y-9387484D02*
X11711062Y-9587484D01*
X11892015Y-9587484D02*
X11892015Y-9482722D01*
X11892015Y-9482722D02*
X11882491Y-9463674D01*
X11882491Y-9463674D02*
X11863443Y-9454150D01*
X11863443Y-9454150D02*
X11825348Y-9454150D01*
X11825348Y-9454150D02*
X11806301Y-9463674D01*
X11892015Y-9577960D02*
X11872967Y-9587484D01*
X11872967Y-9587484D02*
X11825348Y-9587484D01*
X11825348Y-9587484D02*
X11806301Y-9577960D01*
X11806301Y-9577960D02*
X11796777Y-9558912D01*
X11796777Y-9558912D02*
X11796777Y-9539865D01*
X11796777Y-9539865D02*
X11806301Y-9520817D01*
X11806301Y-9520817D02*
X11825348Y-9511293D01*
X11825348Y-9511293D02*
X11872967Y-9511293D01*
X11872967Y-9511293D02*
X11892015Y-9501770D01*
X11987253Y-9454150D02*
X11987253Y-9654150D01*
X11987253Y-9463674D02*
X12006301Y-9454150D01*
X12006301Y-9454150D02*
X12044396Y-9454150D01*
X12044396Y-9454150D02*
X12063443Y-9463674D01*
X12063443Y-9463674D02*
X12072967Y-9473198D01*
X12072967Y-9473198D02*
X12082491Y-9492246D01*
X12082491Y-9492246D02*
X12082491Y-9549389D01*
X12082491Y-9549389D02*
X12072967Y-9568436D01*
X12072967Y-9568436D02*
X12063443Y-9577960D01*
X12063443Y-9577960D02*
X12044396Y-9587484D01*
X12044396Y-9587484D02*
X12006301Y-9587484D01*
X12006301Y-9587484D02*
X11987253Y-9577960D01*
X12168205Y-9568436D02*
X12177729Y-9577960D01*
X12177729Y-9577960D02*
X12168205Y-9587484D01*
X12168205Y-9587484D02*
X12158682Y-9577960D01*
X12158682Y-9577960D02*
X12168205Y-9568436D01*
X12168205Y-9568436D02*
X12168205Y-9587484D01*
X12168205Y-9463674D02*
X12177729Y-9473198D01*
X12177729Y-9473198D02*
X12168205Y-9482722D01*
X12168205Y-9482722D02*
X12158682Y-9473198D01*
X12158682Y-9473198D02*
X12168205Y-9463674D01*
X12168205Y-9463674D02*
X12168205Y-9482722D01*
D10*
X10511000Y-9903500D02*
X10536000Y-9928500D01*
X10536000Y-9903500D02*
X10511000Y-9928500D01*
D11*
X10834872Y-9807484D02*
X10853920Y-9807484D01*
X10853920Y-9807484D02*
X10872967Y-9817008D01*
X10872967Y-9817008D02*
X10882491Y-9826531D01*
X10882491Y-9826531D02*
X10892015Y-9845579D01*
X10892015Y-9845579D02*
X10901539Y-9883674D01*
X10901539Y-9883674D02*
X10901539Y-9931293D01*
X10901539Y-9931293D02*
X10892015Y-9969389D01*
X10892015Y-9969389D02*
X10882491Y-9988436D01*
X10882491Y-9988436D02*
X10872967Y-9997960D01*
X10872967Y-9997960D02*
X10853920Y-10007484D01*
X10853920Y-10007484D02*
X10834872Y-10007484D01*
X10834872Y-10007484D02*
X10815824Y-9997960D01*
X10815824Y-9997960D02*
X10806301Y-9988436D01*
X10806301Y-9988436D02*
X10796777Y-9969389D01*
X10796777Y-9969389D02*
X10787253Y-9931293D01*
X10787253Y-9931293D02*
X10787253Y-9883674D01*
X10787253Y-9883674D02*
X10796777Y-9845579D01*
X10796777Y-9845579D02*
X10806301Y-9826531D01*
X10806301Y-9826531D02*
X10815824Y-9817008D01*
X10815824Y-9817008D02*
X10834872Y-9807484D01*
X10987253Y-9988436D02*
X10996777Y-9997960D01*
X10996777Y-9997960D02*
X10987253Y-10007484D01*
X10987253Y-10007484D02*
X10977729Y-9997960D01*
X10977729Y-9997960D02*
X10987253Y-9988436D01*
X10987253Y-9988436D02*
X10987253Y-10007484D01*
X11072967Y-9826531D02*
X11082491Y-9817008D01*
X11082491Y-9817008D02*
X11101539Y-9807484D01*
X11101539Y-9807484D02*
X11149158Y-9807484D01*
X11149158Y-9807484D02*
X11168205Y-9817008D01*
X11168205Y-9817008D02*
X11177729Y-9826531D01*
X11177729Y-9826531D02*
X11187253Y-9845579D01*
X11187253Y-9845579D02*
X11187253Y-9864627D01*
X11187253Y-9864627D02*
X11177729Y-9893198D01*
X11177729Y-9893198D02*
X11063444Y-10007484D01*
X11063444Y-10007484D02*
X11187253Y-10007484D01*
X11368205Y-9807484D02*
X11272967Y-9807484D01*
X11272967Y-9807484D02*
X11263443Y-9902722D01*
X11263443Y-9902722D02*
X11272967Y-9893198D01*
X11272967Y-9893198D02*
X11292015Y-9883674D01*
X11292015Y-9883674D02*
X11339634Y-9883674D01*
X11339634Y-9883674D02*
X11358682Y-9893198D01*
X11358682Y-9893198D02*
X11368205Y-9902722D01*
X11368205Y-9902722D02*
X11377729Y-9921770D01*
X11377729Y-9921770D02*
X11377729Y-9969389D01*
X11377729Y-9969389D02*
X11368205Y-9988436D01*
X11368205Y-9988436D02*
X11358682Y-9997960D01*
X11358682Y-9997960D02*
X11339634Y-10007484D01*
X11339634Y-10007484D02*
X11292015Y-10007484D01*
X11292015Y-10007484D02*
X11272967Y-9997960D01*
X11272967Y-9997960D02*
X11263443Y-9988436D01*
X11501539Y-9807484D02*
X11520586Y-9807484D01*
X11520586Y-9807484D02*
X11539634Y-9817008D01*
X11539634Y-9817008D02*
X11549158Y-9826531D01*
X11549158Y-9826531D02*
X11558682Y-9845579D01*
X11558682Y-9845579D02*
X11568205Y-9883674D01*
X11568205Y-9883674D02*
X11568205Y-9931293D01*
X11568205Y-9931293D02*
X11558682Y-9969389D01*
X11558682Y-9969389D02*
X11549158Y-9988436D01*
X11549158Y-9988436D02*
X11539634Y-9997960D01*
X11539634Y-9997960D02*
X11520586Y-10007484D01*
X11520586Y-10007484D02*
X11501539Y-10007484D01*
X11501539Y-10007484D02*
X11482491Y-9997960D01*
X11482491Y-9997960D02*
X11472967Y-9988436D01*
X11472967Y-9988436D02*
X11463443Y-9969389D01*
X11463443Y-9969389D02*
X11453920Y-9931293D01*
X11453920Y-9931293D02*
X11453920Y-9883674D01*
X11453920Y-9883674D02*
X11463443Y-9845579D01*
X11463443Y-9845579D02*
X11472967Y-9826531D01*
X11472967Y-9826531D02*
X11482491Y-9817008D01*
X11482491Y-9817008D02*
X11501539Y-9807484D01*
X11653920Y-10007484D02*
X11653920Y-9874150D01*
X11653920Y-9893198D02*
X11663443Y-9883674D01*
X11663443Y-9883674D02*
X11682491Y-9874150D01*
X11682491Y-9874150D02*
X11711063Y-9874150D01*
X11711063Y-9874150D02*
X11730110Y-9883674D01*
X11730110Y-9883674D02*
X11739634Y-9902722D01*
X11739634Y-9902722D02*
X11739634Y-10007484D01*
X11739634Y-9902722D02*
X11749158Y-9883674D01*
X11749158Y-9883674D02*
X11768205Y-9874150D01*
X11768205Y-9874150D02*
X11796777Y-9874150D01*
X11796777Y-9874150D02*
X11815824Y-9883674D01*
X11815824Y-9883674D02*
X11825348Y-9902722D01*
X11825348Y-9902722D02*
X11825348Y-10007484D01*
X11920586Y-10007484D02*
X11920586Y-9874150D01*
X11920586Y-9893198D02*
X11930110Y-9883674D01*
X11930110Y-9883674D02*
X11949158Y-9874150D01*
X11949158Y-9874150D02*
X11977729Y-9874150D01*
X11977729Y-9874150D02*
X11996777Y-9883674D01*
X11996777Y-9883674D02*
X12006301Y-9902722D01*
X12006301Y-9902722D02*
X12006301Y-10007484D01*
X12006301Y-9902722D02*
X12015824Y-9883674D01*
X12015824Y-9883674D02*
X12034872Y-9874150D01*
X12034872Y-9874150D02*
X12063443Y-9874150D01*
X12063443Y-9874150D02*
X12082491Y-9883674D01*
X12082491Y-9883674D02*
X12092015Y-9902722D01*
X12092015Y-9902722D02*
X12092015Y-10007484D01*
X12482491Y-9797960D02*
X12311063Y-10055103D01*
X12739634Y-9807484D02*
X12758682Y-9807484D01*
X12758682Y-9807484D02*
X12777729Y-9817008D01*
X12777729Y-9817008D02*
X12787253Y-9826531D01*
X12787253Y-9826531D02*
X12796777Y-9845579D01*
X12796777Y-9845579D02*
X12806301Y-9883674D01*
X12806301Y-9883674D02*
X12806301Y-9931293D01*
X12806301Y-9931293D02*
X12796777Y-9969389D01*
X12796777Y-9969389D02*
X12787253Y-9988436D01*
X12787253Y-9988436D02*
X12777729Y-9997960D01*
X12777729Y-9997960D02*
X12758682Y-10007484D01*
X12758682Y-10007484D02*
X12739634Y-10007484D01*
X12739634Y-10007484D02*
X12720586Y-9997960D01*
X12720586Y-9997960D02*
X12711063Y-9988436D01*
X12711063Y-9988436D02*
X12701539Y-9969389D01*
X12701539Y-9969389D02*
X12692015Y-9931293D01*
X12692015Y-9931293D02*
X12692015Y-9883674D01*
X12692015Y-9883674D02*
X12701539Y-9845579D01*
X12701539Y-9845579D02*
X12711063Y-9826531D01*
X12711063Y-9826531D02*
X12720586Y-9817008D01*
X12720586Y-9817008D02*
X12739634Y-9807484D01*
X12892015Y-9988436D02*
X12901539Y-9997960D01*
X12901539Y-9997960D02*
X12892015Y-10007484D01*
X12892015Y-10007484D02*
X12882491Y-9997960D01*
X12882491Y-9997960D02*
X12892015Y-9988436D01*
X12892015Y-9988436D02*
X12892015Y-10007484D01*
X13025348Y-9807484D02*
X13044396Y-9807484D01*
X13044396Y-9807484D02*
X13063444Y-9817008D01*
X13063444Y-9817008D02*
X13072967Y-9826531D01*
X13072967Y-9826531D02*
X13082491Y-9845579D01*
X13082491Y-9845579D02*
X13092015Y-9883674D01*
X13092015Y-9883674D02*
X13092015Y-9931293D01*
X13092015Y-9931293D02*
X13082491Y-9969389D01*
X13082491Y-9969389D02*
X13072967Y-9988436D01*
X13072967Y-9988436D02*
X13063444Y-9997960D01*
X13063444Y-9997960D02*
X13044396Y-10007484D01*
X13044396Y-10007484D02*
X13025348Y-10007484D01*
X13025348Y-10007484D02*
X13006301Y-9997960D01*
X13006301Y-9997960D02*
X12996777Y-9988436D01*
X12996777Y-9988436D02*
X12987253Y-9969389D01*
X12987253Y-9969389D02*
X12977729Y-9931293D01*
X12977729Y-9931293D02*
X12977729Y-9883674D01*
X12977729Y-9883674D02*
X12987253Y-9845579D01*
X12987253Y-9845579D02*
X12996777Y-9826531D01*
X12996777Y-9826531D02*
X13006301Y-9817008D01*
X13006301Y-9817008D02*
X13025348Y-9807484D01*
X13215825Y-9807484D02*
X13234872Y-9807484D01*
X13234872Y-9807484D02*
X13253920Y-9817008D01*
X13253920Y-9817008D02*
X13263444Y-9826531D01*
X13263444Y-9826531D02*
X13272967Y-9845579D01*
X13272967Y-9845579D02*
X13282491Y-9883674D01*
X13282491Y-9883674D02*
X13282491Y-9931293D01*
X13282491Y-9931293D02*
X13272967Y-9969389D01*
X13272967Y-9969389D02*
X13263444Y-9988436D01*
X13263444Y-9988436D02*
X13253920Y-9997960D01*
X13253920Y-9997960D02*
X13234872Y-10007484D01*
X13234872Y-10007484D02*
X13215825Y-10007484D01*
X13215825Y-10007484D02*
X13196777Y-9997960D01*
X13196777Y-9997960D02*
X13187253Y-9988436D01*
X13187253Y-9988436D02*
X13177729Y-9969389D01*
X13177729Y-9969389D02*
X13168206Y-9931293D01*
X13168206Y-9931293D02*
X13168206Y-9883674D01*
X13168206Y-9883674D02*
X13177729Y-9845579D01*
X13177729Y-9845579D02*
X13187253Y-9826531D01*
X13187253Y-9826531D02*
X13196777Y-9817008D01*
X13196777Y-9817008D02*
X13215825Y-9807484D01*
X13377729Y-10007484D02*
X13415825Y-10007484D01*
X13415825Y-10007484D02*
X13434872Y-9997960D01*
X13434872Y-9997960D02*
X13444396Y-9988436D01*
X13444396Y-9988436D02*
X13463444Y-9959865D01*
X13463444Y-9959865D02*
X13472967Y-9921770D01*
X13472967Y-9921770D02*
X13472967Y-9845579D01*
X13472967Y-9845579D02*
X13463444Y-9826531D01*
X13463444Y-9826531D02*
X13453920Y-9817008D01*
X13453920Y-9817008D02*
X13434872Y-9807484D01*
X13434872Y-9807484D02*
X13396777Y-9807484D01*
X13396777Y-9807484D02*
X13377729Y-9817008D01*
X13377729Y-9817008D02*
X13368206Y-9826531D01*
X13368206Y-9826531D02*
X13358682Y-9845579D01*
X13358682Y-9845579D02*
X13358682Y-9893198D01*
X13358682Y-9893198D02*
X13368206Y-9912246D01*
X13368206Y-9912246D02*
X13377729Y-9921770D01*
X13377729Y-9921770D02*
X13396777Y-9931293D01*
X13396777Y-9931293D02*
X13434872Y-9931293D01*
X13434872Y-9931293D02*
X13453920Y-9921770D01*
X13453920Y-9921770D02*
X13463444Y-9912246D01*
X13463444Y-9912246D02*
X13472967Y-9893198D01*
X13587253Y-9893198D02*
X13568206Y-9883674D01*
X13568206Y-9883674D02*
X13558682Y-9874150D01*
X13558682Y-9874150D02*
X13549158Y-9855103D01*
X13549158Y-9855103D02*
X13549158Y-9845579D01*
X13549158Y-9845579D02*
X13558682Y-9826531D01*
X13558682Y-9826531D02*
X13568206Y-9817008D01*
X13568206Y-9817008D02*
X13587253Y-9807484D01*
X13587253Y-9807484D02*
X13625348Y-9807484D01*
X13625348Y-9807484D02*
X13644396Y-9817008D01*
X13644396Y-9817008D02*
X13653920Y-9826531D01*
X13653920Y-9826531D02*
X13663444Y-9845579D01*
X13663444Y-9845579D02*
X13663444Y-9855103D01*
X13663444Y-9855103D02*
X13653920Y-9874150D01*
X13653920Y-9874150D02*
X13644396Y-9883674D01*
X13644396Y-9883674D02*
X13625348Y-9893198D01*
X13625348Y-9893198D02*
X13587253Y-9893198D01*
X13587253Y-9893198D02*
X13568206Y-9902722D01*
X13568206Y-9902722D02*
X13558682Y-9912246D01*
X13558682Y-9912246D02*
X13549158Y-9931293D01*
X13549158Y-9931293D02*
X13549158Y-9969389D01*
X13549158Y-9969389D02*
X13558682Y-9988436D01*
X13558682Y-9988436D02*
X13568206Y-9997960D01*
X13568206Y-9997960D02*
X13587253Y-10007484D01*
X13587253Y-10007484D02*
X13625348Y-10007484D01*
X13625348Y-10007484D02*
X13644396Y-9997960D01*
X13644396Y-9997960D02*
X13653920Y-9988436D01*
X13653920Y-9988436D02*
X13663444Y-9969389D01*
X13663444Y-9969389D02*
X13663444Y-9931293D01*
X13663444Y-9931293D02*
X13653920Y-9912246D01*
X13653920Y-9912246D02*
X13644396Y-9902722D01*
X13644396Y-9902722D02*
X13625348Y-9893198D01*
X13739634Y-9807484D02*
X13739634Y-9845579D01*
X13815825Y-9807484D02*
X13815825Y-9845579D01*
X14111063Y-10083674D02*
X14101539Y-10074150D01*
X14101539Y-10074150D02*
X14082491Y-10045579D01*
X14082491Y-10045579D02*
X14072968Y-10026531D01*
X14072968Y-10026531D02*
X14063444Y-9997960D01*
X14063444Y-9997960D02*
X14053920Y-9950341D01*
X14053920Y-9950341D02*
X14053920Y-9912246D01*
X14053920Y-9912246D02*
X14063444Y-9864627D01*
X14063444Y-9864627D02*
X14072968Y-9836055D01*
X14072968Y-9836055D02*
X14082491Y-9817008D01*
X14082491Y-9817008D02*
X14101539Y-9788436D01*
X14101539Y-9788436D02*
X14111063Y-9778912D01*
X14168206Y-9807484D02*
X14301539Y-9807484D01*
X14301539Y-9807484D02*
X14215825Y-10007484D01*
X14482491Y-10007484D02*
X14368206Y-10007484D01*
X14425348Y-10007484D02*
X14425348Y-9807484D01*
X14425348Y-9807484D02*
X14406301Y-9836055D01*
X14406301Y-9836055D02*
X14387253Y-9855103D01*
X14387253Y-9855103D02*
X14368206Y-9864627D01*
X14720587Y-10007484D02*
X14720587Y-9807484D01*
X14806301Y-10007484D02*
X14806301Y-9902722D01*
X14806301Y-9902722D02*
X14796777Y-9883674D01*
X14796777Y-9883674D02*
X14777730Y-9874150D01*
X14777730Y-9874150D02*
X14749158Y-9874150D01*
X14749158Y-9874150D02*
X14730110Y-9883674D01*
X14730110Y-9883674D02*
X14720587Y-9893198D01*
X14930110Y-10007484D02*
X14911063Y-9997960D01*
X14911063Y-9997960D02*
X14901539Y-9988436D01*
X14901539Y-9988436D02*
X14892015Y-9969389D01*
X14892015Y-9969389D02*
X14892015Y-9912246D01*
X14892015Y-9912246D02*
X14901539Y-9893198D01*
X14901539Y-9893198D02*
X14911063Y-9883674D01*
X14911063Y-9883674D02*
X14930110Y-9874150D01*
X14930110Y-9874150D02*
X14958682Y-9874150D01*
X14958682Y-9874150D02*
X14977730Y-9883674D01*
X14977730Y-9883674D02*
X14987253Y-9893198D01*
X14987253Y-9893198D02*
X14996777Y-9912246D01*
X14996777Y-9912246D02*
X14996777Y-9969389D01*
X14996777Y-9969389D02*
X14987253Y-9988436D01*
X14987253Y-9988436D02*
X14977730Y-9997960D01*
X14977730Y-9997960D02*
X14958682Y-10007484D01*
X14958682Y-10007484D02*
X14930110Y-10007484D01*
X15111063Y-10007484D02*
X15092015Y-9997960D01*
X15092015Y-9997960D02*
X15082491Y-9978912D01*
X15082491Y-9978912D02*
X15082491Y-9807484D01*
X15263444Y-9997960D02*
X15244396Y-10007484D01*
X15244396Y-10007484D02*
X15206301Y-10007484D01*
X15206301Y-10007484D02*
X15187253Y-9997960D01*
X15187253Y-9997960D02*
X15177730Y-9978912D01*
X15177730Y-9978912D02*
X15177730Y-9902722D01*
X15177730Y-9902722D02*
X15187253Y-9883674D01*
X15187253Y-9883674D02*
X15206301Y-9874150D01*
X15206301Y-9874150D02*
X15244396Y-9874150D01*
X15244396Y-9874150D02*
X15263444Y-9883674D01*
X15263444Y-9883674D02*
X15272968Y-9902722D01*
X15272968Y-9902722D02*
X15272968Y-9921770D01*
X15272968Y-9921770D02*
X15177730Y-9940817D01*
X15349158Y-9997960D02*
X15368206Y-10007484D01*
X15368206Y-10007484D02*
X15406301Y-10007484D01*
X15406301Y-10007484D02*
X15425349Y-9997960D01*
X15425349Y-9997960D02*
X15434872Y-9978912D01*
X15434872Y-9978912D02*
X15434872Y-9969389D01*
X15434872Y-9969389D02*
X15425349Y-9950341D01*
X15425349Y-9950341D02*
X15406301Y-9940817D01*
X15406301Y-9940817D02*
X15377730Y-9940817D01*
X15377730Y-9940817D02*
X15358682Y-9931293D01*
X15358682Y-9931293D02*
X15349158Y-9912246D01*
X15349158Y-9912246D02*
X15349158Y-9902722D01*
X15349158Y-9902722D02*
X15358682Y-9883674D01*
X15358682Y-9883674D02*
X15377730Y-9874150D01*
X15377730Y-9874150D02*
X15406301Y-9874150D01*
X15406301Y-9874150D02*
X15425349Y-9883674D01*
X15501539Y-10083674D02*
X15511063Y-10074150D01*
X15511063Y-10074150D02*
X15530111Y-10045579D01*
X15530111Y-10045579D02*
X15539634Y-10026531D01*
X15539634Y-10026531D02*
X15549158Y-9997960D01*
X15549158Y-9997960D02*
X15558682Y-9950341D01*
X15558682Y-9950341D02*
X15558682Y-9912246D01*
X15558682Y-9912246D02*
X15549158Y-9864627D01*
X15549158Y-9864627D02*
X15539634Y-9836055D01*
X15539634Y-9836055D02*
X15530111Y-9817008D01*
X15530111Y-9817008D02*
X15511063Y-9788436D01*
X15511063Y-9788436D02*
X15501539Y-9778912D01*
D10*
X10536000Y-10180000D02*
G75*
G03*
X10436000Y-10180000I-50000J0D01*
G01*
X10436000Y-10180000D02*
G75*
G03*
X10536000Y-10180000I50000J0D01*
G01*
D11*
X10901539Y-10271484D02*
X10787253Y-10271484D01*
X10844396Y-10271484D02*
X10844396Y-10071484D01*
X10844396Y-10071484D02*
X10825348Y-10100055D01*
X10825348Y-10100055D02*
X10806301Y-10119103D01*
X10806301Y-10119103D02*
X10787253Y-10128627D01*
X10987253Y-10252436D02*
X10996777Y-10261960D01*
X10996777Y-10261960D02*
X10987253Y-10271484D01*
X10987253Y-10271484D02*
X10977729Y-10261960D01*
X10977729Y-10261960D02*
X10987253Y-10252436D01*
X10987253Y-10252436D02*
X10987253Y-10271484D01*
X11120586Y-10071484D02*
X11139634Y-10071484D01*
X11139634Y-10071484D02*
X11158682Y-10081008D01*
X11158682Y-10081008D02*
X11168205Y-10090531D01*
X11168205Y-10090531D02*
X11177729Y-10109579D01*
X11177729Y-10109579D02*
X11187253Y-10147674D01*
X11187253Y-10147674D02*
X11187253Y-10195293D01*
X11187253Y-10195293D02*
X11177729Y-10233389D01*
X11177729Y-10233389D02*
X11168205Y-10252436D01*
X11168205Y-10252436D02*
X11158682Y-10261960D01*
X11158682Y-10261960D02*
X11139634Y-10271484D01*
X11139634Y-10271484D02*
X11120586Y-10271484D01*
X11120586Y-10271484D02*
X11101539Y-10261960D01*
X11101539Y-10261960D02*
X11092015Y-10252436D01*
X11092015Y-10252436D02*
X11082491Y-10233389D01*
X11082491Y-10233389D02*
X11072967Y-10195293D01*
X11072967Y-10195293D02*
X11072967Y-10147674D01*
X11072967Y-10147674D02*
X11082491Y-10109579D01*
X11082491Y-10109579D02*
X11092015Y-10090531D01*
X11092015Y-10090531D02*
X11101539Y-10081008D01*
X11101539Y-10081008D02*
X11120586Y-10071484D01*
X11311062Y-10071484D02*
X11330110Y-10071484D01*
X11330110Y-10071484D02*
X11349158Y-10081008D01*
X11349158Y-10081008D02*
X11358682Y-10090531D01*
X11358682Y-10090531D02*
X11368205Y-10109579D01*
X11368205Y-10109579D02*
X11377729Y-10147674D01*
X11377729Y-10147674D02*
X11377729Y-10195293D01*
X11377729Y-10195293D02*
X11368205Y-10233389D01*
X11368205Y-10233389D02*
X11358682Y-10252436D01*
X11358682Y-10252436D02*
X11349158Y-10261960D01*
X11349158Y-10261960D02*
X11330110Y-10271484D01*
X11330110Y-10271484D02*
X11311062Y-10271484D01*
X11311062Y-10271484D02*
X11292015Y-10261960D01*
X11292015Y-10261960D02*
X11282491Y-10252436D01*
X11282491Y-10252436D02*
X11272967Y-10233389D01*
X11272967Y-10233389D02*
X11263443Y-10195293D01*
X11263443Y-10195293D02*
X11263443Y-10147674D01*
X11263443Y-10147674D02*
X11272967Y-10109579D01*
X11272967Y-10109579D02*
X11282491Y-10090531D01*
X11282491Y-10090531D02*
X11292015Y-10081008D01*
X11292015Y-10081008D02*
X11311062Y-10071484D01*
X11501539Y-10071484D02*
X11520586Y-10071484D01*
X11520586Y-10071484D02*
X11539634Y-10081008D01*
X11539634Y-10081008D02*
X11549158Y-10090531D01*
X11549158Y-10090531D02*
X11558682Y-10109579D01*
X11558682Y-10109579D02*
X11568205Y-10147674D01*
X11568205Y-10147674D02*
X11568205Y-10195293D01*
X11568205Y-10195293D02*
X11558682Y-10233389D01*
X11558682Y-10233389D02*
X11549158Y-10252436D01*
X11549158Y-10252436D02*
X11539634Y-10261960D01*
X11539634Y-10261960D02*
X11520586Y-10271484D01*
X11520586Y-10271484D02*
X11501539Y-10271484D01*
X11501539Y-10271484D02*
X11482491Y-10261960D01*
X11482491Y-10261960D02*
X11472967Y-10252436D01*
X11472967Y-10252436D02*
X11463443Y-10233389D01*
X11463443Y-10233389D02*
X11453920Y-10195293D01*
X11453920Y-10195293D02*
X11453920Y-10147674D01*
X11453920Y-10147674D02*
X11463443Y-10109579D01*
X11463443Y-10109579D02*
X11472967Y-10090531D01*
X11472967Y-10090531D02*
X11482491Y-10081008D01*
X11482491Y-10081008D02*
X11501539Y-10071484D01*
X11653920Y-10271484D02*
X11653920Y-10138150D01*
X11653920Y-10157198D02*
X11663443Y-10147674D01*
X11663443Y-10147674D02*
X11682491Y-10138150D01*
X11682491Y-10138150D02*
X11711063Y-10138150D01*
X11711063Y-10138150D02*
X11730110Y-10147674D01*
X11730110Y-10147674D02*
X11739634Y-10166722D01*
X11739634Y-10166722D02*
X11739634Y-10271484D01*
X11739634Y-10166722D02*
X11749158Y-10147674D01*
X11749158Y-10147674D02*
X11768205Y-10138150D01*
X11768205Y-10138150D02*
X11796777Y-10138150D01*
X11796777Y-10138150D02*
X11815824Y-10147674D01*
X11815824Y-10147674D02*
X11825348Y-10166722D01*
X11825348Y-10166722D02*
X11825348Y-10271484D01*
X11920586Y-10271484D02*
X11920586Y-10138150D01*
X11920586Y-10157198D02*
X11930110Y-10147674D01*
X11930110Y-10147674D02*
X11949158Y-10138150D01*
X11949158Y-10138150D02*
X11977729Y-10138150D01*
X11977729Y-10138150D02*
X11996777Y-10147674D01*
X11996777Y-10147674D02*
X12006301Y-10166722D01*
X12006301Y-10166722D02*
X12006301Y-10271484D01*
X12006301Y-10166722D02*
X12015824Y-10147674D01*
X12015824Y-10147674D02*
X12034872Y-10138150D01*
X12034872Y-10138150D02*
X12063443Y-10138150D01*
X12063443Y-10138150D02*
X12082491Y-10147674D01*
X12082491Y-10147674D02*
X12092015Y-10166722D01*
X12092015Y-10166722D02*
X12092015Y-10271484D01*
X12482491Y-10061960D02*
X12311063Y-10319103D01*
X12739634Y-10071484D02*
X12758682Y-10071484D01*
X12758682Y-10071484D02*
X12777729Y-10081008D01*
X12777729Y-10081008D02*
X12787253Y-10090531D01*
X12787253Y-10090531D02*
X12796777Y-10109579D01*
X12796777Y-10109579D02*
X12806301Y-10147674D01*
X12806301Y-10147674D02*
X12806301Y-10195293D01*
X12806301Y-10195293D02*
X12796777Y-10233389D01*
X12796777Y-10233389D02*
X12787253Y-10252436D01*
X12787253Y-10252436D02*
X12777729Y-10261960D01*
X12777729Y-10261960D02*
X12758682Y-10271484D01*
X12758682Y-10271484D02*
X12739634Y-10271484D01*
X12739634Y-10271484D02*
X12720586Y-10261960D01*
X12720586Y-10261960D02*
X12711063Y-10252436D01*
X12711063Y-10252436D02*
X12701539Y-10233389D01*
X12701539Y-10233389D02*
X12692015Y-10195293D01*
X12692015Y-10195293D02*
X12692015Y-10147674D01*
X12692015Y-10147674D02*
X12701539Y-10109579D01*
X12701539Y-10109579D02*
X12711063Y-10090531D01*
X12711063Y-10090531D02*
X12720586Y-10081008D01*
X12720586Y-10081008D02*
X12739634Y-10071484D01*
X12892015Y-10252436D02*
X12901539Y-10261960D01*
X12901539Y-10261960D02*
X12892015Y-10271484D01*
X12892015Y-10271484D02*
X12882491Y-10261960D01*
X12882491Y-10261960D02*
X12892015Y-10252436D01*
X12892015Y-10252436D02*
X12892015Y-10271484D01*
X13025348Y-10071484D02*
X13044396Y-10071484D01*
X13044396Y-10071484D02*
X13063444Y-10081008D01*
X13063444Y-10081008D02*
X13072967Y-10090531D01*
X13072967Y-10090531D02*
X13082491Y-10109579D01*
X13082491Y-10109579D02*
X13092015Y-10147674D01*
X13092015Y-10147674D02*
X13092015Y-10195293D01*
X13092015Y-10195293D02*
X13082491Y-10233389D01*
X13082491Y-10233389D02*
X13072967Y-10252436D01*
X13072967Y-10252436D02*
X13063444Y-10261960D01*
X13063444Y-10261960D02*
X13044396Y-10271484D01*
X13044396Y-10271484D02*
X13025348Y-10271484D01*
X13025348Y-10271484D02*
X13006301Y-10261960D01*
X13006301Y-10261960D02*
X12996777Y-10252436D01*
X12996777Y-10252436D02*
X12987253Y-10233389D01*
X12987253Y-10233389D02*
X12977729Y-10195293D01*
X12977729Y-10195293D02*
X12977729Y-10147674D01*
X12977729Y-10147674D02*
X12987253Y-10109579D01*
X12987253Y-10109579D02*
X12996777Y-10090531D01*
X12996777Y-10090531D02*
X13006301Y-10081008D01*
X13006301Y-10081008D02*
X13025348Y-10071484D01*
X13158682Y-10071484D02*
X13282491Y-10071484D01*
X13282491Y-10071484D02*
X13215825Y-10147674D01*
X13215825Y-10147674D02*
X13244396Y-10147674D01*
X13244396Y-10147674D02*
X13263444Y-10157198D01*
X13263444Y-10157198D02*
X13272967Y-10166722D01*
X13272967Y-10166722D02*
X13282491Y-10185770D01*
X13282491Y-10185770D02*
X13282491Y-10233389D01*
X13282491Y-10233389D02*
X13272967Y-10252436D01*
X13272967Y-10252436D02*
X13263444Y-10261960D01*
X13263444Y-10261960D02*
X13244396Y-10271484D01*
X13244396Y-10271484D02*
X13187253Y-10271484D01*
X13187253Y-10271484D02*
X13168206Y-10261960D01*
X13168206Y-10261960D02*
X13158682Y-10252436D01*
X13377729Y-10271484D02*
X13415825Y-10271484D01*
X13415825Y-10271484D02*
X13434872Y-10261960D01*
X13434872Y-10261960D02*
X13444396Y-10252436D01*
X13444396Y-10252436D02*
X13463444Y-10223865D01*
X13463444Y-10223865D02*
X13472967Y-10185770D01*
X13472967Y-10185770D02*
X13472967Y-10109579D01*
X13472967Y-10109579D02*
X13463444Y-10090531D01*
X13463444Y-10090531D02*
X13453920Y-10081008D01*
X13453920Y-10081008D02*
X13434872Y-10071484D01*
X13434872Y-10071484D02*
X13396777Y-10071484D01*
X13396777Y-10071484D02*
X13377729Y-10081008D01*
X13377729Y-10081008D02*
X13368206Y-10090531D01*
X13368206Y-10090531D02*
X13358682Y-10109579D01*
X13358682Y-10109579D02*
X13358682Y-10157198D01*
X13358682Y-10157198D02*
X13368206Y-10176246D01*
X13368206Y-10176246D02*
X13377729Y-10185770D01*
X13377729Y-10185770D02*
X13396777Y-10195293D01*
X13396777Y-10195293D02*
X13434872Y-10195293D01*
X13434872Y-10195293D02*
X13453920Y-10185770D01*
X13453920Y-10185770D02*
X13463444Y-10176246D01*
X13463444Y-10176246D02*
X13472967Y-10157198D01*
X13644396Y-10138150D02*
X13644396Y-10271484D01*
X13596777Y-10061960D02*
X13549158Y-10204817D01*
X13549158Y-10204817D02*
X13672967Y-10204817D01*
X13739634Y-10071484D02*
X13739634Y-10109579D01*
X13815825Y-10071484D02*
X13815825Y-10109579D01*
X14111063Y-10347674D02*
X14101539Y-10338150D01*
X14101539Y-10338150D02*
X14082491Y-10309579D01*
X14082491Y-10309579D02*
X14072968Y-10290531D01*
X14072968Y-10290531D02*
X14063444Y-10261960D01*
X14063444Y-10261960D02*
X14053920Y-10214341D01*
X14053920Y-10214341D02*
X14053920Y-10176246D01*
X14053920Y-10176246D02*
X14063444Y-10128627D01*
X14063444Y-10128627D02*
X14072968Y-10100055D01*
X14072968Y-10100055D02*
X14082491Y-10081008D01*
X14082491Y-10081008D02*
X14101539Y-10052436D01*
X14101539Y-10052436D02*
X14111063Y-10042912D01*
X14177729Y-10090531D02*
X14187253Y-10081008D01*
X14187253Y-10081008D02*
X14206301Y-10071484D01*
X14206301Y-10071484D02*
X14253920Y-10071484D01*
X14253920Y-10071484D02*
X14272968Y-10081008D01*
X14272968Y-10081008D02*
X14282491Y-10090531D01*
X14282491Y-10090531D02*
X14292015Y-10109579D01*
X14292015Y-10109579D02*
X14292015Y-10128627D01*
X14292015Y-10128627D02*
X14282491Y-10157198D01*
X14282491Y-10157198D02*
X14168206Y-10271484D01*
X14168206Y-10271484D02*
X14292015Y-10271484D01*
X14463444Y-10138150D02*
X14463444Y-10271484D01*
X14415825Y-10061960D02*
X14368206Y-10204817D01*
X14368206Y-10204817D02*
X14492015Y-10204817D01*
X14720587Y-10271484D02*
X14720587Y-10071484D01*
X14806301Y-10271484D02*
X14806301Y-10166722D01*
X14806301Y-10166722D02*
X14796777Y-10147674D01*
X14796777Y-10147674D02*
X14777730Y-10138150D01*
X14777730Y-10138150D02*
X14749158Y-10138150D01*
X14749158Y-10138150D02*
X14730110Y-10147674D01*
X14730110Y-10147674D02*
X14720587Y-10157198D01*
X14930110Y-10271484D02*
X14911063Y-10261960D01*
X14911063Y-10261960D02*
X14901539Y-10252436D01*
X14901539Y-10252436D02*
X14892015Y-10233389D01*
X14892015Y-10233389D02*
X14892015Y-10176246D01*
X14892015Y-10176246D02*
X14901539Y-10157198D01*
X14901539Y-10157198D02*
X14911063Y-10147674D01*
X14911063Y-10147674D02*
X14930110Y-10138150D01*
X14930110Y-10138150D02*
X14958682Y-10138150D01*
X14958682Y-10138150D02*
X14977730Y-10147674D01*
X14977730Y-10147674D02*
X14987253Y-10157198D01*
X14987253Y-10157198D02*
X14996777Y-10176246D01*
X14996777Y-10176246D02*
X14996777Y-10233389D01*
X14996777Y-10233389D02*
X14987253Y-10252436D01*
X14987253Y-10252436D02*
X14977730Y-10261960D01*
X14977730Y-10261960D02*
X14958682Y-10271484D01*
X14958682Y-10271484D02*
X14930110Y-10271484D01*
X15111063Y-10271484D02*
X15092015Y-10261960D01*
X15092015Y-10261960D02*
X15082491Y-10242912D01*
X15082491Y-10242912D02*
X15082491Y-10071484D01*
X15263444Y-10261960D02*
X15244396Y-10271484D01*
X15244396Y-10271484D02*
X15206301Y-10271484D01*
X15206301Y-10271484D02*
X15187253Y-10261960D01*
X15187253Y-10261960D02*
X15177730Y-10242912D01*
X15177730Y-10242912D02*
X15177730Y-10166722D01*
X15177730Y-10166722D02*
X15187253Y-10147674D01*
X15187253Y-10147674D02*
X15206301Y-10138150D01*
X15206301Y-10138150D02*
X15244396Y-10138150D01*
X15244396Y-10138150D02*
X15263444Y-10147674D01*
X15263444Y-10147674D02*
X15272968Y-10166722D01*
X15272968Y-10166722D02*
X15272968Y-10185770D01*
X15272968Y-10185770D02*
X15177730Y-10204817D01*
X15349158Y-10261960D02*
X15368206Y-10271484D01*
X15368206Y-10271484D02*
X15406301Y-10271484D01*
X15406301Y-10271484D02*
X15425349Y-10261960D01*
X15425349Y-10261960D02*
X15434872Y-10242912D01*
X15434872Y-10242912D02*
X15434872Y-10233389D01*
X15434872Y-10233389D02*
X15425349Y-10214341D01*
X15425349Y-10214341D02*
X15406301Y-10204817D01*
X15406301Y-10204817D02*
X15377730Y-10204817D01*
X15377730Y-10204817D02*
X15358682Y-10195293D01*
X15358682Y-10195293D02*
X15349158Y-10176246D01*
X15349158Y-10176246D02*
X15349158Y-10166722D01*
X15349158Y-10166722D02*
X15358682Y-10147674D01*
X15358682Y-10147674D02*
X15377730Y-10138150D01*
X15377730Y-10138150D02*
X15406301Y-10138150D01*
X15406301Y-10138150D02*
X15425349Y-10147674D01*
X15501539Y-10347674D02*
X15511063Y-10338150D01*
X15511063Y-10338150D02*
X15530111Y-10309579D01*
X15530111Y-10309579D02*
X15539634Y-10290531D01*
X15539634Y-10290531D02*
X15549158Y-10261960D01*
X15549158Y-10261960D02*
X15558682Y-10214341D01*
X15558682Y-10214341D02*
X15558682Y-10176246D01*
X15558682Y-10176246D02*
X15549158Y-10128627D01*
X15549158Y-10128627D02*
X15539634Y-10100055D01*
X15539634Y-10100055D02*
X15530111Y-10081008D01*
X15530111Y-10081008D02*
X15511063Y-10052436D01*
X15511063Y-10052436D02*
X15501539Y-10042912D01*
M02*
